<?xml version="1.0" encoding="utf-8"?>
<!-- Generator: Adobe Illustrator 27.5.0, SVG Export Plug-In . SVG Version: 6.00 Build 0)  -->
<svg version="1.1" xmlns="http://www.w3.org/2000/svg" xmlns:xlink="http://www.w3.org/1999/xlink" x="0px" y="0px"
	 viewBox="0 0 500 500" style="enable-background:new 0 0 500 500;" xml:space="preserve">
<g id="Background_Complete">
	<g>
		<g>
			<g>
				<path style="fill:#FFFFFF;" d="M370.132,171.149c3.297-1.992,6.807-3.503,10.427-4.531l2.148-10.321l17.438-0.306l2.509,10.238
					c3.654,0.9,7.215,2.287,10.58,4.162l8.813-5.777l12.547,12.114l-5.462,9.008c1.993,3.298,3.504,6.809,4.531,10.429l10.32,2.148
					l0.306,17.437l-10.238,2.51c-0.9,3.653-2.287,7.214-4.162,10.579l5.776,8.814l-12.113,12.547l-9.01-5.463
					c-3.298,1.993-6.808,3.503-10.428,4.531l-2.148,10.321l-17.437,0.306l-2.51-10.239c-3.654-0.901-7.214-2.287-10.58-4.162
					l-8.813,5.777l-12.547-12.114l5.463-9.009c-1.993-3.298-3.504-6.808-4.532-10.428l-10.32-2.148l-0.306-17.437l10.239-2.51
					c0.9-3.653,2.288-7.214,4.162-10.579l-5.776-8.813l12.113-12.547L370.132,171.149L370.132,171.149z"/>
				<g>
					<path style="fill:none;" d="M370.132,171.149c3.297-1.992,6.807-3.503,10.427-4.531l2.148-10.321l17.438-0.306l2.509,10.238
						c3.654,0.9,7.215,2.287,10.58,4.162l8.813-5.777l12.547,12.114l-5.462,9.008c1.993,3.298,3.504,6.809,4.531,10.429l10.32,2.148
						l0.306,17.437l-10.238,2.51c-0.9,3.653-2.287,7.214-4.162,10.579l5.776,8.814l-12.113,12.547l-9.01-5.463
						c-3.298,1.993-6.808,3.503-10.428,4.531l-2.148,10.321l-17.437,0.306l-2.51-10.239c-3.654-0.901-7.214-2.287-10.58-4.162
						l-8.813,5.777l-12.547-12.114l5.463-9.009c-1.993-3.298-3.504-6.808-4.532-10.428l-10.32-2.148l-0.306-17.437l10.239-2.51
						c0.9-3.653,2.288-7.214,4.162-10.579l-5.776-8.813l12.113-12.547L370.132,171.149L370.132,171.149z"/>
					<g>
						<path style="fill:#E0E0E0;" d="M370.132,171.149c0,0-0.195-0.104-0.581-0.33c-0.396-0.235-0.969-0.574-1.723-1.02
							c-1.535-0.919-3.797-2.273-6.751-4.042l0.103-0.013c-3.079,3.207-7.149,7.447-12.077,12.581l0.015-0.164
							c1.754,2.665,3.705,5.629,5.793,8.802l0.051,0.077l-0.045,0.081c-1.725,3.111-3.176,6.654-4.129,10.546l-0.025,0.1
							l-0.101,0.025c-3.189,0.787-6.642,1.638-10.235,2.525l0.141-0.183c0.102,5.49,0.211,11.317,0.326,17.436l-0.163-0.197
							c3.195,0.662,6.714,1.391,10.322,2.138l0.128,0.026l0.036,0.126c0.96,3.385,2.463,6.986,4.517,10.371l0.07,0.116l-0.071,0.117
							c-1.691,2.794-3.556,5.875-5.456,9.013l-0.037-0.287c3.943,3.802,8.195,7.903,12.554,12.106l-0.301-0.028
							c2.744-1.8,5.757-3.778,8.81-5.781l0.125-0.082l0.131,0.073c3.094,1.727,6.71,3.201,10.519,4.134l0.148,0.036l0.036,0.148
							c0.787,3.207,1.646,6.704,2.513,10.238l-0.252-0.194c5.52-0.098,11.438-0.203,17.437-0.31l-0.249,0.206
							c0.678-3.26,1.41-6.778,2.147-10.321l0.032-0.154l0.151-0.043c3.456-0.977,7.036-2.488,10.355-4.498l0.009-0.006l0.136-0.081
							l0.134,0.081c3.022,1.833,6.026,3.654,9.009,5.463l-0.322,0.042c4.09-4.235,8.131-8.421,12.114-12.545l-0.03,0.32
							c-1.944-2.967-3.868-5.906-5.773-8.815l-0.085-0.13l0.075-0.135c1.863-3.34,3.247-6.891,4.141-10.515l0.037-0.148l0.148-0.036
							c3.463-0.848,6.872-1.682,10.239-2.506l-0.189,0.245c-0.102-5.953-0.201-11.768-0.298-17.437l0.191,0.23
							c-3.501-0.731-6.94-1.449-10.318-2.154l-0.139-0.029l-0.039-0.136c-1.053-3.718-2.589-7.21-4.499-10.376l-0.07-0.117
							l0.071-0.116c1.876-3.088,3.694-6.081,5.47-9.004l0.035,0.268c-4.41-4.267-8.573-8.294-12.534-12.127l0.248,0.023
							c-3.102,2.028-6.013,3.931-8.82,5.766l-0.095,0.062l-0.099-0.055c-3.531-1.97-7.07-3.298-10.53-4.159l-0.101-0.025l-0.024-0.1
							c-0.906-3.723-1.722-7.076-2.493-10.242l0.152,0.117c-6.762,0.104-12.519,0.193-17.438,0.268l0.112-0.093
							c-0.873,4.129-1.587,7.509-2.18,10.314l-0.011,0.05l-0.049,0.014c-3.694,1.045-6.287,2.265-7.97,3.112
							c-0.843,0.426-1.455,0.774-1.866,1C370.332,171.046,370.132,171.149,370.132,171.149s0.199-0.134,0.592-0.376
							c0.403-0.238,1.01-0.599,1.848-1.039c1.673-0.873,4.263-2.122,7.964-3.197l-0.059,0.063c0.575-2.808,1.269-6.193,2.116-10.327
							l0.019-0.091l0.094-0.002c4.919-0.097,10.675-0.21,17.436-0.343l0.123-0.002l0.03,0.12c0.781,3.163,1.608,6.513,2.526,10.234
							l-0.125-0.125c3.491,0.858,7.064,2.187,10.63,4.165l-0.193,0.007c2.802-1.842,5.708-3.752,8.806-5.787l0.133-0.088
							l0.115,0.111c3.969,3.825,8.14,7.844,12.558,12.102l0.124,0.12l-0.09,0.148c-1.771,2.926-3.584,5.922-5.455,9.013l0-0.233
							c1.935,3.197,3.493,6.725,4.563,10.482l-0.177-0.165c3.379,0.701,6.819,1.415,10.321,2.141l0.188,0.039l0.004,0.192
							c0.102,5.669,0.207,11.484,0.315,17.437l0.004,0.198l-0.193,0.047c-3.366,0.827-6.775,1.664-10.237,2.514l0.185-0.184
							c-0.902,3.667-2.3,7.262-4.184,10.643l-0.01-0.264c1.907,2.908,3.833,5.846,5.778,8.812l0.113,0.172l-0.143,0.148
							c-3.982,4.126-8.022,8.312-12.111,12.548l-0.144,0.15l-0.178-0.108c-2.983-1.809-5.987-3.63-9.01-5.462l0.27,0l-0.009,0.006
							c-3.36,2.035-6.985,3.564-10.482,4.552l0.183-0.197c-0.738,3.543-1.471,7.061-2.149,10.321l-0.042,0.202l-0.207,0.004
							c-5.999,0.104-11.916,0.207-17.437,0.302l-0.204,0.004l-0.048-0.198c-0.865-3.534-1.722-7.032-2.507-10.239l0.184,0.184
							c-3.854-0.946-7.511-2.441-10.64-4.191l0.256-0.009c-3.055,2-6.07,3.975-8.815,5.772l-0.162,0.106l-0.139-0.134
							c-4.354-4.208-8.601-8.314-12.539-12.121l-0.134-0.129l0.096-0.158c1.904-3.135,3.774-6.214,5.469-9.005l0,0.232
							c-2.071-3.424-3.583-7.065-4.546-10.486l0.163,0.152c-3.606-0.754-7.124-1.49-10.318-2.158l-0.161-0.034l-0.003-0.164
							c-0.101-6.12-0.196-11.947-0.286-17.437l-0.003-0.149l0.144-0.035c3.595-0.876,7.051-1.719,10.242-2.497l-0.125,0.125
							c0.973-3.92,2.447-7.485,4.195-10.612l0.006,0.158c-2.076-3.181-4.015-6.152-5.759-8.824l-0.058-0.089l0.073-0.076
							c4.958-5.106,9.051-9.323,12.148-12.513l0.047-0.048l0.056,0.035c2.921,1.793,5.158,3.167,6.677,4.099
							c0.749,0.464,1.319,0.818,1.712,1.062C369.936,171.016,370.132,171.149,370.132,171.149z"/>
					</g>
				</g>
			</g>
		</g>
	</g>
	<g>
		<g>
			<g>
				<g>
					<path style="fill:#FFFFFF;" d="M150.645,196.659c3.532-2.134,7.292-3.753,11.17-4.855l2.301-11.057l18.682-0.328l2.688,10.968
						c3.915,0.965,7.73,2.45,11.335,4.459l9.442-6.189l13.442,12.979l-5.852,9.651c2.135,3.533,3.754,7.295,4.854,11.173
						l11.056,2.301l0.328,18.681l-10.969,2.689c-0.965,3.914-2.45,7.729-4.459,11.334l6.188,9.442l-12.977,13.442l-9.652-5.853
						c-3.533,2.135-7.294,3.753-11.173,4.854l-2.301,11.057l-18.681,0.328l-2.689-10.969c-3.914-0.965-7.729-2.451-11.334-4.459
						l-9.442,6.189l-13.442-12.978l5.852-9.652c-2.135-3.533-3.754-7.293-4.855-11.172l-11.057-2.301l-0.328-18.681l10.969-2.69
						c0.965-3.914,2.451-7.729,4.459-11.334l-6.188-9.442l12.977-13.442L150.645,196.659L150.645,196.659z"/>
					<g>
						<path style="fill:none;" d="M150.645,196.659c3.532-2.134,7.292-3.753,11.17-4.855l2.301-11.057l18.682-0.328l2.688,10.968
							c3.915,0.965,7.73,2.45,11.335,4.459l9.442-6.189l13.442,12.979l-5.852,9.651c2.135,3.533,3.754,7.295,4.854,11.173
							l11.056,2.301l0.328,18.681l-10.969,2.689c-0.965,3.914-2.45,7.729-4.459,11.334l6.188,9.442l-12.977,13.442l-9.652-5.853
							c-3.533,2.135-7.294,3.753-11.173,4.854l-2.301,11.057l-18.681,0.328l-2.689-10.969c-3.914-0.965-7.729-2.451-11.334-4.459
							l-9.442,6.189l-13.442-12.978l5.852-9.652c-2.135-3.533-3.754-7.293-4.855-11.172l-11.057-2.301l-0.328-18.681l10.969-2.69
							c0.965-3.914,2.451-7.729,4.459-11.334l-6.188-9.442l12.977-13.442L150.645,196.659L150.645,196.659z"/>
						<g>
							<path style="fill:#E0E0E0;" d="M150.645,196.659c0,0-0.209-0.112-0.622-0.355c-0.423-0.251-1.037-0.615-1.845-1.095
								c-1.643-0.985-4.066-2.436-7.23-4.332l0.103-0.013c-3.298,3.434-7.66,7.976-12.942,13.476l0.016-0.164
								c1.879,2.855,3.969,6.031,6.205,9.43l0.051,0.077l-0.045,0.081c-1.849,3.333-3.404,7.13-4.426,11.3l-0.025,0.1l-0.101,0.025
								c-3.417,0.842-7.117,1.755-10.965,2.704l0.141-0.183c0.109,5.882,0.225,12.124,0.347,18.681l-0.163-0.197
								c3.423,0.709,7.193,1.49,11.058,2.291l0.128,0.027l0.036,0.125c1.029,3.628,2.639,7.487,4.84,11.115l0.07,0.116l-0.071,0.117
								c-1.812,2.993-3.81,6.294-5.846,9.656l-0.037-0.287c4.224,4.074,8.78,8.467,13.449,12.971l-0.301-0.028
								c2.939-1.929,6.168-4.047,9.439-6.193l0.125-0.082l0.131,0.073c3.316,1.851,7.191,3.431,11.274,4.431l0.148,0.036
								l0.036,0.148c0.843,3.435,1.763,7.183,2.692,10.968l-0.252-0.194c5.914-0.105,12.254-0.217,18.681-0.331l-0.249,0.206
								c0.726-3.492,1.511-7.261,2.3-11.057l0.032-0.154l0.151-0.043c3.704-1.048,7.541-2.667,11.099-4.821l0.01-0.006l0.136-0.081
								l0.134,0.081c3.238,1.964,6.456,3.915,9.652,5.853l-0.322,0.042c4.382-4.538,8.711-9.021,12.978-13.44l-0.03,0.32
								c-2.082-3.179-4.144-6.327-6.186-9.444l-0.085-0.13l0.075-0.135c1.997-3.579,3.48-7.386,4.437-11.27l0.036-0.148l0.148-0.036
								c3.71-0.908,7.363-1.802,10.969-2.685l-0.189,0.245c-0.109-6.378-0.216-12.607-0.32-18.681l0.191,0.23
								c-3.751-0.783-7.435-1.552-11.055-2.307l-0.139-0.029l-0.038-0.136c-1.129-3.985-2.775-7.727-4.823-11.12l-0.071-0.117
								l0.071-0.117c2.009-3.308,3.957-6.515,5.859-9.647l0.035,0.268c-4.725-4.571-9.185-8.885-13.43-12.991l0.248,0.023
								c-3.323,2.173-6.442,4.212-9.448,6.178l-0.095,0.062l-0.099-0.055c-3.784-2.111-7.577-3.534-11.285-4.456l-0.101-0.025
								l-0.024-0.1c-0.971-3.989-1.846-7.581-2.672-10.972l0.152,0.117c-7.245,0.113-13.412,0.208-18.682,0.29l0.112-0.093
								c-0.934,4.424-1.699,8.046-2.333,11.05l-0.011,0.05l-0.049,0.014c-3.958,1.121-6.736,2.429-8.538,3.337
								c-0.903,0.457-1.558,0.83-1.998,1.073C150.859,196.548,150.645,196.659,150.645,196.659s0.214-0.143,0.635-0.402
								c0.432-0.255,1.082-0.641,1.98-1.111c1.793-0.935,4.567-2.272,8.532-3.422l-0.059,0.064
								c0.617-3.008,1.361-6.635,2.269-11.064l0.019-0.091l0.094-0.002c5.27-0.103,11.436-0.223,18.681-0.365l0.123-0.002l0.03,0.12
								c0.836,3.389,1.722,6.978,2.705,10.964l-0.125-0.125c3.739,0.919,7.565,2.343,11.385,4.462l-0.193,0.007
								c3.002-1.973,6.116-4.019,9.435-6.199l0.133-0.087l0.115,0.111c4.252,4.098,8.72,8.404,13.453,12.966l0.124,0.12l-0.09,0.148
								c-1.897,3.135-3.84,6.344-5.845,9.656l0-0.233c2.072,3.424,3.741,7.202,4.886,11.226l-0.177-0.165
								c3.62,0.751,7.305,1.516,11.057,2.295l0.188,0.039l0.003,0.192c0.109,6.074,0.222,12.303,0.337,18.681l0.004,0.198
								l-0.193,0.047c-3.606,0.885-7.258,1.782-10.967,2.693l0.185-0.185c-0.966,3.927-2.463,7.777-4.481,11.398l-0.009-0.264
								c2.043,3.116,4.106,6.263,6.19,9.441l0.113,0.172l-0.143,0.148c-4.266,4.42-8.594,8.905-12.975,13.443l-0.144,0.15
								l-0.178-0.108c-3.196-1.938-6.414-3.889-9.652-5.852l0.27,0l-0.01,0.006c-3.598,2.179-7.48,3.816-11.226,4.875l0.183-0.197
								c-0.79,3.796-1.575,7.565-2.303,11.057l-0.042,0.203l-0.207,0.004c-6.427,0.111-12.766,0.221-18.681,0.324l-0.204,0.004
								l-0.048-0.198c-0.927-3.786-1.845-7.534-2.686-10.97l0.184,0.185c-4.127-1.013-8.044-2.614-11.394-4.488l0.256-0.009
								c-3.273,2.143-6.503,4.259-9.444,6.185l-0.162,0.106l-0.139-0.135c-4.664-4.508-9.215-8.907-13.435-12.986l-0.133-0.129
								l0.096-0.159c2.04-3.359,4.043-6.657,5.859-9.648l0,0.232c-2.218-3.667-3.838-7.566-4.87-11.23l0.163,0.152
								c-3.864-0.808-7.633-1.596-11.054-2.311l-0.161-0.033l-0.003-0.164c-0.108-6.556-0.211-12.799-0.308-18.681l-0.002-0.148
								l0.144-0.035c3.851-0.939,7.553-1.842,10.972-2.675l-0.125,0.125c1.042-4.198,2.619-8.018,4.492-11.367l0.006,0.158
								c-2.224-3.407-4.303-6.591-6.171-9.453l-0.058-0.089l0.073-0.076c5.311-5.472,9.696-9.991,13.012-13.408l0.047-0.048
								l0.057,0.035c3.132,1.921,5.529,3.392,7.156,4.39c0.803,0.497,1.414,0.876,1.835,1.136
								C150.436,196.518,150.645,196.659,150.645,196.659z"/>
						</g>
					</g>
				</g>
			</g>
		</g>
		<g>
			<g>
				<g>
					<g>
						<g>
							<path style="fill:#F5F5F5;" d="M195.769,229.547c-0.011-11.783-9.573-21.327-21.357-21.315
								c-11.783,0.011-21.327,9.573-21.315,21.356c0.008,8.531,5.024,15.885,12.263,19.292c0.002,2.528,0.005,5.383,0.005,5.383
								l18.7-0.018c0,0,0.11-3.021,0.149-5.718C191.082,244.977,195.777,237.811,195.769,229.547z"/>
						</g>
					</g>
				</g>
				<g>
					<g>
						<g>
							<g>
								<path style="fill:#E0E0E0;" d="M177.303,254.163c0,0,0.003-0.09,0.021-0.263c0.021-0.184,0.049-0.44,0.087-0.77
									c0.082-0.676,0.201-1.673,0.388-2.953c0.189-1.279,0.439-2.844,0.844-4.639c0.414-1.79,0.978-3.822,1.93-5.939
									c0.477-1.058,1.029-2.142,1.752-3.194c0.372-0.515,0.836-1.017,1.457-1.312c0.62-0.297,1.397-0.298,2.026,0.064
									c0.311,0.18,0.576,0.482,0.676,0.844c0.113,0.356,0.077,0.761-0.088,1.095c-0.329,0.675-0.958,1.146-1.647,1.422
									c-1.409,0.495-3.032,0.372-4.436-0.309c-1.408-0.681-2.534-1.993-3.016-3.557c-0.231-0.777-0.357-1.628-0.128-2.461
									c0.2-0.828,1.005-1.569,1.937-1.485c0.462,0.034,0.882,0.349,1.087,0.751c0.214,0.4,0.269,0.874,0.173,1.315
									c-0.205,0.891-0.846,1.557-1.498,2.122c-1.343,1.113-3.174,1.732-4.972,1.448c-1.785-0.283-3.389-1.462-4.129-3.072
									c-0.388-0.791-0.481-1.752-0.147-2.584c0.168-0.411,0.493-0.794,0.935-0.944c0.435-0.168,0.926-0.089,1.314,0.119
									c0.392,0.206,0.711,0.547,0.901,0.935c0.198,0.387,0.29,0.812,0.327,1.229c0.061,0.836-0.057,1.667-0.322,2.439
									c-0.519,1.547-1.622,2.854-3.004,3.581c-1.376,0.736-2.975,0.932-4.415,0.611c-0.711-0.156-1.439-0.44-1.922-1.017
									c-0.473-0.563-0.607-1.456-0.12-2.055c0.242-0.288,0.605-0.442,0.958-0.47c0.355-0.025,0.707,0.046,1.018,0.197
									c0.634,0.312,1.021,0.899,1.307,1.463c0.537,1.157,0.969,2.281,1.406,3.354c1.71,4.299,2.924,7.841,3.737,10.295
									c0.406,1.228,0.706,2.186,0.908,2.836c0.095,0.318,0.17,0.565,0.223,0.742c0.049,0.168,0.067,0.255,0.067,0.255
									s-0.036-0.082-0.093-0.247c-0.059-0.175-0.141-0.419-0.248-0.734c-0.222-0.655-0.543-1.604-0.954-2.82
									c-0.842-2.443-2.082-5.974-3.813-10.258c-0.439-1.065-0.884-2.202-1.414-3.332c-0.278-0.546-0.655-1.093-1.218-1.365
									c-0.546-0.268-1.31-0.265-1.719,0.222c-0.401,0.485-0.296,1.28,0.126,1.773c0.431,0.515,1.111,0.787,1.799,0.935
									c1.385,0.305,2.929,0.112,4.251-0.599c1.325-0.701,2.384-1.958,2.881-3.448c0.254-0.741,0.365-1.544,0.306-2.337
									c-0.058-0.779-0.385-1.595-1.095-1.959c-0.34-0.181-0.749-0.243-1.105-0.104c-0.362,0.124-0.633,0.437-0.784,0.802
									c-0.297,0.747-0.223,1.631,0.145,2.375c0.698,1.522,2.235,2.654,3.933,2.921c1.71,0.272,3.473-0.32,4.764-1.389
									c0.631-0.542,1.235-1.189,1.411-1.976c0.085-0.384,0.035-0.798-0.147-1.139c-0.177-0.342-0.509-0.589-0.885-0.618
									c-0.374-0.037-0.763,0.104-1.06,0.343c-0.302,0.236-0.501,0.583-0.607,0.956c-0.211,0.753-0.098,1.573,0.124,2.317
									c0.459,1.499,1.537,2.761,2.883,3.414c1.339,0.658,2.919,0.775,4.246,0.312c0.646-0.253,1.237-0.704,1.527-1.301
									c0.308-0.593,0.068-1.35-0.496-1.658c-0.551-0.323-1.267-0.329-1.825-0.061c-0.574,0.269-1.02,0.74-1.383,1.24
									c-0.71,1.025-1.27,2.107-1.746,3.152c-0.956,2.097-1.531,4.116-1.957,5.896c-0.418,1.786-0.682,3.345-0.886,4.621
									c-0.188,1.27-0.335,2.26-0.437,2.945c-0.048,0.329-0.086,0.583-0.112,0.766
									C177.324,254.076,177.303,254.163,177.303,254.163z"/>
							</g>
						</g>
					</g>
				</g>
				<g>
					<g>
						<g>
							<path style="fill:#E0E0E0;" d="M182.63,257.709l-16.056,0.015c-0.666,0.001-1.206-0.538-1.206-1.204l0,0
								c-0.001-0.666,0.538-1.205,1.204-1.206l16.056-0.016c0.666-0.001,1.206,0.538,1.206,1.204l0,0
								C183.834,257.168,183.295,257.708,182.63,257.709z"/>
						</g>
					</g>
				</g>
				<g>
					<g>
						<g>
							<path style="fill:#E0E0E0;" d="M182.631,258.761l-16.056,0.015c-0.665,0.001-1.204,0.541-1.204,1.206
								c0.001,0.665,0.541,1.204,1.206,1.204l1.762-0.002l2.343,4.448c0.268,0.509,0.796,0.827,1.371,0.827l5.737-0.006
								c0.581-0.001,1.112-0.326,1.377-0.844l2.268-4.438l1.198-0.001c0.665-0.001,1.205-0.541,1.204-1.206
								C183.836,259.299,183.296,258.76,182.631,258.761z"/>
						</g>
					</g>
				</g>
			</g>
			<path style="fill:#FAFAFA;" d="M168.27,212.183c-0.807,0.082-1.953,0.368-3.287,0.959c-1.334,0.587-2.836,1.518-4.27,2.844
				c-1.601,1.562-2.926,3.238-3.742,5.124c-0.948,2.074-1.408,4.222-1.487,6.169c-0.084,1.951,0.178,3.699,0.594,5.096
				c0.413,1.4,0.936,2.459,1.396,3.127c0.458,0.67,0.814,0.971,0.969,0.89c0.355-0.18-0.251-1.785-0.549-4.388
				c-0.315-2.577-0.171-6.264,1.456-9.793c1.638-3.523,4.356-6.018,6.525-7.445c2.178-1.458,3.795-2.033,3.702-2.421
				C169.537,212.176,169.077,212.098,168.27,212.183z"/>
			<path style="fill:#FAFAFA;" d="M176.733,211.153c-0.483-0.3-1.206-0.509-2.014-0.513c-0.808-0.003-1.533,0.2-2.018,0.496
				c-0.488,0.296-0.738,0.675-0.678,1.029c0.139,0.716,1.333,1.085,2.685,1.096c1.128,0.033,2.337-0.277,2.694-1.074
				C177.465,211.834,177.219,211.453,176.733,211.153z"/>
			<g>
				<g>
					<g>
						<g>
							<path style="fill:#EBEBEB;" d="M178.868,265.991c-0.019,0.04-0.423-0.144-1.103-0.339c-0.679-0.196-1.647-0.37-2.724-0.341
								c-1.077,0.034-2.033,0.267-2.699,0.503c-0.668,0.235-1.06,0.443-1.081,0.404c-0.015-0.024,0.348-0.291,1.015-0.577
								c0.664-0.286,1.646-0.556,2.758-0.592c1.111-0.031,2.108,0.18,2.788,0.426C178.504,265.721,178.882,265.966,178.868,265.991z
								"/>
						</g>
					</g>
				</g>
			</g>
			<g>
				<g>
					<g>
						<g>
							<path style="fill:#EBEBEB;" d="M181.469,261.227c0,0.073-2.903,0.134-6.483,0.137c-3.581,0.003-6.483-0.052-6.483-0.125
								c0-0.072,2.902-0.134,6.483-0.137C178.566,261.098,181.469,261.154,181.469,261.227z"/>
						</g>
					</g>
				</g>
			</g>
			<g>
				<g>
					<g>
						<g>
							<path style="fill:#EBEBEB;" d="M180.466,263.132c0.002,0.035-0.602,0.1-1.581,0.162c-0.979,0.063-2.333,0.12-3.829,0.143
								c-1.497,0.022-2.852,0.006-3.832-0.027c-0.98-0.033-1.586-0.079-1.585-0.115c0.001-0.037,0.607-0.056,1.587-0.071
								c1.058-0.014,2.373-0.031,3.826-0.05c1.453-0.025,2.767-0.048,3.825-0.066C179.858,263.094,180.464,263.095,180.466,263.132z
								"/>
						</g>
					</g>
				</g>
			</g>
		</g>
	</g>
	<g>
		<g>
			<path style="fill:#F5F5F5;" d="M296.326,231.539c2.673-1.259,5.47-2.133,8.312-2.631l2.455-7.703l13.326,1.147l1.104,8.008
				c2.716,0.976,5.323,2.316,7.742,4.013l7.18-3.709l8.612,10.234l-4.88,6.44c1.259,2.673,2.134,5.471,2.631,8.314l7.702,2.455
				l-1.147,13.326l-8.009,1.104c-0.976,2.716-2.316,5.322-4.012,7.741l3.708,7.18l-10.233,8.612l-6.44-4.88
				c-2.673,1.259-5.471,2.133-8.314,2.631l-2.456,7.703l-13.325-1.147l-1.104-8.009c-2.716-0.976-5.322-2.316-7.741-4.013
				l-7.18,3.709l-8.612-10.234l4.88-6.44c-1.259-2.673-2.134-5.47-2.632-8.314l-7.703-2.455l1.147-13.326l8.009-1.105
				c0.976-2.716,2.316-5.322,4.012-7.741l-3.708-7.18l10.233-8.612L296.326,231.539L296.326,231.539z"/>
		</g>
	</g>
	<g>
		<g>
			<path style="fill:#F5F5F5;" d="M70.749,144.461c2.652-1.537,5.466-2.687,8.36-3.452l1.859-8.178l13.875,0.011l1.847,8.18
				c2.894,0.77,5.706,1.924,8.356,3.465l7.095-4.467l9.803,9.82l-4.477,7.086c1.537,2.652,2.687,5.468,3.452,8.362l8.178,1.859
				l-0.011,13.875l-8.181,1.847c-0.77,2.893-1.924,5.705-3.465,8.355l4.466,7.095l-9.818,9.804L105,203.647
				c-2.652,1.537-5.467,2.687-8.362,3.452l-1.859,8.178l-13.875-0.011l-1.847-8.181c-2.893-0.77-5.705-1.925-8.355-3.465
				l-7.095,4.466l-9.804-9.819l4.477-7.087c-1.537-2.652-2.688-5.466-3.453-8.362l-8.178-1.859l0.011-13.875l8.181-1.848
				c0.77-2.893,1.925-5.705,3.465-8.355l-4.466-7.095l9.818-9.804L70.749,144.461L70.749,144.461z"/>
		</g>
	</g>
	<g>
		<g>
			<path style="fill:#F5F5F5;" d="M299.019,166.902c1.614-0.975,3.331-1.714,5.103-2.218l1.051-5.051l8.534-0.15l1.228,5.01
				c1.788,0.441,3.531,1.119,5.178,2.037l4.313-2.827l6.14,5.929l-2.673,4.409c0.975,1.614,1.715,3.332,2.218,5.104l5.05,1.051
				l0.15,8.534l-5.011,1.229c-0.441,1.788-1.119,3.53-2.037,5.177l2.827,4.313l-5.928,6.14l-4.409-2.674
				c-1.614,0.975-3.332,1.714-5.104,2.217l-1.051,5.051l-8.534,0.15l-1.228-5.011c-1.788-0.441-3.531-1.119-5.178-2.037
				l-4.313,2.827l-6.14-5.929l2.673-4.409c-0.975-1.614-1.715-3.331-2.218-5.104l-5.051-1.051l-0.15-8.533l5.011-1.229
				c0.441-1.788,1.12-3.531,2.037-5.177l-2.827-4.313l5.928-6.14L299.019,166.902L299.019,166.902z M303.568,178.27
				c-3.513,3.638-3.411,9.434,0.228,12.947c3.638,3.512,9.434,3.41,12.946-0.228c3.512-3.638,3.41-9.434-0.228-12.946
				S307.081,174.632,303.568,178.27z"/>
		</g>
	</g>
	<g>
		<g>
			<path style="fill:#F5F5F5;" d="M144.115,117.582c1.729-1.045,3.569-1.837,5.467-2.376l1.126-5.411l9.143-0.16l1.316,5.368
				c1.916,0.472,3.783,1.199,5.547,2.183l4.621-3.029l6.578,6.352l-2.864,4.723c1.045,1.729,1.837,3.57,2.376,5.468l5.411,1.126
				l0.161,9.142l-5.368,1.316c-0.472,1.915-1.199,3.782-2.182,5.547l3.028,4.621l-6.351,6.579l-4.724-2.864
				c-1.729,1.045-3.569,1.837-5.468,2.376l-1.126,5.411l-9.142,0.16l-1.316-5.368c-1.916-0.472-3.783-1.199-5.547-2.182
				l-4.621,3.029l-6.579-6.351l2.864-4.724c-1.045-1.729-1.837-3.569-2.376-5.468l-5.411-1.126l-0.16-9.142l5.368-1.316
				c0.472-1.915,1.2-3.782,2.182-5.547l-3.029-4.621l6.351-6.578L144.115,117.582L144.115,117.582z M148.989,129.761
				c-3.763,3.898-3.654,10.107,0.244,13.87c3.897,3.763,10.107,3.653,13.87-0.244c3.762-3.897,3.654-10.107-0.244-13.87
				C158.962,125.755,152.752,125.864,148.989,129.761z"/>
		</g>
	</g>
	<g>
		<g>
			
				<ellipse transform="matrix(0.9266 -0.3762 0.3762 0.9266 -50.9972 162.9469)" style="fill:#E0E0E0;" cx="391.78" cy="212.068" rx="28.317" ry="28.317"/>
			
				<ellipse transform="matrix(0.9266 -0.3762 0.3762 0.9266 -49.8207 162.7172)" style="fill:#EBEBEB;" cx="391.78" cy="208.941" rx="28.317" ry="28.317"/>
			
				<ellipse transform="matrix(0.9489 -0.3155 0.3155 0.9489 -45.9081 134.2618)" style="fill:#FFFFFF;" cx="391.78" cy="208.941" rx="18.967" ry="18.967"/>
			<path style="fill:#EBEBEB;" d="M401.062,208.941c0,5.126-4.156,9.282-9.282,9.282c-5.126,0-9.282-4.156-9.282-9.282
				c0-5.126,4.156-9.282,9.282-9.282C396.906,199.659,401.062,203.814,401.062,208.941z"/>
			<polygon style="fill:#EBEBEB;" points="410.858,188.618 410.089,182.577 416.238,175.995 416.681,182.515 			"/>
			<polygon style="fill:#EBEBEB;" points="424.057,183.811 417.819,183.303 411.565,189.319 417.82,189.987 			"/>
			<g>
				<path style="fill:#E0E0E0;" d="M416.514,182.118c-2.818,2.842-5.636,5.684-8.454,8.526c-4.471,4.508-8.941,9.017-13.412,13.525
					c-1.028,1.036-2.055,2.073-3.083,3.109c-0.977,0.985,0.549,2.506,1.527,1.519c2.818-2.842,5.636-5.684,8.454-8.526
					c4.471-4.508,8.941-9.017,13.412-13.525c1.028-1.036,2.055-2.073,3.083-3.109C419.018,182.653,417.492,181.132,416.514,182.118
					L416.514,182.118z"/>
			</g>
		</g>
	</g>
	<g>
		
			<rect x="276.354" y="427.005" transform="matrix(1 0.0036 -0.0036 1 1.5799 -1.0902)" style="fill:#EBEBEB;" width="53.945" height="21.723"/>
		<polygon style="fill:#EBEBEB;" points="343.456,437.237 336.091,445.68 328.725,454.123 328.786,437.184 328.848,420.245 
			336.152,428.741 		"/>
	</g>
	<g>
		
			<rect x="72.922" y="55.013" transform="matrix(1 0.0036 -0.0036 1 0.2418 -0.3687)" style="fill:#F5F5F5;" width="58.94" height="23.734"/>
		<polygon style="fill:#F5F5F5;" points="146.236,66.192 138.189,75.417 130.142,84.642 130.209,66.135 130.275,47.627 
			138.256,56.91 		"/>
	</g>
	<g>
		
			<rect x="368.305" y="405.049" transform="matrix(1 0.0036 -0.0036 1 1.4817 -1.3718)" style="fill:#EBEBEB;" width="25.736" height="10.363"/>
		<polygon style="fill:#EBEBEB;" points="400.317,409.93 396.803,413.958 393.289,417.986 393.319,409.905 393.348,401.824 
			396.832,405.877 		"/>
	</g>
	<g>
		
			<rect x="42.74" y="380.767" transform="matrix(1 0.0036 -0.0036 1 1.3968 -0.2109)" style="fill:#EBEBEB;" width="32.931" height="13.261"/>
		<polygon style="fill:#EBEBEB;" points="83.702,387.013 79.206,392.167 74.71,397.321 74.747,386.981 74.785,376.64 
			79.244,381.827 		"/>
	</g>
	<g>
		
			<rect x="313.122" y="119.891" transform="matrix(1 0.0036 -0.0036 1 0.4582 -1.1872)" style="fill:#EBEBEB;" width="32.931" height="13.261"/>
		<polygon style="fill:#EBEBEB;" points="354.084,126.136 349.588,131.29 345.092,136.445 345.129,126.104 345.166,115.764 
			349.625,120.95 		"/>
	</g>
	<g>
		
			<rect x="377.408" y="85.68" transform="matrix(1 0.0072 -0.0072 1 0.708 -2.9166)" style="fill:#F5F5F5;" width="54.983" height="22.141"/>
		<polygon style="fill:#F5F5F5;" points="445.802,96.256 438.264,104.834 430.726,113.412 430.85,96.148 430.975,78.884 
			438.388,87.57 		"/>
	</g>
</g>
<g id="Background_Simple" style="display:none;">
	<path style="display:inline;fill:#F5F5F5;" d="M75.295,108.951l1.192-3.484c10.052-29.37,35.07-51.229,65.473-55.903
		c3.908-0.601,7.861-0.92,11.825-0.939c28.544-0.137,56.785,15.283,72.404,39.534c9.186,14.263,14.719,31.789,28.394,41.711
		c17.798,12.913,42.157,8.104,63.331,2.769c21.174-5.336,45.563-10.085,63.306,2.907c11.112,8.136,17.083,21.861,19.325,35.527
		c5.935,36.18-11.979,73.618-40.19,96.457c-28.211,22.839-65.214,32.438-101.432,33.045c-50.737,0.851-102.84-15.924-139.719-51.386
		C82.327,213.727,62.896,158.663,75.295,108.951z"/>
</g>
<g id="Arrows">
	<g>
		
			<rect x="351.183" y="316.085" transform="matrix(1 0.0036 -0.0036 1 1.2206 -1.4587)" style="fill:#FF725E;" width="108.066" height="43.516"/>
		<polygon style="fill:#FF725E;" points="485.604,336.582 470.85,353.495 456.095,370.408 456.218,336.476 456.34,302.543 
			470.972,319.562 		"/>
	</g>
	<g>
		
			<rect x="15.155" y="316.617" transform="matrix(1 0.0036 -0.0036 1 1.2204 -0.2472)" style="fill:#FF725E;" width="108.066" height="43.516"/>
		<polygon style="fill:#FF725E;" points="149.575,337.113 134.821,354.027 120.066,370.94 120.189,337.008 120.311,303.075 
			134.943,320.094 		"/>
	</g>
</g>
<g id="Speech_Bubble">
	<g>
		<g>
			<g>
				<g>
					<g>
						<g>
							<g>
								<path style="fill:#FFFFFF;" d="M295.231,85.66l1.13-7.086c-2.838-4.621-4.343-10.148-3.97-16.049
									c0.88-13.916,12.424-25.083,26.361-25.531c16.103-0.518,29.199,12.9,28.163,29.098
									c-0.879,13.752-12.158,24.835-25.922,25.493c-6.831,0.327-13.136-1.863-18.087-5.711l0.009,0.012L295.231,85.66z"/>
								<g>
									<path style="fill:#263238;" d="M295.231,85.66c0,0,0.155,0.017,0.479,0.034c0.351,0.016,0.835,0.039,1.46,0.067
										c1.331,0.054,3.256,0.131,5.741,0.231c0.058,0.002,0.107-0.043,0.109-0.101c0.001-0.025-0.008-0.05-0.022-0.068
										c0,0-0.006-0.008-0.009-0.012l-0.149,0.147c2.67,2.093,6.691,4.461,12.052,5.413c2.665,0.483,5.627,0.571,8.737,0.152
										c3.103-0.444,6.333-1.478,9.407-3.185c3.063-1.719,5.95-4.13,8.319-7.156c2.359-3.021,4.251-6.657,5.141-10.694
										c0.922-4.02,0.941-8.378-0.048-12.622c-0.963-4.255-3.099-8.328-6.094-11.735c-1.475-1.766-3.256-3.212-5.068-4.543
										c-0.952-0.598-1.896-1.21-2.881-1.726l-1.505-0.716l-0.751-0.352l-0.78-0.276c-4.128-1.552-8.507-2.025-12.647-1.608
										c-4.158,0.397-8.026,1.876-11.328,3.885c-3.308,2.025-6.048,4.645-8.115,7.517c-2.059,2.883-3.454,5.998-4.247,9.047
										c-0.161,0.771-0.32,1.529-0.477,2.275c-0.138,0.748-0.179,1.499-0.271,2.227c-0.16,1.46-0.137,2.88-0.054,4.232
										c0.366,5.442,2.275,9.687,4.043,12.537l-0.014-0.07c-0.338,2.285-0.602,4.065-0.784,5.299
										c-0.082,0.578-0.146,1.027-0.192,1.355C295.242,85.514,295.224,85.665,295.231,85.66c0,0,0.039-0.169,0.096-0.48
										c0.059-0.332,0.139-0.787,0.243-1.372c0.208-1.215,0.508-2.967,0.893-5.217c0.004-0.024-0.002-0.05-0.014-0.07
										c-1.716-2.853-3.564-7.072-3.886-12.451c-0.072-1.336-0.086-2.739,0.081-4.18c0.095-0.718,0.139-1.458,0.28-2.195
										c0.158-0.734,0.319-1.481,0.482-2.24c0.798-3.001,2.187-6.063,4.224-8.892c2.046-2.819,4.752-5.388,8.009-7.369
										c3.252-1.966,7.054-3.41,11.136-3.792c4.066-0.401,8.365,0.069,12.413,1.595l0.765,0.271l0.737,0.346l1.477,0.703
										c0.966,0.507,1.892,1.109,2.826,1.695c1.776,1.308,3.525,2.726,4.971,4.459c2.938,3.343,5.037,7.337,5.984,11.511
										c0.974,4.163,0.961,8.444,0.063,12.39c-0.865,3.965-2.716,7.54-5.027,10.517c-2.321,2.982-5.152,5.363-8.161,7.068
										c-3.019,1.692-6.195,2.724-9.251,3.179c-3.062,0.428-5.988,0.36-8.622-0.099c-5.301-0.903-9.302-3.207-11.98-5.249
										c-0.046-0.036-0.112-0.028-0.148,0.018c-0.03,0.038-0.029,0.092-0.001,0.13c0.003,0.004,0.009,0.012,0.009,0.012
										l0.087-0.169c-2.458-0.046-4.363-0.081-5.68-0.106c-0.636-0.008-1.129-0.015-1.487-0.019
										C295.414,85.653,295.231,85.66,295.231,85.66z"/>
								</g>
							</g>
						</g>
					</g>
				</g>
			</g>
		</g>
		<g>
			<g>
				<path style="fill:#FF725E;" d="M313.696,54.773c0.885-0.535,1.826-0.94,2.797-1.216l0.576-2.769l4.678-0.082l0.673,2.747
					c0.98,0.242,1.936,0.614,2.839,1.117l2.364-1.55l3.366,3.25l-1.465,2.417c0.535,0.885,0.94,1.827,1.216,2.798l2.768,0.576
					l0.082,4.678l-2.747,0.673c-0.242,0.98-0.613,1.935-1.117,2.838l1.549,2.364l-3.25,3.366l-2.417-1.466
					c-0.885,0.535-1.827,0.94-2.798,1.215l-0.576,2.769l-4.678,0.082l-0.673-2.747c-0.98-0.242-1.935-0.614-2.838-1.117l-2.364,1.55
					l-3.366-3.25l1.466-2.417c-0.535-0.885-0.94-1.826-1.216-2.798l-2.769-0.576l-0.082-4.678l2.747-0.674
					c0.242-0.98,0.614-1.935,1.117-2.838l-1.55-2.364l3.25-3.366L313.696,54.773L313.696,54.773z M316.19,61.005
					c-1.926,1.994-1.87,5.172,0.125,7.097c1.994,1.925,5.172,1.869,7.097-0.125c1.925-1.994,1.87-5.172-0.125-7.097
					C321.293,58.955,318.116,59.011,316.19,61.005z"/>
			</g>
		</g>
	</g>
</g>
<g id="Character">
	<g>
		<g>
			<g>
				<g>
					<g>
						<g>
							<g>
								<g>
									<g>
										<g>
											<g>
												<g>
													<g>
														<g>
															<g>
																<path style="fill:#FFBF9D;" d="M237.773,112.28l-0.734-37.949c-0.49-9.434,4.592-17.583,14.036-17.811l0.874,0.03
																	c8.796,0.3,15.889,7.302,16.296,16.093c0.379,8.179,0.693,17.221,0.49,21.596c-0.421,9.055-9.53,10.155-9.53,10.155
																	c-0.02,0-0.017,5.51,0.007,8.171l-0.459,6.254l-5.594,1.42L237.773,112.28z"/>
															</g>
														</g>
													</g>
												</g>
											</g>
										</g>
									</g>
								</g>
							</g>
							<g>
								<g>
									<g>
										<g>
											<g>
												<g>
													<g>
														<g>
															<g>
																<g>
																	<path style="fill:#FF9A6C;" d="M259.203,104.083c0,0-5.722,0.14-11.676-3.89c0,0,2.605,6.908,11.673,6.401
																		L259.203,104.083z"/>
																</g>
															</g>
														</g>
													</g>
												</g>
											</g>
										</g>
									</g>
								</g>
							</g>
							<g>
								<g>
									<g>
										<g>
											<g>
												<g>
													<g>
														<g>
															<g>
																<g>
																	<g>
																		<g>
																			<g>
																				<g>
																					<g>
																						<g>
																							<path style="fill:#263238;" d="M265.157,80.79c0.001,0.684-0.578,1.249-1.292,1.263
																								c-0.713,0.014-1.293-0.528-1.294-1.212c-0.001-0.684,0.577-1.25,1.291-1.264
																								C264.576,79.563,265.156,80.106,265.157,80.79z"/>
																						</g>
																					</g>
																				</g>
																			</g>
																		</g>
																	</g>
																</g>
															</g>
														</g>
													</g>
												</g>
											</g>
										</g>
									</g>
								</g>
							</g>
							<g>
								<g>
									<g>
										<g>
											<g>
												<g>
													<g>
														<g>
															<g>
																<g>
																	<g>
																		<g>
																			<g>
																				<g>
																					<g>
																						<g>
																							<g>
																								<path style="fill:#263238;" d="M266.18,76.267c-0.166,0.163-1.121-0.596-2.514-0.639
																									c-1.39-0.064-2.436,0.618-2.581,0.442c-0.072-0.078,0.102-0.377,0.558-0.686
																									c0.449-0.307,1.207-0.596,2.074-0.562c0.867,0.034,1.585,0.378,1.993,0.719
																									C266.128,75.884,266.262,76.194,266.18,76.267z"/>
																							</g>
																						</g>
																					</g>
																				</g>
																			</g>
																		</g>
																	</g>
																</g>
															</g>
														</g>
													</g>
												</g>
											</g>
										</g>
									</g>
								</g>
							</g>
							<g>
								<g>
									<g>
										<g>
											<g>
												<g>
													<g>
														<g>
															<g>
																<g>
																	<g>
																		<g>
																			<g>
																				<g>
																					<g>
																						<g>
																							<path style="fill:#263238;" d="M253.01,80.485c0.001,0.684-0.578,1.249-1.292,1.263
																								c-0.713,0.014-1.293-0.528-1.294-1.212c-0.001-0.684,0.578-1.249,1.291-1.263
																								C252.429,79.258,253.009,79.801,253.01,80.485z"/>
																						</g>
																					</g>
																				</g>
																			</g>
																		</g>
																	</g>
																</g>
															</g>
														</g>
													</g>
												</g>
											</g>
										</g>
									</g>
								</g>
							</g>
							<g>
								<g>
									<g>
										<g>
											<g>
												<g>
													<g>
														<g>
															<g>
																<g>
																	<g>
																		<g>
																			<g>
																				<g>
																					<g>
																						<g>
																							<g>
																								<path style="fill:#263238;" d="M252.523,76.124c-0.167,0.163-1.123-0.595-2.514-0.639
																									c-1.39-0.063-2.436,0.618-2.581,0.442c-0.071-0.078,0.101-0.377,0.559-0.685
																									c0.449-0.308,1.206-0.596,2.074-0.563c0.867,0.035,1.586,0.379,1.994,0.72
																									C252.469,75.741,252.604,76.051,252.523,76.124z"/>
																							</g>
																						</g>
																					</g>
																				</g>
																			</g>
																		</g>
																	</g>
																</g>
															</g>
														</g>
													</g>
												</g>
											</g>
										</g>
									</g>
								</g>
							</g>
							<g>
								<g>
									<g>
										<g>
											<g>
												<g>
													<g>
														<g>
															<g>
																<g>
																	<g>
																		<g>
																			<g>
																				<g>
																					<g>
																						<g>
																							<path style="fill:#263238;" d="M257.152,86.992c-0.004-0.08,0.867-0.199,2.275-0.331
																								c0.357-0.024,0.696-0.083,0.764-0.324c0.092-0.254-0.043-0.642-0.201-1.062
																								c-0.305-0.872-0.624-1.785-0.959-2.743c-1.328-3.904-2.277-7.109-2.12-7.161
																								c0.158-0.052,1.363,3.07,2.691,6.974c0.319,0.963,0.624,1.88,0.914,2.757
																								c0.121,0.409,0.336,0.875,0.137,1.402c-0.105,0.262-0.372,0.446-0.602,0.5
																								c-0.23,0.062-0.431,0.059-0.607,0.063C258.03,87.095,257.154,87.071,257.152,86.992z"/>
																						</g>
																					</g>
																				</g>
																			</g>
																		</g>
																	</g>
																</g>
															</g>
														</g>
													</g>
												</g>
											</g>
										</g>
									</g>
								</g>
							</g>
							<g>
								<g>
									<g>
										<g>
											<g>
												<g>
													<g>
														<g>
															<g>
																<g>
																	<g>
																		<g>
																			<path style="fill:#263238;" d="M253.122,71.785c-0.201,0.349-1.539-0.071-3.183-0.162
																				c-1.642-0.125-3.023,0.116-3.177-0.256c-0.067-0.177,0.222-0.488,0.81-0.756c0.584-0.268,1.474-0.464,2.46-0.4
																				c0.984,0.066,1.842,0.376,2.386,0.718C252.967,71.272,253.212,71.618,253.122,71.785z"/>
																		</g>
																	</g>
																</g>
															</g>
														</g>
													</g>
												</g>
											</g>
										</g>
									</g>
								</g>
							</g>
							<g>
								<g>
									<g>
										<g>
											<g>
												<g>
													<g>
														<g>
															<g>
																<g>
																	<g>
																		<g>
																			<path style="fill:#263238;" d="M266.384,72.176c-0.295,0.311-1.423-0.04-2.787-0.081
																				c-1.362-0.082-2.522,0.164-2.782-0.172c-0.113-0.163,0.074-0.476,0.584-0.766
																				c0.503-0.289,1.339-0.517,2.276-0.475c0.936,0.043,1.743,0.345,2.211,0.678
																				C266.363,71.695,266.515,72.024,266.384,72.176z"/>
																		</g>
																	</g>
																</g>
															</g>
														</g>
													</g>
												</g>
											</g>
										</g>
									</g>
								</g>
							</g>
							<g>
								<g>
									<g>
										<g>
											<g>
												<g>
													<g>
														<g>
															<path style="fill:#FFBF9D;" d="M237.548,80.754c-0.152-0.072-6.162-2.054-6.175,4.146
																c-0.014,6.2,6.214,4.935,6.225,4.757C237.609,89.48,237.548,80.754,237.548,80.754z"/>
														</g>
													</g>
												</g>
											</g>
										</g>
									</g>
								</g>
							</g>
							<g>
								<g>
									<g>
										<g>
											<g>
												<g>
													<g>
														<g>
															<g>
																<path style="fill:#FF9A6C;" d="M235.709,87.305c-0.027-0.02-0.108,0.075-0.291,0.159
																	c-0.178,0.081-0.485,0.136-0.807,0.015c-0.654-0.242-1.204-1.283-1.232-2.4c-0.014-0.564,0.105-1.101,0.306-1.546
																	c0.191-0.453,0.484-0.77,0.814-0.827c0.328-0.075,0.561,0.123,0.637,0.298c0.082,0.173,0.043,0.297,0.076,0.308
																	c0.017,0.016,0.133-0.104,0.084-0.36c-0.025-0.123-0.098-0.27-0.243-0.389c-0.148-0.121-0.367-0.184-0.597-0.159
																	c-0.478,0.032-0.909,0.471-1.13,0.959c-0.247,0.49-0.395,1.094-0.378,1.727c0.037,1.249,0.674,2.42,1.57,2.681
																	c0.436,0.115,0.8-0.016,0.988-0.162C235.697,87.454,235.73,87.316,235.709,87.305z"/>
															</g>
														</g>
													</g>
												</g>
											</g>
										</g>
									</g>
								</g>
							</g>
						</g>
						<g>
							<g>
								<g>
									<g>
										<g>
											<g>
												<g>
													<path style="fill:#263238;" d="M280.698,64.086c-0.097-0.365-0.361-0.667-0.686-0.861
														c-0.709-0.422-1.527-0.37-2.318-0.386c-1.967-0.04-3.917-0.551-5.667-1.449c0.613-0.307,1.186-0.682,1.673-1.164
														c1.007-0.996,1.589-2.524,1.136-3.865c-0.085-0.252-0.23-0.516-0.484-0.595c-0.402-0.125-0.756,0.269-1.038,0.581
														c-0.928,1.028-1.783,1.467-3.159,1.322c-0.855-0.09-1.683-0.285-2.354-0.707c-0.027-0.028-0.051-0.059-0.077-0.087
														c-0.321-0.334-0.634-0.653-0.943-0.962c0-0.001-0.001-0.002-0.002-0.003l0.001,0.002
														c-2.323-2.323-4.322-3.935-6.384-4.775c-3.022-1.231-8.082-1.747-11.242-0.932c-3.16,0.815-6.005,3.364-6.457,6.595
														c-1.764-1.504-4.421-1.503-6.581-0.645l-0.054-0.024c-2.404,0.846-3.779,3.376-4.498,5.822
														c-0.039,0.134-0.073,0.269-0.111,0.404c-0.817,1.284-1.925,2.381-3.244,3.142c-0.233,0.134-0.499,0.299-0.529,0.565
														c-0.029,0.265,0.193,0.485,0.409,0.641c0.574,0.415,1.243,0.688,1.94,0.816c-0.222,0.581-0.482,1.145-0.803,1.684
														c-0.273,0.458-0.597,1.006-0.363,1.485c0.182,0.37,0.65,0.524,1.058,0.466c0.408-0.058,0.77-0.282,1.12-0.501
														c-0.271,0.64-0.541,1.28-0.811,1.92c0.868,0.155,1.768,0.089,2.612-0.163c0.5,2.292,0.866,6.534,1.449,8.088
														c1.646,0.036,2.046-0.141,2.875,0.137c1.072,0.361,0.654,2.26,2.054,1.726c0.713-0.272,1.816-2.963,2.057-3.687
														c1.6-4.801,2.146-9.949,1.596-14.979c0.999-1.056,2.203-1.917,3.525-2.521l-0.108,0.096
														c2.539-0.87,5.41-1.724,7.81-0.524c1.862,0.931,2.951,2.872,4.339,4.423c2.632,2.939,5.618,4.515,9.558,4.701
														c0.344,2.739,0.43,7.216,0.553,9.77l2.203-5.103l0.002,0.021c0.177-0.299,0.324-0.6,0.466-0.902l0.049-0.091l0-0.012
														c0.225-0.485,0.44-0.971,0.725-1.45c0.008,0.007,0.016,0.015,0.024,0.022c1.379,1.227,3.426-0.631,2.341-2.124
														c-0.215-0.296-0.473-0.56-0.768-0.779c0.63,0.597,1.572,0.885,2.403,0.634c0.83-0.251,1.477-1.088,1.409-1.953
														c-0.047-0.59-0.466-1.12-0.998-1.355c1.118,0.091,2.262-0.148,3.239-0.7C280.283,65.488,280.912,64.89,280.698,64.086z
														"/>
												</g>
											</g>
										</g>
									</g>
								</g>
							</g>
							<g>
								<g>
									<g>
										<g>
											<g>
												<g>
													<path style="fill:#455A64;" d="M245.546,57.855c0.018,0.023-0.381,0.238-0.914,0.829
														c-0.527,0.588-1.121,1.611-1.405,3.007c-0.146,0.694-0.239,1.47-0.242,2.305c-0.007,0.836,0.056,1.731,0.116,2.674
														c0.057,0.943,0.12,1.94,0.056,2.976c-0.033,0.517-0.097,1.043-0.212,1.569c-0.116,0.516-0.254,1.077-0.647,1.52
														c-0.312,0.361-0.833,0.52-1.282,0.425c-0.453-0.082-0.856-0.325-1.15-0.656c-0.581-0.684-0.723-1.549-0.865-2.311
														l0.19,0.024c-0.314,0.683-0.637,1.358-1.112,1.896c-0.468,0.541-1.114,0.898-1.77,0.954
														c-0.326,0.028-0.655-0.025-0.935-0.168c-0.285-0.14-0.492-0.378-0.633-0.629c-0.135-0.255-0.204-0.535-0.189-0.805
														c0.016-0.269,0.123-0.524,0.294-0.704l0.096,0.086c-0.703,0.794-1.444,1.219-1.955,1.454
														c-0.258,0.118-0.465,0.188-0.605,0.232c-0.141,0.041-0.215,0.058-0.217,0.053c-0.002-0.006,0.069-0.035,0.205-0.087
														c0.136-0.055,0.336-0.135,0.587-0.261c0.497-0.251,1.214-0.688,1.888-1.476l0.096,0.086
														c-0.307,0.323-0.327,0.89-0.066,1.348c0.132,0.226,0.321,0.438,0.572,0.557c0.249,0.123,0.549,0.171,0.848,0.142
														c0.602-0.057,1.204-0.392,1.642-0.907c0.449-0.514,0.761-1.171,1.071-1.856l0.132-0.29l0.059,0.314
														c0.142,0.761,0.293,1.592,0.823,2.208c0.263,0.296,0.632,0.516,1.029,0.587c0.398,0.079,0.818-0.051,1.09-0.36
														c0.343-0.383,0.484-0.914,0.597-1.422c0.112-0.513,0.176-1.028,0.21-1.537c0.066-1.019,0.008-2.009-0.044-2.951
														c-0.054-0.943-0.112-1.842-0.097-2.688c0.011-0.846,0.114-1.633,0.271-2.335c0.308-1.413,0.935-2.45,1.491-3.03
														C245.133,58.045,245.546,57.855,245.546,57.855z"/>
												</g>
											</g>
										</g>
									</g>
								</g>
							</g>
							<g>
								<g>
									<g>
										<g>
											<g>
												<g>
													<path style="fill:#455A64;" d="M273.581,66.803c0.002,0.003-0.023,0.024-0.073,0.062
														c-0.061,0.044-0.136,0.098-0.227,0.164c-0.099,0.074-0.226,0.16-0.385,0.245c-0.157,0.089-0.336,0.198-0.553,0.288
														c-0.844,0.397-2.198,0.789-3.887,0.682c-1.673-0.101-3.68-0.703-5.468-2.045c-1.808-1.311-3.391-3.238-4.682-5.443
														c-0.655-1.102-1.188-2.23-1.777-3.273c-0.585-1.044-1.231-2.009-2.016-2.771c-0.775-0.767-1.677-1.335-2.608-1.598
														c-0.464-0.14-0.932-0.173-1.378-0.165c-0.448,0.022-0.872,0.111-1.263,0.237c-0.784,0.259-1.416,0.689-1.897,1.131
														c-0.482,0.447-0.807,0.919-1.03,1.324c-0.416,0.832-0.441,1.368-0.474,1.359c-0.004-0.001-0.001-0.033,0.008-0.095
														c0.012-0.075,0.026-0.166,0.044-0.278c0.045-0.243,0.152-0.595,0.349-1.023c0.215-0.418,0.536-0.908,1.022-1.373
														c0.484-0.461,1.126-0.91,1.93-1.187c0.402-0.135,0.839-0.232,1.303-0.259c0.462-0.014,0.953,0.018,1.434,0.159
														c0.967,0.265,1.9,0.847,2.697,1.628c0.807,0.777,1.469,1.759,2.06,2.809c0.596,1.05,1.129,2.176,1.779,3.267
														c1.282,2.188,2.842,4.093,4.615,5.393c1.755,1.331,3.714,1.933,5.362,2.053c1.661,0.124,2.998-0.239,3.843-0.608
														C273.159,67.112,273.564,66.777,273.581,66.803z"/>
												</g>
											</g>
										</g>
									</g>
								</g>
							</g>
							<g>
								<g>
									<g>
										<g>
											<g>
												<g>
													<path style="fill:#455A64;" d="M274.423,62.819c0.008,0.013-0.109,0.092-0.326,0.225
														c-0.216,0.137-0.546,0.306-0.966,0.485c-0.419,0.183-0.939,0.353-1.528,0.495c-0.591,0.131-1.253,0.227-1.952,0.251
														c-0.7,0.015-1.366-0.044-1.964-0.142c-0.596-0.109-1.124-0.25-1.553-0.409c-0.429-0.156-0.769-0.306-0.991-0.431
														c-0.225-0.121-0.345-0.194-0.338-0.207c0.018-0.036,0.518,0.224,1.377,0.495c0.428,0.139,0.951,0.262,1.537,0.358
														c0.588,0.085,1.24,0.138,1.926,0.122c0.685-0.023,1.334-0.111,1.916-0.229c0.58-0.129,1.095-0.281,1.515-0.443
														C273.919,63.072,274.404,62.785,274.423,62.819z"/>
												</g>
											</g>
										</g>
									</g>
								</g>
							</g>
						</g>
					</g>
				</g>
			</g>
			<g>
				<g>
					<g>
						<g>
							<g>
								<g>
									<g>
										<g>
											<g>
												<g>
													<g>
														<g>
															<g>
																<path style="fill:#263238;" d="M257.052,91.229c-0.074-0.224-1.534,0.352-3.064-0.486
																	c-1.533-0.835-1.985-2.454-2.194-2.385c-0.1,0.016-0.146,0.459,0.096,1.122c0.233,0.652,0.813,1.51,1.749,2.023
																	c0.937,0.51,1.914,0.501,2.532,0.314C256.803,91.632,257.1,91.326,257.052,91.229z"/>
															</g>
														</g>
													</g>
												</g>
											</g>
										</g>
									</g>
								</g>
							</g>
						</g>
					</g>
				</g>
			</g>
		</g>
		<g>
			<g>
				<g>
					<g>
						<g>
							<g>
								<g>
									<g>
										<g>
											<g>
												<path style="fill:#263238;" d="M290.926,328.445l3.288,17.13c0,0,19.027,6.09,19.175,9.632l-36.133,0.657l-2.841-27.315
													L290.926,328.445z"/>
											</g>
										</g>
									</g>
								</g>
							</g>
						</g>
					</g>
				</g>
			</g>
			<g>
				<g>
					<g>
						<g>
							<g>
								<g>
									<g>
										<g>
											<g>
												<path style="fill:#E0E0E0;" d="M277.256,355.865l-0.268-2.557l35.193,0.169c0,0,1.196,0.501,1.4,1.998L277.256,355.865z
													"/>
											</g>
										</g>
									</g>
								</g>
							</g>
						</g>
					</g>
				</g>
			</g>
			<g>
				<g>
					<g>
						<g>
							<g>
								<g>
									<g>
										<g>
											<g>
												<g>
													<path style="fill:#455A64;" d="M294.818,345.399c-0.01,0.181-0.916,0.245-1.817,0.809
														c-0.916,0.541-1.39,1.315-1.555,1.24c-0.166-0.039,0.125-1.114,1.228-1.778
														C293.772,344.996,294.861,345.234,294.818,345.399z"/>
												</g>
											</g>
										</g>
									</g>
								</g>
							</g>
						</g>
					</g>
				</g>
			</g>
			<g>
				<g>
					<g>
						<g>
							<g>
								<g>
									<g>
										<g>
											<g>
												<g>
													<path style="fill:#455A64;" d="M298.671,347.082c0.038,0.176-0.751,0.468-1.381,1.221
														c-0.651,0.734-0.823,1.559-1.002,1.547c-0.171,0.025-0.275-1.036,0.525-1.958
														C297.605,346.964,298.671,346.909,298.671,347.082z"/>
												</g>
											</g>
										</g>
									</g>
								</g>
							</g>
						</g>
					</g>
				</g>
			</g>
			<g>
				<g>
					<g>
						<g>
							<g>
								<g>
									<g>
										<g>
											<g>
												<g>
													<path style="fill:#455A64;" d="M300.786,351.774c-0.165,0.035-0.399-0.873,0.085-1.855
														c0.477-0.985,1.337-1.359,1.411-1.207c0.099,0.151-0.46,0.671-0.845,1.483
														C301.033,350.998,300.967,351.759,300.786,351.774z"/>
												</g>
											</g>
										</g>
									</g>
								</g>
							</g>
						</g>
					</g>
				</g>
			</g>
			<g>
				<g>
					<g>
						<g>
							<g>
								<g>
									<g>
										<g>
											<g>
												<g>
													<path style="fill:#263238;" d="M293.29,341.412c-0.079,0.164-0.904-0.102-1.927-0.053
														c-1.024,0.029-1.827,0.356-1.918,0.199c-0.102-0.133,0.687-0.787,1.894-0.828
														C292.544,340.68,293.382,341.272,293.29,341.412z"/>
												</g>
											</g>
										</g>
									</g>
								</g>
							</g>
						</g>
					</g>
				</g>
			</g>
		</g>
		<g>
			<g>
				<g>
					<g>
						<g>
							<g>
								<g>
									<g>
										<g>
											<g>
												<path style="fill:#263238;" d="M202.989,324.339l-15.094,10.473c0,0,10.741,16.845,8.59,19.664l-28.911-23.166
													l23.016-19.056L202.989,324.339z"/>
											</g>
										</g>
									</g>
								</g>
							</g>
						</g>
					</g>
				</g>
			</g>
			<g>
				<g>
					<g>
						<g>
							<g>
								<g>
									<g>
										<g>
											<g>
												<path style="fill:#E0E0E0;" d="M167.574,331.309l2.345-1.942l26.743,23.004c0,0,0.599,1.15-0.2,2.431L167.574,331.309z"
													/>
											</g>
										</g>
									</g>
								</g>
							</g>
						</g>
					</g>
				</g>
			</g>
			<g>
				<g>
					<g>
						<g>
							<g>
								<g>
									<g>
										<g>
											<g>
												<g>
													<path style="fill:#455A64;" d="M188.473,335.062c-0.123,0.133-0.861-0.397-1.914-0.539
														c-1.05-0.17-1.91,0.123-1.988-0.04c-0.103-0.136,0.808-0.777,2.081-0.583
														C187.925,334.083,188.611,334.962,188.473,335.062z"/>
												</g>
											</g>
										</g>
									</g>
								</g>
							</g>
						</g>
					</g>
				</g>
			</g>
			<g>
				<g>
					<g>
						<g>
							<g>
								<g>
									<g>
										<g>
											<g>
												<g>
													<path style="fill:#455A64;" d="M190.36,338.819c-0.083,0.16-0.877-0.12-1.842,0.057
														c-0.97,0.148-1.629,0.673-1.76,0.549c-0.147-0.09,0.451-0.973,1.655-1.17
														C189.616,338.047,190.47,338.686,190.36,338.819z"/>
												</g>
											</g>
										</g>
									</g>
								</g>
							</g>
						</g>
					</g>
				</g>
			</g>
			<g>
				<g>
					<g>
						<g>
							<g>
								<g>
									<g>
										<g>
											<g>
												<g>
													<path style="fill:#455A64;" d="M188.988,343.779c-0.149-0.078,0.251-0.926,1.251-1.372
														c0.996-0.453,1.897-0.19,1.856-0.026c-0.02,0.18-0.783,0.222-1.598,0.6
														C189.673,343.341,189.136,343.883,188.988,343.779z"/>
												</g>
											</g>
										</g>
									</g>
								</g>
							</g>
						</g>
					</g>
				</g>
			</g>
			<g>
				<g>
					<g>
						<g>
							<g>
								<g>
									<g>
										<g>
											<g>
												<g>
													<path style="fill:#263238;" d="M191.082,331.546c-0.165,0.075-0.63-0.656-1.449-1.273
														c-0.806-0.633-1.633-0.893-1.602-1.072c0.006-0.167,1.032-0.166,1.986,0.573
														C190.976,330.506,191.242,331.497,191.082,331.546z"/>
												</g>
											</g>
										</g>
									</g>
								</g>
							</g>
						</g>
					</g>
				</g>
			</g>
		</g>
		<g>
			<g>
				<g>
					<path style="fill:#263238;" d="M212.622,135.146c0,0-18.413,12.043-19.274,20.025c-0.86,7.982-3.834,24.997-0.729,35.376
						c3.105,10.379,6.078,22.395,14.604,22.6c8.526,0.205,14.066-3.75,14.066-3.75l10.275-31.289l-3.346-35.171l-1.197-12.648
						L212.622,135.146z"/>
				</g>
			</g>
			<g>
				<g>
					<g>
						<path style="fill:#455A64;" d="M214.152,212.393c-0.006,0.003-0.04-0.05-0.099-0.156c-0.068-0.128-0.15-0.285-0.251-0.477
							c-0.215-0.423-0.526-1.049-0.912-1.863c-0.772-1.627-1.856-3.997-3.098-6.969c-1.239-2.972-2.642-6.545-3.979-10.591
							c-1.314-4.046-2.655-8.566-3.262-13.467c-0.61-4.895-0.613-9.596-0.513-13.852c0.11-4.259,0.371-8.086,0.641-11.295
							c0.272-3.208,0.565-5.798,0.786-7.584c0.117-0.866,0.209-1.552,0.276-2.055c0.035-0.214,0.063-0.389,0.086-0.532
							c0.022-0.12,0.037-0.18,0.044-0.18s0.006,0.064-0.003,0.185c-0.013,0.145-0.028,0.321-0.047,0.537
							c-0.049,0.504-0.117,1.193-0.202,2.062c-0.174,1.791-0.424,4.382-0.66,7.59c-0.234,3.207-0.465,7.031-0.555,11.281
							c-0.08,4.246-0.065,8.934,0.541,13.793c0.601,4.858,1.925,9.362,3.216,13.403c1.314,4.04,2.688,7.617,3.891,10.598
							c1.206,2.981,2.25,5.366,2.979,7.011c0.356,0.798,0.637,1.43,0.843,1.893c0.087,0.199,0.158,0.361,0.215,0.494
							C214.137,212.331,214.158,212.39,214.152,212.393z"/>
					</g>
				</g>
			</g>
			<g>
				<g>
					<g>
						<path style="fill:#455A64;" d="M203.072,181.223c0.024,0.053-0.625,0.401-1.668,0.968c-1.043,0.567-2.474,1.366-4.016,2.312
							c-1.542,0.947-2.901,1.862-3.879,2.536c-0.978,0.673-1.582,1.095-1.618,1.049c-0.032-0.041,0.511-0.541,1.452-1.276
							c0.94-0.735,2.284-1.693,3.837-2.648c1.553-0.952,3.016-1.718,4.097-2.223C202.358,181.435,203.05,181.176,203.072,181.223z"
							/>
					</g>
				</g>
			</g>
		</g>
		<g>
			<g>
				<g>
					<path style="fill:#263238;" d="M220.649,204.848c0,0-0.213,1.908,0.196,4.136c0.774,4.209,0.06,11.037,3.646,16.249
						c5.484,7.971,14.783,17.693,14.783,17.693l18.212,44.442l16.172,58.006l22.232-3.29L284.38,271.18l-18.465-66.651
						L220.649,204.848z"/>
				</g>
			</g>
			<g>
				<g>
					<path style="fill:#263238;" d="M177.038,319.113l39.461-50.439l7.854-46.97l30.372,13.967l-9.697,41.6
						c-1.196,5.132-3.888,9.794-7.734,13.396l-43.115,45.032L177.038,319.113z"/>
				</g>
			</g>
			<g>
				<g>
					<g>
						<path style="fill:#455A64;" d="M252.337,274.737c-0.006,0.003-0.043-0.061-0.108-0.189c-0.073-0.149-0.165-0.338-0.279-0.572
							c-0.235-0.508-0.606-1.247-1.025-2.225c-0.863-1.945-2.004-4.806-3.278-8.39c-1.293-3.576-2.653-7.898-4.5-12.56
							c-1.838-4.641-4.352-9.67-8.477-13.752c-2-2.094-4.038-4.063-5.873-6.107c-0.46-0.51-0.899-1.033-1.315-1.569
							c-0.393-0.547-0.783-1.089-1.168-1.625c-0.399-0.527-0.723-1.097-1.078-1.637c-0.173-0.273-0.345-0.544-0.516-0.814
							c-0.155-0.28-0.308-0.558-0.461-0.834c-1.232-2.203-2.159-4.443-2.707-6.628c-0.54-2.188-0.702-4.298-0.635-6.206
							c0.007-0.957,0.142-1.859,0.23-2.714c0.161-0.844,0.26-1.651,0.457-2.383c0.172-0.738,0.336-1.423,0.532-2.041
							c0.18-0.623,0.348-1.19,0.53-1.691c0.335-1.011,0.633-1.781,0.843-2.3c0.098-0.242,0.177-0.436,0.239-0.59
							c0.056-0.132,0.088-0.199,0.094-0.196c0.006,0.002-0.013,0.074-0.056,0.211c-0.053,0.157-0.119,0.356-0.202,0.604
							c-0.186,0.528-0.459,1.305-0.77,2.32c-0.17,0.503-0.327,1.071-0.495,1.694c-0.184,0.619-0.337,1.302-0.498,2.038
							c-0.186,0.73-0.273,1.532-0.424,2.37c-0.077,0.848-0.202,1.742-0.2,2.688c-0.048,1.886,0.127,3.963,0.673,6.116
							c0.555,2.15,1.48,4.355,2.707,6.53c0.152,0.273,0.305,0.548,0.459,0.824c0.17,0.267,0.342,0.535,0.514,0.805
							c0.353,0.534,0.676,1.097,1.073,1.619c0.384,0.531,0.771,1.067,1.163,1.609c0.408,0.523,0.842,1.038,1.299,1.543
							c1.824,2.024,3.863,3.992,5.87,6.091c4.168,4.125,6.707,9.229,8.53,13.891c1.837,4.69,3.168,9.019,4.425,12.603
							c1.239,3.591,2.337,6.462,3.155,8.422c0.397,0.985,0.744,1.734,0.956,2.252c0.1,0.241,0.18,0.435,0.243,0.589
							C252.319,274.664,252.343,274.734,252.337,274.737z"/>
					</g>
				</g>
			</g>
		</g>
		<g>
			<g>
				<g>
					<path style="fill:#FF725E;" d="M259.698,116.577l6.969,8.301c0,0,17.835,38.678,17.714,43.414
						c-0.121,4.735-10.725,10.29-10.725,10.29L259.698,116.577z"/>
				</g>
			</g>
			<g>
				<g>
					<polygon style="fill:#FAFAFA;" points="236.769,101.523 236.759,99.318 259.212,112.114 259.698,116.577 268.093,139.243 
						272.039,199.714 268.103,208.558 250.308,213.154 244.331,116.985 					"/>
				</g>
			</g>
			<g>
				<g>
					<path style="fill:#FF725E;" d="M233.729,105.596l-9.169,5.194l-1.672,48.612l1.781,20.851l-6.695,34.194l0.227,4.79
						l52.399-0.193l0.488-18.424c0,0,0.479-9.173,0.512-11.784c0.095-7.616-2.822-28.455-4.242-39.483
						c-1.927-14.96-11.715-31.961-11.715-31.961l-19.871-16.708L233.729,105.596z"/>
				</g>
			</g>
			<g>
				<g>
					<g>
						<path style="fill:#263238;" d="M268.102,166.417c-0.006,0.003-0.038-0.054-0.093-0.167c-0.063-0.136-0.14-0.302-0.235-0.507
							c-0.212-0.479-0.502-1.135-0.87-1.965c-0.753-1.744-1.819-4.215-3.13-7.254c-2.619-6.167-6.215-14.636-10.187-23.991
							c-0.783-1.858-1.552-3.681-2.298-5.452l-0.024-0.057l0.012-0.06c0.287-1.384,0.567-2.738,0.84-4.055l0.223,0.227
							c-0.894,0.165-1.769,0.327-2.627,0.486l-0.097,0.018l-0.069-0.069c-4.983-4.967-9.249-9.219-12.296-12.256
							c-1.484-1.499-2.67-2.697-3.51-3.545c-0.387-0.4-0.693-0.717-0.924-0.955c-0.207-0.219-0.311-0.337-0.304-0.345
							c0.008-0.007,0.126,0.095,0.348,0.3c0.241,0.228,0.562,0.531,0.966,0.913c0.858,0.83,2.07,2.003,3.585,3.469
							c3.072,3.012,7.373,7.229,12.397,12.154l-0.165-0.051c0.857-0.162,1.731-0.327,2.625-0.495l0.28-0.053l-0.057,0.279
							c-0.27,1.318-0.547,2.672-0.83,4.057l-0.011-0.116c0.748,1.77,1.518,3.592,2.303,5.45c3.931,9.373,7.489,17.858,10.08,24.036
							c1.263,3.06,2.289,5.547,3.013,7.303c0.338,0.842,0.606,1.508,0.801,1.994c0.08,0.211,0.146,0.383,0.199,0.522
							C268.089,166.353,268.108,166.415,268.102,166.417z"/>
					</g>
				</g>
			</g>
			<g style="opacity:0.3;">
				<g>
					<path d="M223.32,187.139l21.467,1.071c0,0,12.066,9.022,16.633,9.095c4.313,0.069,6.681-2.254,6.681-2.254l3.5-4.975v-3.171
						l-13.359,0.932l-7.078-2.861l-27.599-0.549L223.32,187.139z"/>
				</g>
			</g>
			<g>
				<g>
					<g>
						<path style="fill:#E0E0E0;" d="M254.718,132.675l-23.935,38.48c-1.604,2.579-0.797,5.913,1.822,7.528l26.592,16.393
							c2.647,1.632,6.169,0.907,7.909-1.627l25.268-36.801c1.75-2.548,1.045-5.973-1.578-7.671l-27.926-18.072
							C260.138,129.136,256.417,129.944,254.718,132.675z"/>
					</g>
				</g>
			</g>
			<g>
				<g>
					<path style="fill:#FFFFFF;" d="M264.83,160.805c0,2.165-1.755,3.921-3.921,3.921s-3.921-1.755-3.921-3.921
						s1.755-3.921,3.921-3.921S264.83,158.639,264.83,160.805z"/>
				</g>
			</g>
			<g style="opacity:0.3;">
				<g>
					<polygon points="245.672,122.607 247.675,125.521 250.308,124.702 249.041,127.16 252.374,136.444 254.209,133.495 
						251.47,127.005 252.305,122.949 249.679,123.439 245.371,119.18 					"/>
				</g>
			</g>
			<g style="opacity:0.3;">
				<g>
					<polygon points="237.478,162.489 261.648,166.417 267.551,166.973 276.932,160.161 276.311,163.432 271.601,168.81 
						268.102,176.128 267.075,180.17 240.442,178.582 235.924,175.413 					"/>
				</g>
			</g>
			<g>
				<g>
					<g>
						<path style="fill:#263238;" d="M224.085,111.071c0,0,3.114-3.035,4.88-4.145c2.582-1.621,5.587-1.405,6.831-0.912
							c1.245,0.493,7.517,2.327,9.874,14.574c1.456,7.565-8.808,44.137-8.808,44.137l-7.54-1.072c0,0,7.034-28.6,7.688-34.59
							C237.664,123.074,239.766,107.978,224.085,111.071z"/>
					</g>
				</g>
				<g>
					<g>
						<g>
							<g>
								<path style="fill:#455A64;" d="M228.818,108.291c0.005,0.11-0.41,0.243-0.926,0.297c-0.516,0.054-0.951,0.01-0.972-0.098
									c-0.021-0.108,0.393-0.241,0.926-0.297C228.378,108.137,228.814,108.182,228.818,108.291z"/>
							</g>
						</g>
					</g>
					<g>
						<g>
							<g>
								<path style="fill:#455A64;" d="M236.013,109.521c-0.054,0.099-0.809-0.209-1.769-0.488c-0.959-0.286-1.76-0.473-1.744-0.586
									c0.012-0.104,0.86-0.092,1.857,0.205C235.358,108.943,236.067,109.428,236.013,109.521z"/>
							</g>
						</g>
					</g>
					<g>
						<g>
							<g>
								<path style="fill:#455A64;" d="M240.451,115.202c-0.104,0.04-0.482-0.691-0.947-1.586c-0.462-0.899-0.829-1.633-0.739-1.693
									c0.092-0.063,0.622,0.595,1.093,1.511C240.332,114.35,240.552,115.164,240.451,115.202z"/>
							</g>
						</g>
					</g>
					<g>
						<g>
							<g>
								<path style="fill:#455A64;" d="M241.561,122.44c-0.113-0.008-0.132-0.833-0.165-1.84c-0.029-1.006-0.077-1.826,0.033-1.845
									c0.106-0.019,0.334,0.797,0.364,1.832C241.827,121.622,241.667,122.449,241.561,122.44z"/>
							</g>
						</g>
					</g>
					<g>
						<g>
							<g>
								<path style="fill:#455A64;" d="M240.349,129.71c-0.107-0.026-0.021-0.85,0.191-1.84c0.212-0.991,0.474-1.781,0.581-1.766
									c0.111,0.016,0.024,0.839-0.19,1.841C240.717,128.946,240.456,129.736,240.349,129.71z"/>
							</g>
						</g>
					</g>
					<g>
						<g>
							<g>
								<path style="fill:#455A64;" d="M238.583,136.873c-0.106-0.027,0.008-0.85,0.255-1.837c0.248-0.988,0.535-1.767,0.641-1.741
									c0.107,0.026-0.008,0.849-0.255,1.837C238.977,136.121,238.69,136.9,238.583,136.873z"/>
							</g>
						</g>
					</g>
					<g>
						<g>
							<g>
								<path style="fill:#455A64;" d="M236.75,144.025c-0.106-0.027,0.014-0.85,0.268-1.837c0.254-0.987,0.547-1.765,0.653-1.738
									c0.106,0.027-0.014,0.85-0.268,1.837C237.149,143.274,236.856,144.052,236.75,144.025z"/>
							</g>
						</g>
					</g>
					<g>
						<g>
							<g>
								<path style="fill:#455A64;" d="M234.887,151.168c-0.106-0.028,0.017-0.85,0.275-1.836c0.258-0.986,0.553-1.763,0.66-1.735
									c0.106,0.028-0.017,0.85-0.275,1.836C235.288,150.419,234.993,151.195,234.887,151.168z"/>
							</g>
						</g>
					</g>
					<g>
						<g>
							<g>
								<path style="fill:#455A64;" d="M233.004,158.307c-0.106-0.028,0.019-0.85,0.279-1.835c0.261-0.986,0.558-1.761,0.664-1.733
									c0.106,0.028-0.019,0.85-0.279,1.835C233.407,157.559,233.11,158.335,233.004,158.307z"/>
							</g>
						</g>
					</g>
					<g>
						<g>
							<g>
								<path style="fill:#455A64;" d="M231.564,163.72c-0.106-0.028-0.082-0.464,0.053-0.972c0.136-0.509,0.332-0.898,0.438-0.87
									c0.106,0.028,0.082,0.463-0.053,0.972C231.866,163.359,231.67,163.749,231.564,163.72z"/>
							</g>
						</g>
					</g>
				</g>
			</g>
			<g>
				<g>
					<g>
						<path style="fill:#263238;" d="M233.43,198.642c0.006,0.011-0.068,0.159-0.217,0.435c-0.167,0.304-0.385,0.699-0.658,1.193
							c-0.6,1.059-1.439,2.541-2.484,4.387l-0.109-0.194c5.103,0.071,12.828,0.215,21.45,0.407c0.79,0.018,1.572,0.035,2.344,0.053
							l-0.202,0.214c-0.164-2.137-0.322-4.198-0.47-6.136l0.186,0.175c-5.719-0.131-10.65-0.244-14.199-0.325
							c-1.733-0.053-3.127-0.095-4.132-0.126c-0.457-0.019-0.825-0.035-1.113-0.047C233.571,198.664,233.435,198.652,233.43,198.642
							c-0.005-0.01,0.119-0.017,0.364-0.022c0.281-0.002,0.64-0.005,1.086-0.009c0.999,0.004,2.384,0.01,4.106,0.017
							c3.573,0.042,8.535,0.1,14.291,0.168l0.172,0.002l0.014,0.173c0.154,1.938,0.318,3.998,0.488,6.135l0.017,0.218l-0.219-0.005
							c-0.772-0.017-1.554-0.034-2.344-0.051c-8.623-0.192-16.346-0.39-21.447-0.546l-0.221-0.007l0.113-0.188
							c1.103-1.838,1.989-3.313,2.622-4.368c0.292-0.474,0.526-0.853,0.705-1.144C233.337,198.759,233.424,198.632,233.43,198.642z"
							/>
					</g>
				</g>
			</g>
		</g>
		<g>
			<g>
				<g>
					<g>
						<g>
							<g>
								<g>
									<path style="fill:#FFBF9D;" d="M277.45,159.09c0.229-0.398,0.815-0.437,1.105-0.079c0.684,0.845,1.442,2.529,0.291,4.933
										c-1.236,2.582-2.91,3.815-2.91,3.815l6.899,3.539c0,0,2.262,1.674,1.312,3.07c-0.95,1.396-1.258,1.152-1.258,1.152
										s1.624,0.768,0.773,2.565c-0.489,1.033-2.04,1.323-2.04,1.323s-0.302,1.985-0.731,2.279
										c-0.429,0.294-2.426,0.382-2.426,0.382s-0.108,1.314-1.061,1.596c-0.953,0.282-5.173-0.257-5.173-0.257
										s-4.702-1.538-6.469-2.187l-2.832-0.26l1.023-11.488c0,0,2.4,0.002,2.941-0.287c1.149-0.613,5.626-4.379,5.626-4.379
										s2.512-1.449,3.48-2.924C276.741,160.755,277.088,159.72,277.45,159.09z"/>
								</g>
							</g>
						</g>
					</g>
					<g>
						<g>
							<g>
								<g>
									<path style="fill:#FF9A6C;" d="M278.698,173.821c-0.017,0.044,0.93,0.435,2.116,0.874c1.186,0.439,2.162,0.759,2.18,0.715
										c0.017-0.044-0.93-0.435-2.116-0.874C279.692,174.097,278.716,173.777,278.698,173.821z"/>
								</g>
							</g>
						</g>
					</g>
					<g>
						<g>
							<g>
								<g>
									<path style="fill:#FF9A6C;" d="M276.311,177.806c-0.008,0.022,0.279,0.144,0.752,0.315c0.473,0.171,1.135,0.39,1.874,0.605
										c0.74,0.214,1.417,0.384,1.91,0.494c0.493,0.109,0.802,0.16,0.808,0.138c0.006-0.023-0.292-0.115-0.776-0.254
										c-0.546-0.156-1.185-0.339-1.891-0.54c-0.704-0.207-1.34-0.395-1.885-0.556
										C276.621,177.865,276.32,177.783,276.311,177.806z"/>
								</g>
							</g>
						</g>
					</g>
					<g>
						<g>
							<g>
								<g>
									<path style="fill:#FF9A6C;" d="M275.432,181.505c-0.008,0.046,0.656,0.193,1.485,0.327c0.828,0.135,1.507,0.206,1.515,0.16
										c0.008-0.046-0.656-0.193-1.485-0.327C276.118,181.53,275.44,181.459,275.432,181.505z"/>
								</g>
							</g>
						</g>
					</g>
				</g>
			</g>
			<g>
				<g>
					<g>
						<polygon style="fill:#F5F5F5;" points="259.666,168.142 264.029,168.602 263.701,182.292 258.812,181.813 						"/>
					</g>
				</g>
				<g>
					<g>
						<g>
							<path style="fill:#263238;" d="M259.666,168.142c0.015,0.018,0.007,0.397-0.019,1.076c-0.032,0.732-0.074,1.698-0.126,2.879
								c-0.114,2.441-0.284,5.83-0.517,9.728l-0.173-0.203c1.459,0.141,3.017,0.291,4.625,0.446
								c0.089,0.009,0.178,0.018,0.264,0.026l-0.218,0.193c0.133-5.517,0.278-10.44,0.399-13.688l0.115,0.13
								c-1.307-0.167-2.368-0.303-3.164-0.405C260.101,168.222,259.681,168.161,259.666,168.142
								c-0.016-0.019,0.373,0.005,1.119,0.06c0.82,0.068,1.912,0.16,3.258,0.272l0.116,0.01l-0.001,0.121
								c-0.035,3.249-0.126,8.173-0.257,13.691l-0.005,0.214l-0.213-0.021c-0.086-0.008-0.175-0.017-0.264-0.026
								c-1.607-0.16-3.165-0.314-4.624-0.459l-0.185-0.018l0.012-0.185c0.259-3.981,0.516-7.427,0.706-9.852
								c0.095-1.16,0.172-2.107,0.23-2.827C259.614,168.47,259.651,168.125,259.666,168.142z"/>
						</g>
					</g>
				</g>
			</g>
			<g>
				<g>
					<g>
						<path style="fill:#FF725E;" d="M226.147,109.967c0,0-8.341,3.169-10.527,13.755c-2.185,10.586-12.216,46.384-10.173,52.839
							c2.043,6.455,8.979,7.264,23.071,8.233c14.092,0.969,29.972,1.924,29.972,1.924l1.251-18.991l-30.208-4.295
							c0,0,8.794-31.344,9.443-35.878C239.626,123.019,241.113,106.615,226.147,109.967z"/>
					</g>
				</g>
				<g>
					<g>
						<g>
							<path style="fill:#263238;" d="M205.448,176.561c0.007-0.002,0.048,0.087,0.122,0.262c0.08,0.193,0.186,0.451,0.321,0.78
								c0.167,0.329,0.389,0.732,0.676,1.187c0.165,0.215,0.342,0.445,0.53,0.691c0.193,0.243,0.451,0.455,0.695,0.705
								c1.032,0.948,2.571,1.785,4.482,2.367c1.91,0.592,4.169,0.977,6.677,1.273c5.021,0.58,11.052,0.878,17.745,1.31
								c6.696,0.425,14.062,0.892,21.808,1.383l-0.21,0.185c0.022-0.331,0.046-0.691,0.069-1.05
								c0.418-6.288,0.819-12.337,1.191-17.939l0.162,0.199c-12.721-1.845-23.372-3.389-30.195-4.379l0.065-0.012
								c-2.404,1.306-4.287,2.329-5.591,3.036c-0.629,0.335-1.118,0.595-1.468,0.782c-0.156,0.08-0.279,0.143-0.379,0.194
								c-0.085,0.042-0.13,0.061-0.132,0.057c-0.002-0.004,0.038-0.032,0.119-0.082c0.096-0.057,0.215-0.128,0.365-0.218
								c0.344-0.198,0.824-0.474,1.443-0.829c1.292-0.728,3.159-1.78,5.543-3.122l0.03-0.017l0.035,0.005
								c6.828,0.951,17.488,2.437,30.219,4.211l0.173,0.024l-0.012,0.175c-0.366,5.603-0.761,11.653-1.171,17.941
								c-0.024,0.36-0.047,0.719-0.069,1.05l-0.013,0.198l-0.197-0.013c-7.745-0.503-15.111-0.982-21.808-1.417
								c-6.692-0.453-12.719-0.78-17.755-1.397c-2.514-0.315-4.784-0.721-6.709-1.34c-1.926-0.608-3.484-1.48-4.519-2.464
								c-0.245-0.259-0.503-0.48-0.694-0.731c-0.186-0.254-0.361-0.492-0.524-0.713c-0.281-0.468-0.493-0.882-0.65-1.219
								c-0.121-0.336-0.215-0.601-0.287-0.799C205.47,176.656,205.442,176.563,205.448,176.561z"/>
						</g>
					</g>
				</g>
			</g>
		</g>
	</g>
</g>
<g id="Hand">
	<g>
		<path style="fill:#FFBF9D;" d="M114.602,412.855l17.655-27.315c4.51-12.058,9.426-23.923,12.854-28.611
			c6.772-9.264,21.314-19.161,44.098-17.402c6.234,0.481,14.103,2.891,20.151,4.48c8.533,2.243,12.407,2.839,22.519,3.16
			c18.284,0.58,62.308-5.522,63.334,15.194c1.026,20.716-30.901,18.4-40.643,17.988c-9.742-0.413-28.428-1.601-35.711,0.592
			c-7.283,2.193-30.018,2.807-30.018,2.807l-20.94,70.005L114.602,412.855z"/>
		<path style="fill:#FFBF9D;" d="M174.162,444.932l19.222-28.194c15.267-2.665,46.384-8.215,69.991-11.709
			c16.179-2.394,34.963-5.094,44.933-6.52c4.621-0.661,8.943-2.642,12.464-5.708l61.117-53.222c0,0-2.16-15.163-21.074-10.088
			c0,0-11.379-9.161-30.933,4.197l-26.749,21.285l-42.997-1.88l-87.877,8.865l-33.311,57.436L174.162,444.932z"/>
		<g>
			<path style="fill:#FF9A6C;" d="M277.316,397.836c-0.004-0.012,0.193-0.088,0.576-0.223c0.416-0.142,0.98-0.335,1.699-0.581
				c1.526-0.504,3.703-1.224,6.45-2.132c5.589-1.813,13.493-4.376,22.899-7.426l-0.087,0.051
				c6.039-5.649,13.064-12.121,20.571-18.914c14.642-13.252,27.915-24.76,36.425-31.743l-0.049,0.172
				c-1.302-3.87-3.844-6.156-5.626-7.361c-0.911-0.613-1.678-0.977-2.194-1.219c-0.243-0.104-0.439-0.187-0.596-0.254
				c-0.133-0.059-0.2-0.092-0.198-0.099c0,0,1.191,0.25,3.081,1.429c0.932,0.6,2.025,1.447,3.084,2.659
				c1.054,1.208,2.08,2.785,2.75,4.745l0.035,0.102l-0.084,0.071c-8.426,7.074-21.641,18.636-36.279,31.885
				c-7.506,6.792-14.543,13.246-20.605,18.867l-0.039,0.036l-0.049,0.015c-9.43,2.977-17.353,5.478-22.956,7.246
				c-2.764,0.855-4.954,1.533-6.489,2.008c-0.728,0.217-1.299,0.388-1.72,0.513C277.523,397.795,277.319,397.848,277.316,397.836z"
				/>
		</g>
		<g>
			<path style="fill:#FF9A6C;" d="M210.153,381.413c-0.001-0.009,0.089-0.028,0.264-0.056c0.205-0.03,0.462-0.066,0.779-0.112
				c0.726-0.094,1.729-0.224,3.001-0.389c2.645-0.358,6.402-0.865,11.028-1.491c4.656-0.628,10.204-1.388,16.4-1.942
				c6.189-0.548,13.057-0.85,20.223-0.348c3.578,0.198,7.072,0.368,10.437,0.243c3.361-0.123,6.6-0.549,9.547-1.456
				c2.943-0.9,5.605-2.234,7.722-3.962c2.11-1.727,3.652-3.861,4.379-6.054c0.715-2.209,0.684-4.375,0.311-6.173
				c-0.402-1.803-1.157-3.242-1.927-4.284c-1.568-2.108-3.018-2.679-2.94-2.764c0.005-0.008,0.085,0.035,0.238,0.125
				c0.177,0.109,0.399,0.246,0.673,0.415c0.283,0.2,0.615,0.476,1.007,0.801c0.357,0.363,0.791,0.764,1.184,1.301
				c0.811,1.043,1.611,2.501,2.05,4.343c0.41,1.837,0.472,4.062-0.244,6.35c-0.731,2.282-2.303,4.49-4.454,6.275
				c-2.158,1.786-4.866,3.16-7.855,4.087c-2.994,0.936-6.278,1.377-9.668,1.508c-3.395,0.134-6.905-0.035-10.485-0.233
				c-7.148-0.5-13.971-0.215-20.153,0.306c-6.183,0.526-11.732,1.248-16.393,1.829c-4.661,0.591-8.437,1.057-11.052,1.327
				c-1.306,0.145-2.324,0.23-3.013,0.292c-0.32,0.025-0.578,0.044-0.785,0.06C210.245,381.42,210.154,381.422,210.153,381.413z"/>
		</g>
		
			<rect x="109.536" y="403.719" transform="matrix(0.8153 0.579 -0.579 0.8153 269.7462 -9.1139)" style="fill:#EBEBEB;" width="79.251" height="29.229"/>
		<polygon style="fill:#FF725E;" points="172.309,465.288 97.337,413.303 113.441,389.512 188.094,442.522 		"/>
	</g>
</g>
</svg>
