<?xml version="1.0" encoding="utf-8"?>
<!-- Generator: Adobe Illustrator 27.5.0, SVG Export Plug-In . SVG Version: 6.00 Build 0)  -->
<svg version="1.1" xmlns="http://www.w3.org/2000/svg" xmlns:xlink="http://www.w3.org/1999/xlink" x="0px" y="0px"
	 viewBox="0 0 750 500" style="enable-background:new 0 0 750 500;" xml:space="preserve">
<g id="Background_Complete">
	<g>
		<g>
			<g>
				<g>
					<g>
						<rect x="331.064" y="118.866" style="fill:#F5F5F5;" width="44.027" height="183.902"/>
					</g>
				</g>
			</g>
			<g>
				<g>
					<g>
						<rect x="353.078" y="118.866" style="fill:#EBEBEB;" width="22.013" height="183.447"/>
					</g>
				</g>
			</g>
			<g>
				<g>
					<g>
						<rect x="336.092" y="105.168" style="fill:#F5F5F5;" width="15.547" height="13.698"/>
					</g>
				</g>
			</g>
			<g>
				<g>
					<g>
						<rect x="347.933" y="105.168" style="fill:#EBEBEB;" width="3.705" height="13.698"/>
					</g>
				</g>
			</g>
			<g>
				<g>
					<g>
						<polyline style="fill:#E0E0E0;" points="327.395,118.866 327.395,118.067 376.379,118.067 376.379,118.866 						"/>
					</g>
				</g>
			</g>
			<g>
				<g>
					<g>
						<rect x="339.755" y="124.84" style="fill:#FAFAFA;" width="3.726" height="7.858"/>
					</g>
				</g>
			</g>
			<g>
				<g>
					<g>
						<g>
							<path style="fill:#E0E0E0;" d="M353.078,135.782c0,0.083-4.928,0.15-11.006,0.15c-6.08,0-11.007-0.067-11.007-0.15
								c0-0.083,4.927-0.15,11.007-0.15C348.15,135.632,353.078,135.699,353.078,135.782z"/>
						</g>
					</g>
				</g>
			</g>
			<g>
				<g>
					<g>
						<g>
							<rect x="361.96" y="124.84" style="fill:#E0E0E0;" width="3.727" height="7.858"/>
						</g>
					</g>
				</g>
				<g>
					<g>
						<g>
							<g>
								<path style="fill:#E0E0E0;" d="M375.283,135.782c0,0.083-4.928,0.15-11.006,0.15c-6.08,0-11.007-0.067-11.007-0.15
									c0-0.083,4.927-0.15,11.007-0.15C370.354,135.632,375.283,135.699,375.283,135.782z"/>
							</g>
						</g>
					</g>
				</g>
			</g>
			<g>
				<g>
					<g>
						<g>
							<rect x="361.96" y="140.441" style="fill:#E0E0E0;" width="3.727" height="7.858"/>
						</g>
					</g>
				</g>
				<g>
					<g>
						<g>
							<g>
								<path style="fill:#E0E0E0;" d="M375.283,151.383c0,0.083-4.928,0.15-11.006,0.15c-6.08,0-11.007-0.067-11.007-0.15
									c0-0.083,4.927-0.15,11.007-0.15C370.354,151.233,375.283,151.301,375.283,151.383z"/>
							</g>
						</g>
					</g>
				</g>
			</g>
			<g>
				<g>
					<g>
						<g>
							<rect x="361.96" y="156.513" style="fill:#E0E0E0;" width="3.727" height="7.858"/>
						</g>
					</g>
				</g>
				<g>
					<g>
						<g>
							<g>
								<path style="fill:#E0E0E0;" d="M375.283,167.455c0,0.083-4.928,0.15-11.006,0.15c-6.08,0-11.007-0.067-11.007-0.15
									c0-0.083,4.927-0.15,11.007-0.15C370.354,167.305,375.283,167.372,375.283,167.455z"/>
							</g>
						</g>
					</g>
				</g>
			</g>
			<g>
				<g>
					<g>
						<g>
							<rect x="361.96" y="172.585" style="fill:#E0E0E0;" width="3.727" height="7.858"/>
						</g>
					</g>
				</g>
				<g>
					<g>
						<g>
							<g>
								<path style="fill:#E0E0E0;" d="M375.283,183.527c0,0.083-4.928,0.15-11.006,0.15c-6.08,0-11.007-0.067-11.007-0.15
									c0-0.083,4.927-0.15,11.007-0.15C370.354,183.377,375.283,183.445,375.283,183.527z"/>
							</g>
						</g>
					</g>
				</g>
			</g>
			<g>
				<g>
					<g>
						<g>
							<rect x="361.96" y="188.197" style="fill:#E0E0E0;" width="3.727" height="7.858"/>
						</g>
					</g>
				</g>
				<g>
					<g>
						<g>
							<g>
								<path style="fill:#E0E0E0;" d="M375.283,199.139c0,0.083-4.928,0.15-11.006,0.15c-6.08,0-11.007-0.067-11.007-0.15
									c0-0.083,4.927-0.15,11.007-0.15C370.354,198.99,375.283,199.057,375.283,199.139z"/>
							</g>
						</g>
					</g>
				</g>
			</g>
			<g>
				<g>
					<g>
						<g>
							<rect x="361.96" y="203.873" style="fill:#E0E0E0;" width="3.727" height="7.858"/>
						</g>
					</g>
				</g>
				<g>
					<g>
						<g>
							<rect x="361.96" y="219.753" style="fill:#E0E0E0;" width="3.727" height="7.858"/>
						</g>
					</g>
				</g>
				<g>
					<g>
						<g>
							<g>
								<path style="fill:#E0E0E0;" d="M375.283,214.815c0,0.083-4.928,0.15-11.006,0.15c-6.08,0-11.007-0.067-11.007-0.15
									c0-0.083,4.927-0.15,11.007-0.15C370.354,214.665,375.283,214.732,375.283,214.815z"/>
							</g>
						</g>
					</g>
				</g>
			</g>
			<g>
				<g>
					<g>
						<rect x="339.755" y="140.679" style="fill:#FAFAFA;" width="3.726" height="7.858"/>
					</g>
				</g>
			</g>
			<g>
				<g>
					<g>
						<g>
							<path style="fill:#E0E0E0;" d="M353.078,151.621c0,0.083-4.928,0.15-11.006,0.15c-6.08,0-11.007-0.067-11.007-0.15
								c0-0.083,4.927-0.15,11.007-0.15C348.15,151.471,353.078,151.539,353.078,151.621z"/>
						</g>
					</g>
				</g>
			</g>
			<g>
				<g>
					<g>
						<rect x="339.755" y="156.519" style="fill:#FAFAFA;" width="3.726" height="7.858"/>
					</g>
				</g>
			</g>
			<g>
				<g>
					<g>
						<g>
							<path style="fill:#E0E0E0;" d="M353.078,167.461c0,0.083-4.928,0.15-11.006,0.15c-6.08,0-11.007-0.067-11.007-0.15
								c0-0.083,4.927-0.15,11.007-0.15C348.15,167.311,353.078,167.378,353.078,167.461z"/>
						</g>
					</g>
				</g>
			</g>
			<g>
				<g>
					<g>
						<rect x="339.755" y="172.358" style="fill:#FAFAFA;" width="3.726" height="7.858"/>
					</g>
				</g>
			</g>
			<g>
				<g>
					<g>
						<g>
							<path style="fill:#E0E0E0;" d="M353.078,183.3c0,0.083-4.928,0.15-11.006,0.15c-6.08,0-11.007-0.067-11.007-0.15
								c0-0.083,4.927-0.15,11.007-0.15C348.15,183.15,353.078,183.217,353.078,183.3z"/>
						</g>
					</g>
				</g>
			</g>
			<g>
				<g>
					<g>
						<rect x="339.755" y="188.197" style="fill:#FAFAFA;" width="3.726" height="7.858"/>
					</g>
				</g>
			</g>
			<g>
				<g>
					<g>
						<g>
							<path style="fill:#E0E0E0;" d="M353.078,199.139c0,0.083-4.928,0.15-11.006,0.15c-6.08,0-11.007-0.067-11.007-0.15
								c0-0.083,4.927-0.15,11.007-0.15C348.15,198.99,353.078,199.057,353.078,199.139z"/>
						</g>
					</g>
				</g>
			</g>
			<g>
				<g>
					<g>
						<rect x="339.755" y="204.037" style="fill:#FAFAFA;" width="3.726" height="7.858"/>
					</g>
				</g>
			</g>
			<g>
				<g>
					<g>
						<g>
							<path style="fill:#E0E0E0;" d="M353.078,214.979c0,0.083-4.928,0.15-11.006,0.15c-6.08,0-11.007-0.067-11.007-0.15
								c0-0.083,4.927-0.15,11.007-0.15C348.15,214.829,353.078,214.896,353.078,214.979z"/>
						</g>
					</g>
				</g>
			</g>
			<g>
				<g>
					<g>
						<g>
							<rect x="339.755" y="219.876" style="fill:#FAFAFA;" width="3.726" height="7.858"/>
						</g>
					</g>
				</g>
			</g>
		</g>
		<g>
			<g>
				<g>
					<g>
						<rect x="256.277" y="162.863" style="fill:#F5F5F5;" width="44.027" height="139.53"/>
					</g>
				</g>
			</g>
			<g>
				<g>
					<g>
						<rect x="278.291" y="162.863" style="fill:#EBEBEB;" width="22.013" height="139.146"/>
					</g>
				</g>
			</g>
			<g>
				<g>
					<g>
						<rect x="261.305" y="149.165" style="fill:#F5F5F5;" width="15.547" height="13.698"/>
					</g>
				</g>
			</g>
			<g>
				<g>
					<g>
						<rect x="273.146" y="149.165" style="fill:#EBEBEB;" width="3.705" height="13.698"/>
					</g>
				</g>
			</g>
			<g>
				<g>
					<g>
						<polyline style="fill:#E0E0E0;" points="252.608,162.863 252.608,162.064 301.592,162.064 301.592,162.863 						"/>
					</g>
				</g>
			</g>
			<g>
				<g>
					<g>
						<rect x="264.968" y="168.837" style="fill:#FAFAFA;" width="3.727" height="7.858"/>
					</g>
				</g>
			</g>
			<g>
				<g>
					<g>
						<g>
							<path style="fill:#E0E0E0;" d="M278.291,179.779c0,0.083-4.928,0.15-11.006,0.15c-6.08,0-11.007-0.067-11.007-0.15
								c0-0.083,4.927-0.15,11.007-0.15C273.362,179.629,278.291,179.697,278.291,179.779z"/>
						</g>
					</g>
				</g>
			</g>
			<g>
				<g>
					<g>
						<g>
							<rect x="287.173" y="168.837" style="fill:#E0E0E0;" width="3.726" height="7.858"/>
						</g>
					</g>
				</g>
				<g>
					<g>
						<g>
							<g>
								<path style="fill:#E0E0E0;" d="M300.495,179.779c0,0.083-4.928,0.15-11.006,0.15c-6.08,0-11.007-0.067-11.007-0.15
									c0-0.083,4.927-0.15,11.007-0.15C295.567,179.629,300.495,179.697,300.495,179.779z"/>
							</g>
						</g>
					</g>
				</g>
			</g>
			<g>
				<g>
					<g>
						<g>
							<rect x="287.173" y="184.439" style="fill:#E0E0E0;" width="3.726" height="7.858"/>
						</g>
					</g>
				</g>
				<g>
					<g>
						<g>
							<g>
								<path style="fill:#E0E0E0;" d="M300.495,195.381c0,0.083-4.928,0.15-11.006,0.15c-6.08,0-11.007-0.067-11.007-0.15
									c0-0.083,4.927-0.15,11.007-0.15C295.567,195.231,300.495,195.298,300.495,195.381z"/>
							</g>
						</g>
					</g>
				</g>
			</g>
			<g>
				<g>
					<g>
						<g>
							<rect x="287.173" y="200.51" style="fill:#E0E0E0;" width="3.726" height="7.858"/>
						</g>
					</g>
				</g>
				<g>
					<g>
						<g>
							<g>
								<path style="fill:#E0E0E0;" d="M300.495,211.453c0,0.083-4.928,0.15-11.006,0.15c-6.08,0-11.007-0.067-11.007-0.15
									s4.927-0.15,11.007-0.15C295.567,211.303,300.495,211.37,300.495,211.453z"/>
							</g>
						</g>
					</g>
				</g>
			</g>
			<g>
				<g>
					<g>
						<g>
							<rect x="287.173" y="216.583" style="fill:#E0E0E0;" width="3.726" height="7.858"/>
						</g>
					</g>
				</g>
				<g>
					<g>
						<g>
							<g>
								<path style="fill:#E0E0E0;" d="M300.495,227.524c0,0.083-4.928,0.15-11.006,0.15c-6.08,0-11.007-0.067-11.007-0.15
									c0-0.083,4.927-0.15,11.007-0.15C295.567,227.374,300.495,227.442,300.495,227.524z"/>
							</g>
						</g>
					</g>
				</g>
			</g>
			<g>
				<g>
					<g>
						<g>
							<rect x="287.173" y="232.195" style="fill:#E0E0E0;" width="3.726" height="7.858"/>
						</g>
					</g>
				</g>
				<g>
					<g>
						<g>
							<g>
								<path style="fill:#E0E0E0;" d="M300.495,243.137c0,0.083-4.928,0.15-11.006,0.15c-6.08,0-11.007-0.067-11.007-0.15
									c0-0.083,4.927-0.15,11.007-0.15C295.567,242.987,300.495,243.054,300.495,243.137z"/>
							</g>
						</g>
					</g>
				</g>
			</g>
			<g>
				<g>
					<g>
						<g>
							<rect x="287.173" y="247.87" style="fill:#E0E0E0;" width="3.726" height="7.858"/>
						</g>
					</g>
				</g>
				<g>
					<g>
						<g>
							<rect x="287.173" y="263.751" style="fill:#E0E0E0;" width="3.726" height="7.858"/>
						</g>
					</g>
				</g>
				<g>
					<g>
						<g>
							<g>
								<path style="fill:#E0E0E0;" d="M300.495,258.812c0,0.083-4.928,0.15-11.006,0.15c-6.08,0-11.007-0.067-11.007-0.15
									c0-0.083,4.927-0.15,11.007-0.15C295.567,258.662,300.495,258.729,300.495,258.812z"/>
							</g>
						</g>
					</g>
				</g>
			</g>
			<g>
				<g>
					<g>
						<rect x="264.968" y="184.677" style="fill:#FAFAFA;" width="3.727" height="7.858"/>
					</g>
				</g>
			</g>
			<g>
				<g>
					<g>
						<g>
							<path style="fill:#E0E0E0;" d="M278.291,195.619c0,0.083-4.928,0.15-11.006,0.15c-6.08,0-11.007-0.067-11.007-0.15
								c0-0.083,4.927-0.15,11.007-0.15C273.362,195.469,278.291,195.536,278.291,195.619z"/>
						</g>
					</g>
				</g>
			</g>
			<g>
				<g>
					<g>
						<rect x="264.968" y="200.516" style="fill:#FAFAFA;" width="3.727" height="7.858"/>
					</g>
				</g>
			</g>
			<g>
				<g>
					<g>
						<g>
							<path style="fill:#E0E0E0;" d="M278.291,211.458c0,0.083-4.928,0.15-11.006,0.15c-6.08,0-11.007-0.067-11.007-0.15
								c0-0.083,4.927-0.15,11.007-0.15C273.362,211.308,278.291,211.375,278.291,211.458z"/>
						</g>
					</g>
				</g>
			</g>
			<g>
				<g>
					<g>
						<rect x="264.968" y="216.355" style="fill:#FAFAFA;" width="3.727" height="7.858"/>
					</g>
				</g>
			</g>
			<g>
				<g>
					<g>
						<g>
							<path style="fill:#E0E0E0;" d="M278.291,227.297c0,0.083-4.928,0.15-11.006,0.15c-6.08,0-11.007-0.067-11.007-0.15
								c0-0.083,4.927-0.15,11.007-0.15C273.362,227.147,278.291,227.215,278.291,227.297z"/>
						</g>
					</g>
				</g>
			</g>
			<g>
				<g>
					<g>
						<rect x="264.968" y="232.195" style="fill:#FAFAFA;" width="3.727" height="7.858"/>
					</g>
				</g>
			</g>
			<g>
				<g>
					<g>
						<g>
							<path style="fill:#E0E0E0;" d="M278.291,243.137c0,0.083-4.928,0.15-11.006,0.15c-6.08,0-11.007-0.067-11.007-0.15
								c0-0.083,4.927-0.15,11.007-0.15C273.362,242.987,278.291,243.054,278.291,243.137z"/>
						</g>
					</g>
				</g>
			</g>
			<g>
				<g>
					<g>
						<rect x="264.968" y="248.034" style="fill:#FAFAFA;" width="3.727" height="7.858"/>
					</g>
				</g>
			</g>
			<g>
				<g>
					<g>
						<g>
							<path style="fill:#E0E0E0;" d="M278.291,258.976c0,0.083-4.928,0.15-11.006,0.15c-6.08,0-11.007-0.067-11.007-0.15
								c0-0.083,4.927-0.15,11.007-0.15C273.362,258.826,278.291,258.893,278.291,258.976z"/>
						</g>
					</g>
				</g>
			</g>
			<g>
				<g>
					<g>
						<g>
							<rect x="264.968" y="263.874" style="fill:#FAFAFA;" width="3.727" height="7.858"/>
						</g>
					</g>
				</g>
			</g>
		</g>
		<g>
			<g>
				<g>
					<g>
						<rect x="575.248" y="185.739" style="fill:#F5F5F5;" width="42.809" height="135.672"/>
					</g>
				</g>
			</g>
			<g>
				<g>
					<g>
						<rect x="596.652" y="185.739" style="fill:#EBEBEB;" width="21.405" height="135.298"/>
					</g>
				</g>
			</g>
			<g>
				<g>
					<g>
						<rect x="580.136" y="172.42" style="fill:#F5F5F5;" width="15.117" height="13.319"/>
					</g>
				</g>
			</g>
			<g>
				<g>
					<g>
						<rect x="591.65" y="172.42" style="fill:#EBEBEB;" width="3.603" height="13.319"/>
					</g>
				</g>
			</g>
			<g>
				<g>
					<g>
						<polyline style="fill:#E0E0E0;" points="571.68,185.739 571.68,184.962 619.31,184.962 619.31,185.739 						"/>
					</g>
				</g>
			</g>
			<g>
				<g>
					<g>
						<rect x="583.698" y="191.549" style="fill:#FAFAFA;" width="3.623" height="7.641"/>
					</g>
				</g>
			</g>
			<g>
				<g>
					<g>
						<g>
							<path style="fill:#E0E0E0;" d="M596.652,202.188c0,0.081-4.792,0.146-10.702,0.146c-5.912,0-10.703-0.065-10.703-0.146
								s4.791-0.146,10.703-0.146C591.86,202.042,596.652,202.107,596.652,202.188z"/>
						</g>
					</g>
				</g>
			</g>
			<g>
				<g>
					<g>
						<g>
							<rect x="605.289" y="191.549" style="fill:#E0E0E0;" width="3.623" height="7.641"/>
						</g>
					</g>
				</g>
				<g>
					<g>
						<g>
							<g>
								<path style="fill:#E0E0E0;" d="M618.243,202.188c0,0.081-4.792,0.146-10.702,0.146c-5.912,0-10.703-0.065-10.703-0.146
									s4.791-0.146,10.703-0.146C613.451,202.042,618.243,202.107,618.243,202.188z"/>
							</g>
						</g>
					</g>
				</g>
			</g>
			<g>
				<g>
					<g>
						<g>
							<rect x="605.289" y="206.718" style="fill:#E0E0E0;" width="3.623" height="7.641"/>
						</g>
					</g>
				</g>
				<g>
					<g>
						<g>
							<g>
								<path style="fill:#E0E0E0;" d="M618.243,217.358c0,0.081-4.792,0.146-10.702,0.146c-5.912,0-10.703-0.065-10.703-0.146
									c0-0.08,4.791-0.146,10.703-0.146C613.451,217.212,618.243,217.277,618.243,217.358z"/>
							</g>
						</g>
					</g>
				</g>
			</g>
			<g>
				<g>
					<g>
						<g>
							<rect x="605.289" y="222.346" style="fill:#E0E0E0;" width="3.623" height="7.641"/>
						</g>
					</g>
				</g>
				<g>
					<g>
						<g>
							<g>
								<path style="fill:#E0E0E0;" d="M618.243,232.985c0,0.08-4.792,0.146-10.702,0.146c-5.912,0-10.703-0.065-10.703-0.146
									c0-0.081,4.791-0.146,10.703-0.146C613.451,232.839,618.243,232.904,618.243,232.985z"/>
							</g>
						</g>
					</g>
				</g>
			</g>
			<g>
				<g>
					<g>
						<g>
							<rect x="605.289" y="237.973" style="fill:#E0E0E0;" width="3.623" height="7.641"/>
						</g>
					</g>
				</g>
				<g>
					<g>
						<g>
							<g>
								<path style="fill:#E0E0E0;" d="M618.243,248.613c0,0.081-4.792,0.146-10.702,0.146c-5.912,0-10.703-0.065-10.703-0.146
									c0-0.08,4.791-0.146,10.703-0.146C613.451,248.467,618.243,248.532,618.243,248.613z"/>
							</g>
						</g>
					</g>
				</g>
			</g>
			<g>
				<g>
					<g>
						<g>
							<rect x="605.289" y="253.154" style="fill:#E0E0E0;" width="3.623" height="7.641"/>
						</g>
					</g>
				</g>
				<g>
					<g>
						<g>
							<g>
								<path style="fill:#E0E0E0;" d="M618.243,263.793c0,0.081-4.792,0.146-10.702,0.146c-5.912,0-10.703-0.065-10.703-0.146
									c0-0.08,4.791-0.146,10.703-0.146C613.451,263.647,618.243,263.713,618.243,263.793z"/>
							</g>
						</g>
					</g>
				</g>
			</g>
			<g>
				<g>
					<g>
						<g>
							<rect x="605.289" y="268.396" style="fill:#E0E0E0;" width="3.623" height="7.641"/>
						</g>
					</g>
				</g>
				<g>
					<g>
						<g>
							<rect x="605.289" y="283.837" style="fill:#E0E0E0;" width="3.623" height="7.641"/>
						</g>
					</g>
				</g>
				<g>
					<g>
						<g>
							<g>
								<path style="fill:#E0E0E0;" d="M618.243,279.035c0,0.081-4.792,0.146-10.702,0.146c-5.912,0-10.703-0.065-10.703-0.146
									s4.791-0.146,10.703-0.146C613.451,278.889,618.243,278.954,618.243,279.035z"/>
							</g>
						</g>
					</g>
				</g>
			</g>
			<g>
				<g>
					<g>
						<rect x="583.698" y="206.95" style="fill:#FAFAFA;" width="3.623" height="7.641"/>
					</g>
				</g>
			</g>
			<g>
				<g>
					<g>
						<g>
							<path style="fill:#E0E0E0;" d="M596.652,217.589c0,0.081-4.792,0.146-10.702,0.146c-5.912,0-10.703-0.065-10.703-0.146
								c0-0.08,4.791-0.146,10.703-0.146C591.86,217.443,596.652,217.509,596.652,217.589z"/>
						</g>
					</g>
				</g>
			</g>
			<g>
				<g>
					<g>
						<rect x="583.698" y="222.351" style="fill:#FAFAFA;" width="3.623" height="7.641"/>
					</g>
				</g>
			</g>
			<g>
				<g>
					<g>
						<g>
							<path style="fill:#E0E0E0;" d="M596.652,232.99c0,0.081-4.792,0.146-10.702,0.146c-5.912,0-10.703-0.065-10.703-0.146
								c0-0.08,4.791-0.146,10.703-0.146C591.86,232.845,596.652,232.91,596.652,232.99z"/>
						</g>
					</g>
				</g>
			</g>
			<g>
				<g>
					<g>
						<rect x="583.698" y="237.753" style="fill:#FAFAFA;" width="3.623" height="7.641"/>
					</g>
				</g>
			</g>
			<g>
				<g>
					<g>
						<g>
							<path style="fill:#E0E0E0;" d="M596.652,248.392c0,0.08-4.792,0.146-10.702,0.146c-5.912,0-10.703-0.065-10.703-0.146
								c0-0.081,4.791-0.146,10.703-0.146C591.86,248.246,596.652,248.311,596.652,248.392z"/>
						</g>
					</g>
				</g>
			</g>
			<g>
				<g>
					<g>
						<rect x="583.698" y="253.154" style="fill:#FAFAFA;" width="3.623" height="7.641"/>
					</g>
				</g>
			</g>
			<g>
				<g>
					<g>
						<g>
							<path style="fill:#E0E0E0;" d="M596.652,263.793c0,0.081-4.792,0.146-10.702,0.146c-5.912,0-10.703-0.065-10.703-0.146
								c0-0.08,4.791-0.146,10.703-0.146C591.86,263.647,596.652,263.713,596.652,263.793z"/>
						</g>
					</g>
				</g>
			</g>
			<g>
				<g>
					<g>
						<rect x="583.698" y="268.555" style="fill:#FAFAFA;" width="3.623" height="7.641"/>
					</g>
				</g>
			</g>
			<g>
				<g>
					<g>
						<g>
							<path style="fill:#E0E0E0;" d="M596.652,279.194c0,0.081-4.792,0.146-10.702,0.146c-5.912,0-10.703-0.065-10.703-0.146
								c0-0.08,4.791-0.146,10.703-0.146C591.86,279.049,596.652,279.114,596.652,279.194z"/>
						</g>
					</g>
				</g>
			</g>
			<g>
				<g>
					<g>
						<g>
							<rect x="583.698" y="283.957" style="fill:#FAFAFA;" width="3.623" height="7.641"/>
						</g>
					</g>
				</g>
			</g>
		</g>
		<g>
			<g>
				<g>
					<g>
						<rect x="615.254" y="250.82" style="fill:#F5F5F5;" width="52.249" height="165.587"/>
					</g>
				</g>
			</g>
			<g>
				<g>
					<g>
						<rect x="641.378" y="250.82" style="fill:#EBEBEB;" width="26.124" height="165.132"/>
					</g>
				</g>
			</g>
			<g>
				<g>
					<g>
						<rect x="621.22" y="234.563" style="fill:#F5F5F5;" width="18.45" height="16.256"/>
					</g>
				</g>
			</g>
			<g>
				<g>
					<g>
						<rect x="635.273" y="234.563" style="fill:#EBEBEB;" width="4.397" height="16.256"/>
					</g>
				</g>
			</g>
			<g>
				<g>
					<g>
						<polyline style="fill:#E0E0E0;" points="610.9,250.82 610.9,249.871 669.032,249.871 669.032,250.82 						"/>
					</g>
				</g>
			</g>
			<g>
				<g>
					<g>
						<rect x="625.568" y="257.91" style="fill:#FAFAFA;" width="4.422" height="9.325"/>
					</g>
				</g>
			</g>
			<g>
				<g>
					<g>
						<g>
							<path style="fill:#E0E0E0;" d="M641.378,270.895c0,0.098-5.849,0.178-13.062,0.178c-7.215,0-13.063-0.08-13.063-0.178
								c0-0.098,5.847-0.178,13.063-0.178C635.53,270.717,641.378,270.797,641.378,270.895z"/>
						</g>
					</g>
				</g>
			</g>
			<g>
				<g>
					<g>
						<g>
							<rect x="651.919" y="257.91" style="fill:#E0E0E0;" width="4.423" height="9.325"/>
						</g>
					</g>
				</g>
				<g>
					<g>
						<g>
							<g>
								<path style="fill:#E0E0E0;" d="M667.73,270.895c0,0.098-5.848,0.178-13.061,0.178c-7.215,0-13.063-0.08-13.063-0.178
									c0-0.098,5.847-0.178,13.063-0.178C661.881,270.717,667.73,270.797,667.73,270.895z"/>
							</g>
						</g>
					</g>
				</g>
			</g>
			<g>
				<g>
					<g>
						<g>
							<rect x="651.919" y="276.424" style="fill:#E0E0E0;" width="4.423" height="9.325"/>
						</g>
					</g>
				</g>
				<g>
					<g>
						<g>
							<g>
								<path style="fill:#E0E0E0;" d="M667.73,289.41c0,0.098-5.848,0.178-13.061,0.178c-7.215,0-13.063-0.08-13.063-0.178
									c0-0.098,5.847-0.178,13.063-0.178C661.881,289.232,667.73,289.311,667.73,289.41z"/>
							</g>
						</g>
					</g>
				</g>
			</g>
			<g>
				<g>
					<g>
						<g>
							<rect x="651.919" y="295.498" style="fill:#E0E0E0;" width="4.423" height="9.325"/>
						</g>
					</g>
				</g>
				<g>
					<g>
						<g>
							<g>
								<path style="fill:#E0E0E0;" d="M667.73,308.483c0,0.098-5.848,0.178-13.061,0.178c-7.215,0-13.063-0.08-13.063-0.178
									c0-0.098,5.847-0.178,13.063-0.178C661.881,308.305,667.73,308.385,667.73,308.483z"/>
							</g>
						</g>
					</g>
				</g>
			</g>
			<g>
				<g>
					<g>
						<g>
							<rect x="651.919" y="314.571" style="fill:#E0E0E0;" width="4.423" height="9.326"/>
						</g>
					</g>
				</g>
				<g>
					<g>
						<g>
							<g>
								<path style="fill:#E0E0E0;" d="M667.73,327.556c0,0.098-5.848,0.178-13.061,0.178c-7.215,0-13.063-0.08-13.063-0.178
									c0-0.098,5.847-0.178,13.063-0.178C661.881,327.378,667.73,327.458,667.73,327.556z"/>
							</g>
						</g>
					</g>
				</g>
			</g>
			<g>
				<g>
					<g>
						<g>
							<rect x="651.919" y="333.099" style="fill:#E0E0E0;" width="4.423" height="9.325"/>
						</g>
					</g>
				</g>
				<g>
					<g>
						<g>
							<g>
								<path style="fill:#E0E0E0;" d="M667.73,346.084c0,0.098-5.848,0.178-13.061,0.178c-7.215,0-13.063-0.08-13.063-0.178
									s5.847-0.178,13.063-0.178C661.881,345.906,667.73,345.986,667.73,346.084z"/>
							</g>
						</g>
					</g>
				</g>
			</g>
			<g>
				<g>
					<g>
						<g>
							<rect x="651.919" y="351.702" style="fill:#E0E0E0;" width="4.423" height="9.325"/>
						</g>
					</g>
				</g>
				<g>
					<g>
						<g>
							<rect x="651.919" y="370.548" style="fill:#E0E0E0;" width="4.423" height="9.325"/>
						</g>
					</g>
				</g>
				<g>
					<g>
						<g>
							<g>
								<path style="fill:#E0E0E0;" d="M667.73,364.687c0,0.099-5.848,0.178-13.061,0.178c-7.215,0-13.063-0.08-13.063-0.178
									c0-0.098,5.847-0.178,13.063-0.178C661.881,364.509,667.73,364.589,667.73,364.687z"/>
							</g>
						</g>
					</g>
				</g>
			</g>
			<g>
				<g>
					<g>
						<rect x="625.568" y="276.707" style="fill:#FAFAFA;" width="4.422" height="9.325"/>
					</g>
				</g>
			</g>
			<g>
				<g>
					<g>
						<g>
							<path style="fill:#E0E0E0;" d="M641.378,289.692c0,0.098-5.849,0.178-13.062,0.178c-7.215,0-13.063-0.08-13.063-0.178
								c0-0.098,5.847-0.178,13.063-0.178C635.53,289.514,641.378,289.594,641.378,289.692z"/>
						</g>
					</g>
				</g>
			</g>
			<g>
				<g>
					<g>
						<rect x="625.568" y="295.504" style="fill:#FAFAFA;" width="4.422" height="9.325"/>
					</g>
				</g>
			</g>
			<g>
				<g>
					<g>
						<g>
							<path style="fill:#E0E0E0;" d="M641.378,308.49c0,0.099-5.849,0.178-13.062,0.178c-7.215,0-13.063-0.08-13.063-0.178
								c0-0.098,5.847-0.178,13.063-0.178C635.53,308.311,641.378,308.391,641.378,308.49z"/>
						</g>
					</g>
				</g>
			</g>
			<g>
				<g>
					<g>
						<rect x="625.568" y="314.301" style="fill:#FAFAFA;" width="4.422" height="9.325"/>
					</g>
				</g>
			</g>
			<g>
				<g>
					<g>
						<g>
							<path style="fill:#E0E0E0;" d="M641.378,327.287c0,0.098-5.849,0.178-13.062,0.178c-7.215,0-13.063-0.08-13.063-0.178
								c0-0.098,5.847-0.178,13.063-0.178C635.53,327.109,641.378,327.189,641.378,327.287z"/>
						</g>
					</g>
				</g>
			</g>
			<g>
				<g>
					<g>
						<rect x="625.568" y="333.099" style="fill:#FAFAFA;" width="4.422" height="9.325"/>
					</g>
				</g>
			</g>
			<g>
				<g>
					<g>
						<g>
							<path style="fill:#E0E0E0;" d="M641.378,346.084c0,0.098-5.849,0.178-13.062,0.178c-7.215,0-13.063-0.08-13.063-0.178
								s5.847-0.178,13.063-0.178C635.53,345.906,641.378,345.986,641.378,346.084z"/>
						</g>
					</g>
				</g>
			</g>
			<g>
				<g>
					<g>
						<rect x="625.568" y="351.896" style="fill:#FAFAFA;" width="4.422" height="9.325"/>
					</g>
				</g>
			</g>
			<g>
				<g>
					<g>
						<g>
							<path style="fill:#E0E0E0;" d="M641.378,364.882c0,0.098-5.849,0.178-13.062,0.178c-7.215,0-13.063-0.08-13.063-0.178
								c0-0.098,5.847-0.178,13.063-0.178C635.53,364.704,641.378,364.783,641.378,364.882z"/>
						</g>
					</g>
				</g>
			</g>
			<g>
				<g>
					<g>
						<g>
							<rect x="625.568" y="370.694" style="fill:#FAFAFA;" width="4.422" height="9.325"/>
						</g>
					</g>
				</g>
			</g>
		</g>
		<g>
			<g>
				<g>
					<g>
						<g>
							<rect x="553.507" y="314.238" style="fill:#EBEBEB;" width="73.856" height="97.414"/>
						</g>
					</g>
				</g>
				<g>
					<g>
						<g>
							<rect x="592.734" y="314.238" style="fill:#E0E0E0;" width="34.63" height="97.414"/>
						</g>
					</g>
				</g>
			</g>
			<g>
				<g>
					<g>
						<g>
							<rect x="568.993" y="327.427" style="fill:#F5F5F5;" width="6.641" height="16.134"/>
						</g>
					</g>
				</g>
				<g>
					<g>
						<g>
							<rect x="568.993" y="390.571" style="fill:#F5F5F5;" width="6.641" height="16.134"/>
						</g>
					</g>
				</g>
				<g>
					<g>
						<g>
							<g>
								<path style="fill:#F5F5F5;" d="M592.734,349.893c0,0.181-8.782,0.328-19.612,0.328c-10.834,0-19.614-0.147-19.614-0.328
									c0-0.181,8.78-0.328,19.614-0.328C583.952,349.565,592.734,349.712,592.734,349.893z"/>
							</g>
						</g>
					</g>
				</g>
			</g>
			<g>
				<g>
					<g>
						<g>
							<rect x="568.993" y="359.239" style="fill:#F5F5F5;" width="6.641" height="16.134"/>
						</g>
					</g>
				</g>
				<g>
					<g>
						<g>
							<g>
								<path style="fill:#F5F5F5;" d="M592.734,381.704c0,0.181-8.782,0.328-19.612,0.328c-10.834,0-19.614-0.147-19.614-0.328
									c0-0.181,8.78-0.328,19.614-0.328C583.952,381.376,592.734,381.523,592.734,381.704z"/>
							</g>
						</g>
					</g>
				</g>
			</g>
			<g>
				<g>
					<g>
						<rect x="600.087" y="327.427" style="fill:#F5F5F5;" width="6.641" height="16.134"/>
					</g>
				</g>
			</g>
			<g>
				<g>
					<g>
						<rect x="614.494" y="327.427" style="fill:#F5F5F5;" width="6.641" height="16.134"/>
					</g>
				</g>
			</g>
			<g>
				<g>
					<g>
						<rect x="600.087" y="358.041" style="fill:#F5F5F5;" width="6.641" height="16.134"/>
					</g>
				</g>
			</g>
			<g>
				<g>
					<g>
						<rect x="614.494" y="358.041" style="fill:#F5F5F5;" width="6.641" height="16.134"/>
					</g>
				</g>
			</g>
			<g>
				<g>
					<g>
						<rect x="600.087" y="388.656" style="fill:#F5F5F5;" width="6.641" height="16.134"/>
					</g>
				</g>
			</g>
			<g>
				<g>
					<g>
						<rect x="614.494" y="388.656" style="fill:#F5F5F5;" width="6.641" height="16.134"/>
					</g>
				</g>
			</g>
			<g>
				<g>
					<g>
						<rect x="547.955" y="310.847" style="fill:#E0E0E0;" width="84.96" height="3.513"/>
					</g>
				</g>
			</g>
			<g>
				<g>
					<g>
						<g>
							<path style="fill:#EBEBEB;" d="M627.879,314.691c0,0.181-16.508,0.328-36.866,0.328c-20.365,0-36.87-0.147-36.87-0.328
								c0-0.181,16.504-0.328,36.87-0.328C611.371,314.363,627.879,314.509,627.879,314.691z"/>
						</g>
					</g>
				</g>
			</g>
		</g>
		<g>
			<g>
				<g>
					<g>
						<g>
							<polygon style="fill:#EBEBEB;" points="364.068,302.584 299.281,302.584 298.999,200.194 363.786,200.194 							"/>
						</g>
					</g>
				</g>
				<g>
					<g>
						<g>
							<rect x="331.392" y="200.194" style="fill:#E0E0E0;" width="32.393" height="102.391"/>
						</g>
					</g>
				</g>
				<g>
					<g>
						<g>
							<rect x="306.397" y="180.036" style="fill:#EBEBEB;" width="22.878" height="20.157"/>
						</g>
					</g>
				</g>
				<g>
					<g>
						<g>
							<rect x="323.822" y="180.036" style="fill:#E0E0E0;" width="5.453" height="20.157"/>
						</g>
					</g>
				</g>
				<g>
					<g>
						<g>
							<rect x="293.6" y="199.018" style="fill:#E0E0E0;" width="72.081" height="1.176"/>
						</g>
					</g>
				</g>
				<g>
					<g>
						<g>
							<rect x="311.788" y="208.985" style="fill:#FFFFFF;" width="5.484" height="11.563"/>
						</g>
					</g>
				</g>
				<g>
					<g>
						<g>
							<g>
								<path style="fill:#E0E0E0;" d="M331.392,225.087c0,0.122-7.252,0.221-16.196,0.221c-8.947,0-16.197-0.099-16.197-0.221
									c0-0.122,7.251-0.221,16.197-0.221C324.14,224.866,331.392,224.965,331.392,225.087z"/>
							</g>
						</g>
					</g>
				</g>
				<g>
					<g>
						<g>
							<g>
								<rect x="344.463" y="208.985" style="fill:#F5F5F5;" width="5.484" height="11.563"/>
							</g>
						</g>
					</g>
					<g>
						<g>
							<g>
								<g>
									<path style="fill:#EBEBEB;" d="M364.068,225.087c0,0.122-7.252,0.221-16.196,0.221c-8.947,0-16.197-0.099-16.197-0.221
										c0-0.122,7.25-0.221,16.197-0.221C356.815,224.866,364.068,224.965,364.068,225.087z"/>
								</g>
							</g>
						</g>
					</g>
				</g>
				<g>
					<g>
						<g>
							<g>
								<rect x="344.463" y="231.943" style="fill:#F5F5F5;" width="5.484" height="11.563"/>
							</g>
						</g>
					</g>
					<g>
						<g>
							<g>
								<g>
									<path style="fill:#EBEBEB;" d="M364.068,248.044c0,0.122-7.252,0.221-16.196,0.221c-8.947,0-16.197-0.099-16.197-0.221
										c0-0.122,7.25-0.221,16.197-0.221C356.815,247.823,364.068,247.922,364.068,248.044z"/>
								</g>
							</g>
						</g>
					</g>
				</g>
				<g>
					<g>
						<g>
							<g>
								<rect x="344.463" y="255.593" style="fill:#F5F5F5;" width="5.484" height="11.563"/>
							</g>
						</g>
					</g>
					<g>
						<g>
							<g>
								<g>
									<path style="fill:#EBEBEB;" d="M364.068,271.694c0,0.122-7.252,0.221-16.196,0.221c-8.947,0-16.197-0.099-16.197-0.221
										s7.25-0.221,16.197-0.221C356.815,271.474,364.068,271.573,364.068,271.694z"/>
								</g>
							</g>
						</g>
					</g>
				</g>
				<g>
					<g>
						<g>
							<g>
								<rect x="344.463" y="279.243" style="fill:#F5F5F5;" width="5.484" height="11.563"/>
							</g>
						</g>
					</g>
					<g>
						<g>
							<g>
								<g>
									<path style="fill:#EBEBEB;" d="M364.068,295.345c0,0.122-7.252,0.221-16.196,0.221c-8.947,0-16.197-0.099-16.197-0.221
										c0-0.122,7.25-0.221,16.197-0.221C356.815,295.124,364.068,295.223,364.068,295.345z"/>
								</g>
							</g>
						</g>
					</g>
				</g>
				<g>
					<g>
						<g>
							<rect x="311.788" y="232.293" style="fill:#FFFFFF;" width="5.484" height="11.563"/>
						</g>
					</g>
				</g>
				<g>
					<g>
						<g>
							<g>
								<path style="fill:#E0E0E0;" d="M331.392,248.394c0,0.122-7.252,0.221-16.196,0.221c-8.947,0-16.197-0.099-16.197-0.221
									c0-0.122,7.251-0.221,16.197-0.221C324.14,248.174,331.392,248.273,331.392,248.394z"/>
							</g>
						</g>
					</g>
				</g>
				<g>
					<g>
						<g>
							<rect x="311.788" y="255.601" style="fill:#FFFFFF;" width="5.484" height="11.563"/>
						</g>
					</g>
				</g>
				<g>
					<g>
						<g>
							<g>
								<path style="fill:#E0E0E0;" d="M331.392,271.703c0,0.122-7.252,0.221-16.196,0.221c-8.947,0-16.197-0.099-16.197-0.221
									c0-0.122,7.251-0.221,16.197-0.221C324.14,271.482,331.392,271.581,331.392,271.703z"/>
							</g>
						</g>
					</g>
				</g>
				<g>
					<g>
						<g>
							<rect x="311.788" y="278.909" style="fill:#FFFFFF;" width="5.484" height="11.563"/>
						</g>
					</g>
				</g>
				<g>
					<g>
						<g>
							<g>
								<path style="fill:#E0E0E0;" d="M331.392,295.01c0,0.122-7.252,0.221-16.196,0.221c-8.947,0-16.197-0.099-16.197-0.221
									c0-0.122,7.251-0.221,16.197-0.221C324.14,294.79,331.392,294.889,331.392,295.01z"/>
							</g>
						</g>
					</g>
				</g>
			</g>
		</g>
		<g>
			<g>
				<g>
					<g>
						<g>
							<polygon style="fill:#EBEBEB;" points="265.903,346.815 201.117,346.815 200.835,244.424 265.621,244.424 							"/>
						</g>
					</g>
				</g>
				<g>
					<g>
						<g>
							<rect x="233.228" y="244.424" style="fill:#E0E0E0;" width="32.393" height="102.391"/>
						</g>
					</g>
				</g>
				<g>
					<g>
						<g>
							<rect x="208.232" y="224.267" style="fill:#EBEBEB;" width="22.878" height="20.157"/>
						</g>
					</g>
				</g>
				<g>
					<g>
						<g>
							<rect x="225.657" y="224.267" style="fill:#E0E0E0;" width="5.453" height="20.157"/>
						</g>
					</g>
				</g>
				<g>
					<g>
						<g>
							<rect x="195.435" y="243.248" style="fill:#E0E0E0;" width="72.081" height="1.176"/>
						</g>
					</g>
				</g>
				<g>
					<g>
						<g>
							<rect x="213.623" y="253.215" style="fill:#FFFFFF;" width="5.484" height="11.563"/>
						</g>
					</g>
				</g>
				<g>
					<g>
						<g>
							<g>
								<path style="fill:#E0E0E0;" d="M233.228,269.317c0,0.122-7.252,0.221-16.196,0.221c-8.947,0-16.197-0.099-16.197-0.221
									c0-0.122,7.251-0.221,16.197-0.221C225.976,269.096,233.228,269.195,233.228,269.317z"/>
							</g>
						</g>
					</g>
				</g>
				<g>
					<g>
						<g>
							<g>
								<rect x="246.298" y="253.215" style="fill:#F5F5F5;" width="5.484" height="11.563"/>
							</g>
						</g>
					</g>
					<g>
						<g>
							<g>
								<g>
									<path style="fill:#EBEBEB;" d="M265.903,269.317c0,0.122-7.252,0.221-16.196,0.221c-8.947,0-16.197-0.099-16.197-0.221
										c0-0.122,7.25-0.221,16.197-0.221C258.651,269.096,265.903,269.195,265.903,269.317z"/>
								</g>
							</g>
						</g>
					</g>
				</g>
				<g>
					<g>
						<g>
							<g>
								<rect x="246.298" y="276.173" style="fill:#F5F5F5;" width="5.484" height="11.563"/>
							</g>
						</g>
					</g>
					<g>
						<g>
							<g>
								<g>
									<path style="fill:#EBEBEB;" d="M265.903,292.274c0,0.122-7.252,0.221-16.196,0.221c-8.947,0-16.197-0.099-16.197-0.221
										c0-0.122,7.25-0.221,16.197-0.221C258.651,292.054,265.903,292.152,265.903,292.274z"/>
								</g>
							</g>
						</g>
					</g>
				</g>
				<g>
					<g>
						<g>
							<g>
								<rect x="246.298" y="299.823" style="fill:#F5F5F5;" width="5.484" height="11.563"/>
							</g>
						</g>
					</g>
					<g>
						<g>
							<g>
								<g>
									<path style="fill:#EBEBEB;" d="M265.903,315.925c0,0.122-7.252,0.221-16.196,0.221c-8.947,0-16.197-0.099-16.197-0.221
										c0-0.122,7.25-0.221,16.197-0.221C258.651,315.704,265.903,315.803,265.903,315.925z"/>
								</g>
							</g>
						</g>
					</g>
				</g>
				<g>
					<g>
						<g>
							<g>
								<rect x="246.298" y="323.474" style="fill:#F5F5F5;" width="5.484" height="11.563"/>
							</g>
						</g>
					</g>
					<g>
						<g>
							<g>
								<g>
									<path style="fill:#EBEBEB;" d="M265.903,339.575c0,0.122-7.252,0.221-16.196,0.221c-8.947,0-16.197-0.099-16.197-0.221
										s7.25-0.221,16.197-0.221C258.651,339.354,265.903,339.453,265.903,339.575z"/>
								</g>
							</g>
						</g>
					</g>
				</g>
				<g>
					<g>
						<g>
							<rect x="213.623" y="276.523" style="fill:#FFFFFF;" width="5.484" height="11.563"/>
						</g>
					</g>
				</g>
				<g>
					<g>
						<g>
							<g>
								<path style="fill:#E0E0E0;" d="M233.228,292.625c0,0.122-7.252,0.221-16.196,0.221c-8.947,0-16.197-0.099-16.197-0.221
									c0-0.122,7.251-0.221,16.197-0.221C225.976,292.404,233.228,292.503,233.228,292.625z"/>
							</g>
						</g>
					</g>
				</g>
				<g>
					<g>
						<g>
							<rect x="213.623" y="299.831" style="fill:#FFFFFF;" width="5.484" height="11.563"/>
						</g>
					</g>
				</g>
				<g>
					<g>
						<g>
							<g>
								<path style="fill:#E0E0E0;" d="M233.228,315.933c0,0.122-7.252,0.221-16.196,0.221c-8.947,0-16.197-0.099-16.197-0.221
									c0-0.122,7.251-0.221,16.197-0.221C225.976,315.712,233.228,315.811,233.228,315.933z"/>
							</g>
						</g>
					</g>
				</g>
				<g>
					<g>
						<g>
							<rect x="213.623" y="323.139" style="fill:#FFFFFF;" width="5.484" height="11.563"/>
						</g>
					</g>
				</g>
				<g>
					<g>
						<g>
							<g>
								<path style="fill:#E0E0E0;" d="M233.228,339.241c0,0.122-7.252,0.221-16.196,0.221c-8.947,0-16.197-0.099-16.197-0.221
									c0-0.122,7.251-0.221,16.197-0.221C225.976,339.02,233.228,339.119,233.228,339.241z"/>
							</g>
						</g>
					</g>
				</g>
			</g>
		</g>
	</g>
	<g>
		<g>
			<path style="fill:#F5F5F5;" d="M381.238,59.097c0.599-4.353-5.544-7.934-10.161-8.306c-2.201-0.178-4.488,0.159-6.574-0.568
				c-4.519-1.575-6.324-7.413-10.733-9.272c-3.296-1.39-7.091-0.153-10.287,1.456c-3.196,1.608-6.354,3.632-9.924,3.861
				c-3.105,0.199-6.478-0.953-9.195,0.564c-2.025,1.13-3.085,3.463-4.951,4.84c-1.826,1.347-4.207,1.632-6.472,1.755
				c-2.265,0.123-4.61,0.146-6.673,1.09s-3.769,3.125-3.341,5.353L381.238,59.097z"/>
		</g>
	</g>
	<g>
		<g>
			<path style="fill:#F5F5F5;" d="M90.708,239.935c0.373-2.707-3.448-4.934-6.319-5.165c-1.369-0.11-2.791,0.099-4.088-0.353
				c-2.81-0.979-3.933-4.61-6.674-5.766c-2.05-0.865-4.41-0.095-6.397,0.905c-1.987,1-3.951,2.259-6.171,2.401
				c-1.931,0.124-4.028-0.593-5.718,0.351c-1.259,0.703-1.919,2.154-3.079,3.01c-1.135,0.837-2.616,1.015-4.025,1.091
				c-1.409,0.077-2.867,0.091-4.15,0.678c-1.283,0.587-2.344,1.944-2.078,3.329L90.708,239.935z"/>
		</g>
	</g>
	<g>
		<g>
			<path style="fill:#EBEBEB;" d="M730.275,191.483c0.599-4.353-5.544-7.934-10.161-8.306c-2.201-0.177-4.488,0.159-6.574-0.568
				c-4.519-1.575-6.324-7.413-10.733-9.272c-3.296-1.39-7.091-0.153-10.287,1.456c-3.196,1.608-6.353,3.632-9.924,3.861
				c-3.105,0.199-6.478-0.953-9.195,0.564c-2.025,1.131-3.085,3.463-4.951,4.84c-1.826,1.346-4.207,1.632-6.472,1.755
				c-2.265,0.123-4.61,0.146-6.673,1.09c-2.063,0.944-3.769,3.126-3.341,5.353L730.275,191.483z"/>
		</g>
	</g>
	<g>
		<g>
			<path style="fill:#EBEBEB;" d="M526.919,99.755c0.521-3.787-4.823-6.902-8.839-7.225c-1.915-0.154-3.904,0.138-5.719-0.494
				c-3.931-1.37-5.501-6.448-9.336-8.066c-2.868-1.209-6.169-0.133-8.949,1.266c-2.78,1.399-5.527,3.16-8.633,3.359
				c-2.701,0.173-5.635-0.829-7.999,0.491c-1.761,0.983-2.684,3.013-4.307,4.21c-1.588,1.171-3.66,1.419-5.63,1.527
				c-1.97,0.107-4.011,0.127-5.805,0.949c-1.794,0.822-3.279,2.719-2.906,4.657L526.919,99.755z"/>
		</g>
	</g>
	<g>
		<g>
			<path style="fill:#EBEBEB;" d="M265.72,111.114c0.613-4.453-5.671-8.115-10.393-8.496c-2.252-0.182-4.591,0.163-6.724-0.581
				c-4.622-1.611-6.468-7.582-10.978-9.484c-3.372-1.422-7.253-0.156-10.522,1.489c-3.269,1.645-6.499,3.715-10.15,3.949
				c-3.176,0.203-6.626-0.975-9.405,0.577c-2.071,1.156-3.156,3.542-5.064,4.95c-1.867,1.377-4.303,1.669-6.62,1.795
				s-4.716,0.149-6.825,1.115c-2.11,0.966-3.855,3.197-3.417,5.476L265.72,111.114z"/>
		</g>
	</g>
	<g>
		<g>
			<path style="fill:#EBEBEB;" d="M120.692,60.799c0.48-3.486-4.44-6.353-8.136-6.651c-1.763-0.142-3.594,0.127-5.264-0.455
				c-3.618-1.261-5.064-5.936-8.594-7.425c-2.64-1.113-5.678-0.122-8.237,1.166c-2.559,1.288-5.088,2.909-7.947,3.092
				c-2.487,0.159-5.187-0.763-7.363,0.452c-1.621,0.905-2.471,2.773-3.965,3.875c-1.462,1.078-3.369,1.307-5.183,1.405
				c-1.814,0.099-3.692,0.117-5.343,0.873c-1.652,0.756-3.018,2.503-2.675,4.287L120.692,60.799z"/>
		</g>
	</g>
	<g>
		<g>
			<path style="fill:#F5F5F5;" d="M647.261,39.918c0.334-2.425-3.088-4.42-5.66-4.627c-1.226-0.099-2.5,0.089-3.662-0.316
				c-2.517-0.877-3.522-4.129-5.978-5.165c-1.836-0.774-3.95-0.085-5.73,0.811c-1.78,0.896-3.539,2.023-5.528,2.151
				c-1.73,0.111-3.608-0.531-5.122,0.314c-1.128,0.63-1.719,1.929-2.758,2.696c-1.017,0.75-2.344,0.909-3.605,0.978
				c-1.262,0.069-2.568,0.081-3.717,0.607c-1.149,0.526-2.099,1.741-1.861,2.982L647.261,39.918z"/>
		</g>
	</g>
</g>
<g id="Background_Simple" style="display:none;">
	<g style="display:inline;">
		<path style="fill:#F5F5F5;" d="M590.278,36.796l-2.224,0.75c-18.749,6.322-32.754,22.206-35.82,41.571
			c-0.394,2.489-0.609,5.008-0.633,7.535c-0.17,18.193,9.578,36.238,24.99,46.263c9.064,5.896,20.219,9.473,26.504,18.218
			c8.18,11.381,5.044,26.894,1.582,40.375c-3.462,13.481-6.559,29.012,1.67,40.359c5.154,7.106,13.885,10.952,22.589,12.42
			c23.044,3.887,46.958-7.423,61.596-25.339c14.638-17.915,20.863-41.473,21.355-64.556c0.688-32.337-9.854-65.595-32.351-89.203
			C657.04,41.58,621.999,29.036,590.278,36.796z"/>
	</g>
	<g style="display:inline;">
		<circle style="fill:#F5F5F5;" cx="306.117" cy="174.056" r="45.875"/>
	</g>
</g>
<g id="Floor">
	<g>
		<g>
			<path style="fill:#263238;" d="M15.724,439.706c239.518,0,479.035,0,718.553,0"/>
		</g>
		<g>
			<g>
				<path style="fill:#263238;" d="M734.276,439.706c0,0.144-160.867,0.26-359.259,0.26c-198.462,0-359.294-0.116-359.294-0.26
					s160.832-0.26,359.294-0.26C573.41,439.445,734.276,439.562,734.276,439.706z"/>
			</g>
		</g>
	</g>
</g>
<g id="Helicopter">
	<g>
		<g>
			<g>
				<path style="fill:#263238;" d="M96.453,193.076c1.647,3.379,5.855,3.077,9.025,2.997c3-0.076,6-0.176,9-0.285
					c5.774-0.208,11.547-0.448,17.319-0.702c1.246-0.055,2.492-0.11,3.737-0.168c0.73-0.034,0.734-1.173,0-1.139
					c-9.126,0.421-18.256,0.808-27.387,1.08c-1.448,0.043-2.896,0.086-4.344,0.112c-2.346,0.042-5.191-0.063-6.365-2.472
					C97.116,191.842,96.133,192.419,96.453,193.076L96.453,193.076z"/>
			</g>
		</g>
		<g>
			<g>
				<path style="fill:#263238;" d="M101.177,195.334c0.58-3.546,2.186-6.855,4.645-9.479c0.501-0.535-0.303-1.342-0.806-0.806
					c-2.585,2.758-4.328,6.248-4.938,9.981C99.962,195.749,101.059,196.057,101.177,195.334L101.177,195.334z"/>
			</g>
		</g>
		<g>
			<g>
				<path style="fill:#263238;" d="M129.803,186.522c0.404,2.498,0.27,5.062-0.364,7.51c-0.184,0.71,0.915,1.013,1.099,0.303
					c0.687-2.657,0.801-5.409,0.364-8.116C130.785,185.497,129.687,185.804,129.803,186.522L129.803,186.522z"/>
			</g>
		</g>
		<g>
			<g>
				<g>
					<path style="fill:#263238;" d="M119.766,187.707c1.688,1.078,2.015,3.281,2.226,5.113c0.263,2.292,0.401,4.573,0.332,6.88
						c-0.022,0.733,1.117,0.733,1.139,0c0.077-2.568-0.087-5.124-0.429-7.67c-0.272-2.028-0.872-4.144-2.694-5.307
						C119.721,186.327,119.149,187.313,119.766,187.707L119.766,187.707z"/>
				</g>
			</g>
			<g>
				<g>
					<path style="fill:#263238;" d="M147.254,186.774c1.302,1.286,1.756,3.218,2.039,4.964c0.353,2.177,0.396,4.399,0.441,6.6
						c0.015,0.732,1.154,0.735,1.139,0c-0.048-2.365-0.113-4.745-0.512-7.081c-0.323-1.891-0.899-3.903-2.303-5.289
						C147.537,185.452,146.731,186.258,147.254,186.774L147.254,186.774z"/>
				</g>
			</g>
			<g>
				<g>
					<path style="fill:#263238;" d="M114.746,198.283c1.409,2.744,4.659,2.954,7.385,2.787c3.738-0.229,7.473-0.51,11.209-0.765
						c7.497-0.512,14.994-1.024,22.491-1.536c0.728-0.05,0.733-1.189,0-1.139c-6.897,0.471-13.794,0.942-20.692,1.413
						c-3.449,0.235-6.897,0.471-10.346,0.707c-2.883,0.197-7.432,1.136-9.063-2.041
						C115.394,197.055,114.411,197.631,114.746,198.283L114.746,198.283z"/>
				</g>
			</g>
		</g>
		<g>
			<g>
				<path style="fill:#263238;" d="M204.788,160.883c-0.052,0.001-0.039-0.858-0.198-2.395c-0.171-1.525-0.466-3.776-1.526-6.309
					c-0.538-1.239-1.288-2.619-2.577-3.516c-0.639-0.436-1.461-0.635-2.242-0.412c-0.782,0.212-1.471,0.777-2.031,1.457
					c-1.111,1.397-1.801,3.214-2.281,5.116c-0.453,1.918-0.68,3.964-0.688,6.059c0.008,2.096,0.235,4.142,0.688,6.06
					c0.48,1.902,1.17,3.719,2.281,5.117c0.56,0.681,1.249,1.246,2.031,1.457c0.781,0.222,1.604,0.024,2.242-0.413
					c1.289-0.897,2.039-2.277,2.577-3.517c1.06-2.534,1.355-4.785,1.526-6.309C204.749,161.741,204.736,160.882,204.788,160.883
					c0.016,0,0.027,0.214,0.033,0.623c0.015,0.409,0.001,1.012-0.047,1.787c-0.116,1.541-0.358,3.817-1.401,6.424
					c-0.537,1.276-1.269,2.712-2.67,3.715c-0.693,0.489-1.658,0.74-2.564,0.488c-0.908-0.239-1.663-0.864-2.264-1.583
					c-1.188-1.477-1.896-3.339-2.395-5.284c-0.47-1.959-0.703-4.04-0.711-6.171c0.008-2.13,0.242-4.21,0.711-6.169
					c0.499-1.944,1.207-3.806,2.395-5.283c0.601-0.719,1.356-1.344,2.264-1.583c0.906-0.252,1.871-0.001,2.564,0.487
					c1.4,1.002,2.133,2.438,2.67,3.714c1.043,2.607,1.285,4.883,1.401,6.424c0.048,0.776,0.062,1.379,0.047,1.788
					C204.815,160.669,204.805,160.883,204.788,160.883z"/>
			</g>
		</g>
		<g>
			<path style="fill:#FF725E;" d="M95.049,177.675c-0.58-4.545,2.156-8.115,6.974-9.256c0,0,4.311-16.23,16.611-17.372
				c12.3-1.141,29.544,0.634,33.221,3.043c3.677,2.409,8.115,10.271,11.412,10.778s23.331,2.916,24.345,2.916
				c0.695,0,4.189-5.895,6.319-9.606c0.982-1.71,3.036-2.474,4.899-1.829l0.067,0.023l-4.184,17.625l-28.276,1.522
				c0,0-10.144,11.539-17.625,11.539c-7.481,0-32.841,0.894-37.279,0.006C107.095,186.176,95.81,183.634,95.049,177.675z"/>
		</g>
		<g>
			<path style="fill:#FFFFFF;" d="M147.905,173.151h-1.939c-2.107,0-3.815-1.708-3.815-3.815v-3.954
				c0-2.107,1.708-3.815,3.815-3.815h1.939c2.107,0,3.815,1.708,3.815,3.815v3.954C151.72,171.443,150.012,173.151,147.905,173.151z
				"/>
		</g>
		<g>
			<path style="fill:#263238;" d="M137.695,145.577c-2.808,0.681-5.663,0.659-8.563,0v-4.566h8.563L137.695,145.577z"/>
		</g>
		<g>
			<rect x="131.021" y="143.038" style="fill:#263238;" width="4.785" height="5.708"/>
		</g>
		<g>
			<g>
				<path style="fill:#263238;" d="M135.905,182.606c-0.04-0.02,0.299-0.699,0.767-1.981c0.464-1.283,1.02-3.185,1.484-5.582
					c0.46-2.396,0.825-5.29,0.899-8.514c0.032-1.605,0-3.321-0.156-5.036c-0.061-0.404-0.199-0.805-0.465-1.068
					c-0.257-0.267-0.656-0.349-1.091-0.361c-0.907-0.002-1.828-0.004-2.759-0.006c-0.935-0.001-1.858-0.003-2.769-0.004
					c-0.387-0.008-0.753,0.182-0.966,0.491c-0.107,0.153-0.177,0.329-0.2,0.514l-0.056,0.65c-0.143,1.759-0.311,3.455-0.506,5.066
					c-0.394,3.222-0.909,6.106-1.485,8.494c-0.571,2.39-1.183,4.284-1.658,5.572c-0.23,0.646-0.437,1.138-0.579,1.471
					c-0.142,0.332-0.223,0.504-0.239,0.498c-0.015-0.006,0.037-0.189,0.149-0.532c0.129-0.391,0.292-0.886,0.493-1.496
					c0.419-1.301,0.979-3.201,1.505-5.587c0.531-2.385,1.009-5.258,1.378-8.47c0.183-1.606,0.34-3.296,0.477-5.051l0.057-0.673
					c0.031-0.257,0.128-0.508,0.278-0.722c0.294-0.434,0.824-0.706,1.351-0.694c0.91,0.001,1.834,0.001,2.769,0.002
					c0.937,0.003,1.863,0.006,2.776,0.009c0.459,0.011,1.024,0.106,1.405,0.501c0.374,0.38,0.523,0.873,0.593,1.331
					c0.158,1.795,0.176,3.485,0.133,5.117c-0.099,3.253-0.502,6.164-1.007,8.569c-0.509,2.406-1.119,4.308-1.64,5.581
					c-0.269,0.633-0.484,1.122-0.661,1.438C136.015,182.449,135.919,182.614,135.905,182.606z"/>
			</g>
		</g>
		<g>
			<path style="fill:#E0E0E0;" d="M115.736,155.263c-5.478,0-6.782,0.755-6.909,0.838c-4.893,5.144-6.803,12.318-6.803,12.318
				c3.508-1.484,8.852,0.584,11.843,2.827c2.991,2.243,4.58,3.739,8.88,3.458c4.299-0.28,3.832-4.673,4.767-11.403
				C128.447,156.571,121.531,155.263,115.736,155.263z"/>
		</g>
		<g style="opacity:0.3;">
			<path style="fill:#FFFFFF;" d="M149.787,182.046c0,0-22.531,1.048-29.342,0.838c-6.812-0.21-13.938-6.078-18.129-7.596
				c-4.133-1.497-7.111-0.377-7.193-0.345c-0.006,0.03-0.012,0.059-0.018,0.089l-0.12,1.021c-0.026,0.524-0.006,1.065,0.065,1.621
				c0.761,5.96,12.046,8.502,16.484,9.389c4.438,0.888,29.798-0.006,37.279-0.006c5.287,0,11.899-5.759,15.326-9.14
				C159.908,179.028,149.787,182.046,149.787,182.046z"/>
		</g>
		<g>
			<g>
				<path style="fill:#263238;" d="M149.5,182.02c0.002,0.033-0.387,0.083-1.093,0.145c-0.705,0.062-1.726,0.136-2.989,0.214
					c-2.525,0.157-6.014,0.336-9.871,0.481c-3.858,0.146-7.353,0.227-9.883,0.236c-1.265,0.003-2.289-0.003-2.997-0.03
					c-0.708-0.024-1.099-0.053-1.099-0.085c0-0.033,0.391-0.066,1.097-0.099c0.805-0.033,1.806-0.073,2.992-0.121
					c2.631-0.1,6.07-0.231,9.872-0.375c3.803-0.132,7.242-0.251,9.874-0.342c1.187-0.025,2.189-0.046,2.995-0.063
					C149.106,181.975,149.498,181.987,149.5,182.02z"/>
			</g>
		</g>
		<g>
			<g>
				<rect x="168.607" y="170.081" style="fill:#FFFFFF;" width="5.869" height="2.227"/>
			</g>
			<g>
				
					<rect x="168.798" y="170.087" transform="matrix(6.123234e-17 -1 1 6.123234e-17 0.3471 342.7355)" style="fill:#FFFFFF;" width="5.487" height="2.214"/>
			</g>
		</g>
		<g>
			<path style="fill:#FF725E;" d="M123.976,150.735c0.034-0.001,1.668-2.408,3.622-2.66c1.954-0.252,11.944-0.278,15.301,1.33
				c3.358,1.608,5.708,4.126,5.708,4.126L123.976,150.735z"/>
		</g>
		<g>
			<g>
				<path style="fill:#263238;" d="M187.371,142.006c-0.029,0.006-0.003-0.201-0.163-0.526c-0.137-0.343-0.55-0.731-1.146-1.119
					c-1.208-0.781-3.238-1.49-5.893-2.141c-5.323-1.296-13.21-2.349-22.988-3.001c-9.779-0.642-21.463-0.922-34.416-0.479
					c-6.474,0.234-13.269,0.634-20.271,1.43c-3.499,0.403-7.054,0.895-10.613,1.625c-1.777,0.369-3.559,0.794-5.298,1.37
					c-0.862,0.3-1.73,0.615-2.523,1.054c-0.765,0.419-1.617,1.007-1.673,1.781c0.049,0.774,0.899,1.366,1.664,1.785
					c0.793,0.441,1.661,0.755,2.523,1.056c1.739,0.577,3.521,1.003,5.299,1.372c3.56,0.73,7.116,1.223,10.616,1.626
					c7.004,0.796,13.8,1.196,20.275,1.43c12.954,0.444,24.639,0.163,34.418-0.479c9.777-0.652,17.664-1.705,22.987-3.001
					c2.654-0.65,4.684-1.36,5.892-2.14c0.596-0.388,1.009-0.776,1.145-1.119C187.368,142.207,187.343,141.999,187.371,142.006
					c-0.012-0.007,0.031,0.203-0.119,0.546c-0.128,0.362-0.54,0.772-1.137,1.178c-1.21,0.818-3.243,1.559-5.9,2.24
					c-5.328,1.356-13.221,2.461-23.008,3.157c-9.789,0.686-21.484,1.001-34.456,0.581c-6.484-0.222-13.291-0.613-20.313-1.405
					c-3.51-0.401-7.076-0.892-10.658-1.626c-1.79-0.371-3.585-0.799-5.355-1.385c-0.88-0.307-1.764-0.626-2.6-1.089
					c-0.418-0.229-0.823-0.496-1.196-0.825c-0.344-0.35-0.702-0.788-0.715-1.378c0.016-0.591,0.379-1.024,0.723-1.373
					c0.372-0.329,0.778-0.594,1.196-0.823c0.836-0.462,1.72-0.782,2.6-1.088c1.769-0.585,3.564-1.013,5.353-1.383
					c3.581-0.733,7.147-1.224,10.656-1.625c7.021-0.791,13.826-1.182,20.309-1.405c12.97-0.42,24.665-0.105,34.454,0.581
					c9.787,0.696,17.681,1.801,23.01,3.157c2.657,0.68,4.69,1.421,5.9,2.24c0.597,0.407,1.009,0.817,1.137,1.178
					C187.402,141.802,187.359,142.013,187.371,142.006z"/>
			</g>
		</g>
		<g>
			<ellipse style="fill:#455A64;" cx="133.414" cy="141.186" rx="4.281" ry="1.107"/>
		</g>
		<g>
			<g>
				<path style="fill:#263238;" d="M130.472,142.313c0.022,0.129-5.885,1.239-13.191,2.478c-7.309,1.239-13.25,2.139-13.272,2.01
					c-0.022-0.129,5.884-1.238,13.193-2.478C124.508,143.084,130.451,142.184,130.472,142.313z"/>
			</g>
		</g>
		<g>
			<g>
				<path style="fill:#263238;" d="M133.072,141.016c0,0.016-0.151,0.032-0.438,0.046c-0.342,0.01-0.757,0.023-1.255,0.038
					c-1.165,0.02-2.724,0.046-4.615,0.079c-3.897,0.062-9.278,0.173-15.219,0.395c-5.943,0.224-11.318,0.515-15.208,0.745
					c-1.889,0.109-3.445,0.2-4.608,0.267c-0.499,0.022-0.912,0.04-1.255,0.056c-0.287,0.007-0.439,0.003-0.44-0.013
					c-0.001-0.016,0.147-0.044,0.432-0.083c0.34-0.039,0.752-0.087,1.248-0.145c1.084-0.117,2.656-0.26,4.599-0.418
					c3.887-0.316,9.265-0.661,15.214-0.885c5.947-0.222,11.335-0.28,15.235-0.256c1.95,0.011,3.528,0.037,4.618,0.072
					c0.499,0.02,0.913,0.037,1.255,0.051C132.921,140.983,133.072,141,133.072,141.016z"/>
			</g>
		</g>
		<g>
			<g>
				<path style="fill:#263238;" d="M119.781,158.091c0.055,0.119-3.266,1.782-7.418,3.714c-4.153,1.933-7.564,3.403-7.619,3.284
					c-0.055-0.119,3.266-1.781,7.419-3.714C116.314,159.443,119.726,157.972,119.781,158.091z"/>
			</g>
		</g>
		<g>
			<g>
				<path style="fill:#263238;" d="M118.082,161.2c0.053,0.125-2.058,1.131-4.611,2.46c-2.557,1.324-4.594,2.472-4.665,2.357
					c-0.068-0.107,1.871-1.444,4.447-2.778C115.825,161.899,118.034,161.083,118.082,161.2z"/>
			</g>
		</g>
		<g>
			<g>
				<path style="fill:#263238;" d="M150.246,153.154c-0.013,0.131-5.864-0.332-13.067-1.033c-7.206-0.701-13.035-1.375-13.022-1.505
					c0.013-0.13,5.862,0.332,13.068,1.033C144.429,152.35,150.259,153.024,150.246,153.154z"/>
			</g>
		</g>
	</g>
</g>
<g id="Hospital">
	<g>
		<g>
			<g>
				<g>
					<rect x="42.316" y="273.257" style="fill:#E0E0E0;" width="357.776" height="166.18"/>
				</g>
				<g>
					<g>
						<path style="fill:#263238;" d="M400.092,273.257c0.002,1.496,0.073,63.612,0.19,166.18l0,0.19h-0.19
							c-92.867,0.018-219.017,0.043-357.751,0.071h-0.025h-0.261v-0.26c0.005-58.456,0.009-114.673,0.014-166.18l0-0.247l0.247,0
							C250.678,273.154,397.797,273.255,400.092,273.257c-2.294,0.001-149.414,0.103-357.776,0.247l0.247-0.247
							c0.004,51.507,0.009,107.724,0.014,166.18l-0.26-0.26h0.025c138.734,0.027,264.884,0.052,357.751,0.071l-0.19,0.19
							C400.02,336.869,400.091,274.753,400.092,273.257z"/>
					</g>
				</g>
			</g>
			<g>
				<rect x="42.316" y="383.765" style="fill:#FF725E;" width="353.377" height="55.672"/>
			</g>
			<g>
				<g>
					<g>
						<rect x="184.545" y="398.25" style="fill:#455A64;" width="132.741" height="30.275"/>
					</g>
				</g>
				<g>
					<g>
						<path style="fill:#E0E0E0;" d="M305.278,398.465c0,9.968,0,19.937,0,29.905c0,0.293,0.456,0.294,0.456,0
							c0-9.968,0-19.937,0-29.905C305.734,398.172,305.278,398.172,305.278,398.465L305.278,398.465z"/>
					</g>
				</g>
				<g>
					<g>
						<path style="fill:#E0E0E0;" d="M290.443,398.465c0,9.968,0,19.937,0,29.905c0,0.293,0.456,0.294,0.456,0
							c0-9.968,0-19.937,0-29.905C290.899,398.172,290.443,398.172,290.443,398.465L290.443,398.465z"/>
					</g>
				</g>
				<g>
					<g>
						<path style="fill:#E0E0E0;" d="M275.607,398.465c0,9.968,0,19.937,0,29.905c0,0.293,0.456,0.294,0.456,0
							c0-9.968,0-19.937,0-29.905C276.063,398.172,275.607,398.172,275.607,398.465L275.607,398.465z"/>
					</g>
				</g>
				<g>
					<g>
						<path style="fill:#E0E0E0;" d="M260.772,398.465c0,9.968,0,19.937,0,29.905c0,0.293,0.456,0.294,0.456,0
							c0-9.968,0-19.937,0-29.905C261.228,398.172,260.772,398.172,260.772,398.465L260.772,398.465z"/>
					</g>
				</g>
				<g>
					<g>
						<path style="fill:#E0E0E0;" d="M245.936,398.465c0,9.968,0,19.937,0,29.905c0,0.293,0.456,0.294,0.456,0
							c0-9.968,0-19.937,0-29.905C246.392,398.172,245.936,398.172,245.936,398.465L245.936,398.465z"/>
					</g>
				</g>
				<g>
					<g>
						<path style="fill:#E0E0E0;" d="M231.101,398.465c0,9.968,0,19.937,0,29.905c0,0.293,0.456,0.294,0.456,0
							c0-9.968,0-19.937,0-29.905C231.557,398.172,231.101,398.172,231.101,398.465L231.101,398.465z"/>
					</g>
				</g>
				<g>
					<g>
						<path style="fill:#E0E0E0;" d="M216.266,398.465c0,9.968,0,19.937,0,29.905c0,0.293,0.456,0.294,0.456,0
							c0-9.968,0-19.937,0-29.905C216.721,398.172,216.266,398.172,216.266,398.465L216.266,398.465z"/>
					</g>
				</g>
				<g>
					<g>
						<path style="fill:#E0E0E0;" d="M201.43,398.465c0,9.968,0,19.937,0,29.905c0,0.293,0.456,0.294,0.456,0
							c0-9.968,0-19.937,0-29.905C201.886,398.172,201.43,398.172,201.43,398.465L201.43,398.465z"/>
					</g>
				</g>
			</g>
			<g style="opacity:0.3;">
				<polygon points="184.528,402.139 315.049,402.139 315.049,428.555 317.303,428.555 317.303,398.281 184.562,398.281 				"/>
			</g>
			<g>
				<g>
					<g>
						<rect x="327.06" y="398.55" style="fill:#455A64;" width="69.386" height="30.275"/>
					</g>
				</g>
				<g>
					<g>
						<path style="fill:#E0E0E0;" d="M388.451,398.765c0,9.968,0,19.937,0,29.905c0,0.293,0.456,0.294,0.456,0
							c0-9.968,0-19.937,0-29.905C388.907,398.471,388.451,398.471,388.451,398.765L388.451,398.765z"/>
					</g>
				</g>
				<g>
					<g>
						<path style="fill:#E0E0E0;" d="M373.616,398.765c0,9.968,0,19.937,0,29.905c0,0.293,0.456,0.294,0.456,0
							c0-9.968,0-19.937,0-29.905C374.072,398.471,373.616,398.471,373.616,398.765L373.616,398.765z"/>
					</g>
				</g>
				<g>
					<g>
						<path style="fill:#E0E0E0;" d="M358.78,398.765c0,9.968,0,19.937,0,29.905c0,0.293,0.456,0.294,0.456,0
							c0-9.968,0-19.937,0-29.905C359.236,398.471,358.78,398.471,358.78,398.765L358.78,398.765z"/>
					</g>
				</g>
				<g>
					<g>
						<path style="fill:#E0E0E0;" d="M343.945,398.765c0,9.968,0,19.937,0,29.905c0,0.293,0.456,0.294,0.456,0
							c0-9.968,0-19.937,0-29.905C344.401,398.471,343.945,398.471,343.945,398.765L343.945,398.765z"/>
					</g>
				</g>
			</g>
			<g>
				<g>
					<g>
						<polyline style="fill:#455A64;" points="42.316,398.45 175.057,398.45 175.057,428.725 42.316,428.725 						"/>
					</g>
					<g style="opacity:0.3;">
						<polygon style="fill:#FFFFFF;" points="175.057,400.151 80.57,428.811 80.57,428.811 98.97,428.57 175.057,406.426 						"/>
					</g>
					<g style="opacity:0.3;">
						<polygon style="fill:#FFFFFF;" points="175.057,409.24 111.684,428.525 111.684,428.811 117.109,428.591 175.057,411.004 
													"/>
					</g>
				</g>
				<g>
					<g>
						<path style="fill:#E0E0E0;" d="M163.049,398.665c0,9.968,0,19.937,0,29.905c0,0.293,0.456,0.294,0.456,0
							c0-9.968,0-19.937,0-29.905C163.505,398.372,163.049,398.371,163.049,398.665L163.049,398.665z"/>
					</g>
				</g>
				<g>
					<g>
						<path style="fill:#E0E0E0;" d="M148.214,398.665c0,9.968,0,19.937,0,29.905c0,0.293,0.456,0.294,0.456,0
							c0-9.968,0-19.937,0-29.905C148.67,398.372,148.214,398.371,148.214,398.665L148.214,398.665z"/>
					</g>
				</g>
				<g>
					<g>
						<path style="fill:#E0E0E0;" d="M133.378,398.665c0,9.968,0,19.937,0,29.905c0,0.293,0.456,0.294,0.456,0
							c0-9.968,0-19.937,0-29.905C133.834,398.372,133.378,398.371,133.378,398.665L133.378,398.665z"/>
					</g>
				</g>
				<g>
					<g>
						<path style="fill:#E0E0E0;" d="M118.543,398.665c0,9.968,0,19.937,0,29.905c0,0.293,0.456,0.294,0.456,0
							c0-9.968,0-19.937,0-29.905C118.999,398.372,118.543,398.371,118.543,398.665L118.543,398.665z"/>
					</g>
				</g>
				<g>
					<g>
						<path style="fill:#E0E0E0;" d="M103.708,398.665c0,9.968,0,19.937,0,29.905c0,0.293,0.456,0.294,0.456,0
							c0-9.968,0-19.937,0-29.905C104.163,398.372,103.708,398.371,103.708,398.665L103.708,398.665z"/>
					</g>
				</g>
				<g>
					<g>
						<path style="fill:#E0E0E0;" d="M88.872,398.665c0,9.968,0,19.937,0,29.905c0,0.293,0.456,0.294,0.456,0
							c0-9.968,0-19.937,0-29.905C89.328,398.372,88.872,398.371,88.872,398.665L88.872,398.665z"/>
					</g>
				</g>
				<g>
					<g>
						<path style="fill:#E0E0E0;" d="M74.037,398.665c0,9.968,0,19.937,0,29.905c0,0.293,0.456,0.294,0.456,0
							c0-9.968,0-19.937,0-29.905C74.492,398.372,74.037,398.371,74.037,398.665L74.037,398.665z"/>
					</g>
				</g>
				<g>
					<g>
						<path style="fill:#E0E0E0;" d="M59.201,398.665c0,9.968,0,19.937,0,29.905c0,0.293,0.456,0.294,0.456,0
							c0-9.968,0-19.937,0-29.905C59.657,398.372,59.201,398.371,59.201,398.665L59.201,398.665z"/>
					</g>
				</g>
				<g style="opacity:0.3;">
					<polygon points="42.282,402.309 172.803,402.309 172.803,428.725 175.057,428.725 175.057,398.45 42.316,398.45 					"/>
				</g>
			</g>
			<g style="opacity:0.3;">
				<rect x="161.766" y="428.57" style="fill:#FFFFFF;" width="8.104" height="4.876"/>
			</g>
			<g style="opacity:0.3;">
				<rect x="92.829" y="388.475" style="fill:#FFFFFF;" width="8.104" height="4.876"/>
			</g>
			<g>
				<g>
					<path style="fill:#E0E0E0;" d="M42.849,428.953c17.146,0,34.292,0,51.438,0c17.146,0,34.292,0,51.438,0
						c9.711,0,19.422,0,29.133,0c0.293,0,0.294-0.456,0-0.456c-17.146,0-34.292,0-51.438,0c-17.146,0-34.292,0-51.438,0
						c-9.711,0-19.422,0-29.133,0C42.556,428.497,42.556,428.953,42.849,428.953L42.849,428.953z"/>
				</g>
			</g>
			<g>
				<g>
					<path style="fill:#E0E0E0;" d="M184.911,428.953c17.237,0,34.474,0,51.711,0c17.186,0,34.372,0,51.559,0
						c9.702,0,19.403,0,29.105,0c0.293,0,0.294-0.456,0-0.456c-17.237,0-34.474,0-51.711,0c-17.186,0-34.372,0-51.559,0
						c-9.702,0-19.404,0-29.105,0C184.618,428.497,184.617,428.953,184.911,428.953L184.911,428.953z"/>
				</g>
			</g>
			<g>
				<g>
					<g>
						<rect x="42.316" y="326.802" style="fill:#455A64;" width="132.741" height="33.778"/>
					</g>
				</g>
				<g>
					<g>
						<path style="fill:#E0E0E0;" d="M163.049,327.043c0,11.122,0,22.244,0,33.366c0,0.293,0.456,0.294,0.456,0
							c0-11.122,0-22.244,0-33.366C163.505,326.749,163.049,326.749,163.049,327.043L163.049,327.043z"/>
					</g>
				</g>
				<g>
					<g>
						<path style="fill:#E0E0E0;" d="M148.214,327.043c0,11.122,0,22.244,0,33.366c0,0.293,0.456,0.294,0.456,0
							c0-11.122,0-22.244,0-33.366C148.67,326.749,148.214,326.749,148.214,327.043L148.214,327.043z"/>
					</g>
				</g>
				<g>
					<g>
						<path style="fill:#E0E0E0;" d="M133.378,327.043c0,11.122,0,22.244,0,33.366c0,0.293,0.456,0.294,0.456,0
							c0-11.122,0-22.244,0-33.366C133.834,326.749,133.378,326.749,133.378,327.043L133.378,327.043z"/>
					</g>
				</g>
				<g>
					<g>
						<path style="fill:#E0E0E0;" d="M118.543,327.043c0,11.122,0,22.244,0,33.366c0,0.293,0.456,0.294,0.456,0
							c0-11.122,0-22.244,0-33.366C118.999,326.749,118.543,326.749,118.543,327.043L118.543,327.043z"/>
					</g>
				</g>
				<g>
					<g>
						<path style="fill:#E0E0E0;" d="M103.708,327.043c0,11.122,0,22.244,0,33.366c0,0.293,0.456,0.294,0.456,0
							c0-11.122,0-22.244,0-33.366C104.163,326.749,103.708,326.749,103.708,327.043L103.708,327.043z"/>
					</g>
				</g>
				<g>
					<g>
						<path style="fill:#E0E0E0;" d="M88.872,327.043c0,11.122,0,22.244,0,33.366c0,0.293,0.456,0.294,0.456,0
							c0-11.122,0-22.244,0-33.366C89.328,326.749,88.872,326.749,88.872,327.043L88.872,327.043z"/>
					</g>
				</g>
				<g>
					<g>
						<path style="fill:#E0E0E0;" d="M74.037,327.043c0,11.122,0,22.244,0,33.366c0,0.293,0.456,0.294,0.456,0
							c0-11.122,0-22.244,0-33.366C74.492,326.749,74.037,326.749,74.037,327.043L74.037,327.043z"/>
					</g>
				</g>
				<g>
					<g>
						<path style="fill:#E0E0E0;" d="M59.201,327.043c0,11.122,0,22.244,0,33.366c0,0.293,0.456,0.294,0.456,0
							c0-11.122,0-22.244,0-33.366C59.657,326.749,59.201,326.749,59.201,327.043L59.201,327.043z"/>
					</g>
				</g>
			</g>
			<g>
				<g>
					<path style="fill:#E0E0E0;" d="M42.682,361.008c17.237,0,34.474,0,51.711,0c17.186,0,34.372,0,51.558,0
						c9.702,0,19.404,0,29.105,0c0.293,0,0.294-0.456,0-0.456c-17.237,0-34.474,0-51.711,0c-17.186,0-34.372,0-51.559,0
						c-9.702,0-19.404,0-29.105,0C42.389,360.552,42.389,361.008,42.682,361.008L42.682,361.008z"/>
				</g>
			</g>
			<g>
				<g>
					<path style="fill:#E0E0E0;" d="M326.792,429.15c17.843,0,35.687,0,53.53,0c5.087,0,10.174,0,15.262,0
						c0.293,0,0.294-0.456,0-0.456c-17.843,0-35.687,0-53.53,0c-5.087,0-10.174,0-15.262,0
						C326.499,428.694,326.499,429.15,326.792,429.15L326.792,429.15z"/>
				</g>
			</g>
			<g style="opacity:0.3;">
				<rect x="327.06" y="398.55" width="68.525" height="4.473"/>
			</g>
			<g>
				<g>
					<path style="fill:#E0E0E0;" d="M42.411,353.444c17.261,0,34.522,0,51.783,0c17.261,0,34.522,0,51.783,0
						c9.69,0,19.381,0,29.071,0c0.293,0,0.294-0.456,0-0.456c-17.261,0-34.522,0-51.783,0s-34.522,0-51.783,0
						c-9.69,0-19.381,0-29.071,0C42.118,352.988,42.117,353.444,42.411,353.444L42.411,353.444z"/>
				</g>
			</g>
			<g style="opacity:0.3;">
				<polygon points="42.299,330.661 172.82,330.661 172.82,360.408 175.074,360.408 175.074,326.802 42.333,326.802 				"/>
			</g>
			<g>
				<g>
					<g>
						<rect x="184.928" y="326.802" style="fill:#455A64;" width="132.741" height="33.778"/>
					</g>
				</g>
				<g>
					<g>
						<path style="fill:#E0E0E0;" d="M305.662,327.043c0,11.122,0,22.244,0,33.366c0,0.293,0.456,0.294,0.456,0
							c0-11.122,0-22.244,0-33.366C306.117,326.749,305.662,326.749,305.662,327.043L305.662,327.043z"/>
					</g>
				</g>
				<g>
					<g>
						<path style="fill:#E0E0E0;" d="M290.826,327.043c0,11.122,0,22.244,0,33.366c0,0.293,0.456,0.294,0.456,0
							c0-11.122,0-22.244,0-33.366C291.282,326.749,290.826,326.749,290.826,327.043L290.826,327.043z"/>
					</g>
				</g>
				<g>
					<g>
						<path style="fill:#E0E0E0;" d="M275.991,327.043c0,11.122,0,22.244,0,33.366c0,0.293,0.456,0.294,0.456,0
							c0-11.122,0-22.244,0-33.366C276.446,326.749,275.991,326.749,275.991,327.043L275.991,327.043z"/>
					</g>
				</g>
				<g>
					<g>
						<path style="fill:#E0E0E0;" d="M261.155,327.043c0,11.122,0,22.244,0,33.366c0,0.293,0.456,0.294,0.456,0
							c0-11.122,0-22.244,0-33.366C261.611,326.749,261.155,326.749,261.155,327.043L261.155,327.043z"/>
					</g>
				</g>
				<g>
					<g>
						<path style="fill:#E0E0E0;" d="M246.32,327.043c0,11.122,0,22.244,0,33.366c0,0.293,0.456,0.294,0.456,0
							c0-11.122,0-22.244,0-33.366C246.775,326.749,246.32,326.749,246.32,327.043L246.32,327.043z"/>
					</g>
				</g>
				<g>
					<g>
						<path style="fill:#E0E0E0;" d="M231.484,327.043c0,11.122,0,22.244,0,33.366c0,0.293,0.456,0.294,0.456,0
							c0-11.122,0-22.244,0-33.366C231.94,326.749,231.484,326.749,231.484,327.043L231.484,327.043z"/>
					</g>
				</g>
				<g>
					<g>
						<path style="fill:#E0E0E0;" d="M216.649,327.043c0,11.122,0,22.244,0,33.366c0,0.293,0.456,0.294,0.456,0
							c0-11.122,0-22.244,0-33.366C217.105,326.749,216.649,326.749,216.649,327.043L216.649,327.043z"/>
					</g>
				</g>
				<g>
					<g>
						<path style="fill:#E0E0E0;" d="M201.813,327.043c0,11.122,0,22.244,0,33.366c0,0.293,0.456,0.294,0.456,0
							c0-11.122,0-22.244,0-33.366C202.269,326.749,201.813,326.749,201.813,327.043L201.813,327.043z"/>
					</g>
				</g>
			</g>
			<g>
				<g>
					<g>
						<rect x="42.316" y="293.619" style="fill:#455A64;" width="132.741" height="12.356"/>
					</g>
				</g>
				<g>
					<g>
						<path style="fill:#E0E0E0;" d="M163.049,293.707c0,4.068,0,8.137,0,12.205c0,0.293,0.456,0.294,0.456,0
							c0-4.068,0-8.137,0-12.205C163.505,293.413,163.049,293.413,163.049,293.707L163.049,293.707z"/>
					</g>
				</g>
				<g>
					<g>
						<path style="fill:#E0E0E0;" d="M148.214,293.707c0,4.068,0,8.137,0,12.205c0,0.293,0.456,0.294,0.456,0
							c0-4.068,0-8.137,0-12.205C148.67,293.413,148.214,293.413,148.214,293.707L148.214,293.707z"/>
					</g>
				</g>
				<g>
					<g>
						<path style="fill:#E0E0E0;" d="M133.378,293.707c0,4.068,0,8.137,0,12.205c0,0.293,0.456,0.294,0.456,0
							c0-4.068,0-8.137,0-12.205C133.834,293.413,133.378,293.413,133.378,293.707L133.378,293.707z"/>
					</g>
				</g>
				<g>
					<g>
						<path style="fill:#E0E0E0;" d="M118.543,293.707c0,4.068,0,8.137,0,12.205c0,0.293,0.456,0.294,0.456,0
							c0-4.068,0-8.137,0-12.205C118.999,293.413,118.543,293.413,118.543,293.707L118.543,293.707z"/>
					</g>
				</g>
				<g>
					<g>
						<path style="fill:#E0E0E0;" d="M103.708,293.707c0,4.068,0,8.137,0,12.205c0,0.293,0.456,0.294,0.456,0
							c0-4.068,0-8.137,0-12.205C104.163,293.413,103.708,293.413,103.708,293.707L103.708,293.707z"/>
					</g>
				</g>
				<g>
					<g>
						<path style="fill:#E0E0E0;" d="M88.872,293.707c0,4.068,0,8.137,0,12.205c0,0.293,0.456,0.294,0.456,0
							c0-4.068,0-8.137,0-12.205C89.328,293.413,88.872,293.413,88.872,293.707L88.872,293.707z"/>
					</g>
				</g>
				<g>
					<g>
						<path style="fill:#E0E0E0;" d="M74.037,293.707c0,4.068,0,8.137,0,12.205c0,0.293,0.456,0.294,0.456,0
							c0-4.068,0-8.137,0-12.205C74.492,293.413,74.037,293.413,74.037,293.707L74.037,293.707z"/>
					</g>
				</g>
				<g>
					<g>
						<path style="fill:#E0E0E0;" d="M59.201,293.707c0,4.068,0,8.137,0,12.205c0,0.293,0.456,0.294,0.456,0
							c0-4.068,0-8.137,0-12.205C59.657,293.413,59.201,293.413,59.201,293.707L59.201,293.707z"/>
					</g>
				</g>
			</g>
			<g>
				<g>
					<path style="fill:#E0E0E0;" d="M185.295,361.008c17.237,0,34.474,0,51.711,0c17.186,0,34.372,0,51.559,0
						c9.702,0,19.404,0,29.105,0c0.293,0,0.294-0.456,0-0.456c-17.237,0-34.474,0-51.711,0c-17.186,0-34.372,0-51.559,0
						c-9.702,0-19.404,0-29.105,0C185.001,360.552,185.001,361.008,185.295,361.008L185.295,361.008z"/>
				</g>
			</g>
			<g>
				<g>
					<path style="fill:#E0E0E0;" d="M185.023,353.444c17.261,0,34.522,0,51.783,0c17.261,0,34.522,0,51.783,0
						c9.69,0,19.381,0,29.071,0c0.293,0,0.294-0.456,0-0.456c-17.261,0-34.522,0-51.783,0s-34.522,0-51.783,0
						c-9.69,0-19.381,0-29.071,0C184.73,352.988,184.73,353.444,185.023,353.444L185.023,353.444z"/>
				</g>
			</g>
			<g style="opacity:0.3;">
				<polygon points="184.911,330.661 315.432,330.661 315.432,360.408 317.687,360.408 317.687,326.802 184.945,326.802 				"/>
			</g>
			<g>
				<rect x="332.197" y="326.802" style="fill:#455A64;" width="52.476" height="33.778"/>
			</g>
			<g>
				<g>
					<path style="fill:#E0E0E0;" d="M332.097,353.131c17.402,0,34.804,0,52.206,0c0.293,0,0.294-0.456,0-0.456
						c-17.402,0-34.804,0-52.206,0C331.804,352.675,331.803,353.131,332.097,353.131L332.097,353.131z"/>
				</g>
			</g>
			<g>
				<g>
					<path style="fill:#E0E0E0;" d="M358.207,326.935c0,11.257,0,22.515,0,33.772c0,0.293,0.456,0.294,0.456,0
						c0-11.257,0-22.515,0-33.772C358.663,326.641,358.207,326.641,358.207,326.935L358.207,326.935z"/>
				</g>
			</g>
			<g style="opacity:0.3;">
				<polygon points="332.197,326.802 332.197,330.676 381.056,330.745 381.126,360.581 384.673,360.581 384.673,326.802 				"/>
			</g>
			<g>
				<rect x="42.411" y="370.43" style="fill:#FFFFFF;" width="353.282" height="3.337"/>
			</g>
			<g>
				<g>
					<path style="fill:#263238;" d="M394.092,314.325c0,0.131-78.832,0.237-176.054,0.237c-97.256,0-176.071-0.106-176.071-0.237
						c0-0.131,78.815-0.237,176.071-0.237C315.26,314.088,394.092,314.194,394.092,314.325z"/>
				</g>
			</g>
			<g style="opacity:0.3;">
				<polygon points="42.316,293.619 42.316,297.288 171.337,297.288 171.337,305.911 175.057,305.911 175.057,293.619 				"/>
			</g>
			<g>
				<g>
					<g>
						<rect x="184.928" y="293.619" style="fill:#455A64;" width="132.741" height="12.356"/>
					</g>
				</g>
				<g>
					<g>
						<path style="fill:#E0E0E0;" d="M305.662,293.707c0,4.068,0,8.137,0,12.205c0,0.293,0.456,0.294,0.456,0
							c0-4.068,0-8.137,0-12.205C306.117,293.413,305.662,293.413,305.662,293.707L305.662,293.707z"/>
					</g>
				</g>
				<g>
					<g>
						<path style="fill:#E0E0E0;" d="M290.826,293.707c0,4.068,0,8.137,0,12.205c0,0.293,0.456,0.294,0.456,0
							c0-4.068,0-8.137,0-12.205C291.282,293.413,290.826,293.413,290.826,293.707L290.826,293.707z"/>
					</g>
				</g>
				<g>
					<g>
						<path style="fill:#E0E0E0;" d="M275.991,293.707c0,4.068,0,8.137,0,12.205c0,0.293,0.456,0.294,0.456,0
							c0-4.068,0-8.137,0-12.205C276.446,293.413,275.991,293.413,275.991,293.707L275.991,293.707z"/>
					</g>
				</g>
				<g>
					<g>
						<path style="fill:#E0E0E0;" d="M261.155,293.707c0,4.068,0,8.137,0,12.205c0,0.293,0.456,0.294,0.456,0
							c0-4.068,0-8.137,0-12.205C261.611,293.413,261.155,293.413,261.155,293.707L261.155,293.707z"/>
					</g>
				</g>
				<g>
					<g>
						<path style="fill:#E0E0E0;" d="M246.32,293.707c0,4.068,0,8.137,0,12.205c0,0.293,0.456,0.294,0.456,0
							c0-4.068,0-8.137,0-12.205C246.775,293.413,246.32,293.413,246.32,293.707L246.32,293.707z"/>
					</g>
				</g>
				<g>
					<g>
						<path style="fill:#E0E0E0;" d="M231.484,293.707c0,4.068,0,8.137,0,12.205c0,0.293,0.456,0.294,0.456,0
							c0-4.068,0-8.137,0-12.205C231.94,293.413,231.484,293.413,231.484,293.707L231.484,293.707z"/>
					</g>
				</g>
				<g>
					<g>
						<path style="fill:#E0E0E0;" d="M216.649,293.707c0,4.068,0,8.137,0,12.205c0,0.293,0.456,0.294,0.456,0
							c0-4.068,0-8.137,0-12.205C217.105,293.413,216.649,293.413,216.649,293.707L216.649,293.707z"/>
					</g>
				</g>
				<g>
					<g>
						<path style="fill:#E0E0E0;" d="M201.813,293.707c0,4.068,0,8.137,0,12.205c0,0.293,0.456,0.294,0.456,0
							c0-4.068,0-8.137,0-12.205C202.269,293.413,201.813,293.413,201.813,293.707L201.813,293.707z"/>
					</g>
				</g>
			</g>
			<g style="opacity:0.3;">
				<polygon points="184.928,293.619 184.928,297.288 313.949,297.288 313.949,305.911 317.67,305.911 317.67,293.619 				"/>
			</g>
			<g>
				<rect x="344.768" y="293.923" style="fill:#455A64;" width="11.63" height="11.64"/>
			</g>
			<g>
				<rect x="363.899" y="293.967" style="fill:#455A64;" width="11.63" height="11.64"/>
			</g>
			<g style="opacity:0.3;">
				<polygon points="344.768,296.32 353.652,296.32 353.652,305.563 356.398,305.563 356.398,293.923 344.768,293.923 				"/>
			</g>
			<g style="opacity:0.3;">
				<polygon points="364.066,296.32 372.95,296.32 372.95,305.563 375.696,305.563 375.696,293.923 364.066,293.923 				"/>
			</g>
			<g style="opacity:0.3;">
				<rect x="327.676" y="387.23" style="fill:#FFFFFF;" width="12.241" height="7.365"/>
			</g>
			<g style="opacity:0.3;">
				<rect x="188.016" y="430.049" style="fill:#FFFFFF;" width="12.241" height="7.365"/>
			</g>
			<g style="opacity:0.3;">
				<rect x="183.576" y="278.513" style="fill:#FFFFFF;" width="12.241" height="7.365"/>
			</g>
			<g style="opacity:0.3;">
				<rect x="167.412" y="278.513" style="fill:#FFFFFF;" width="12.241" height="7.365"/>
			</g>
			<g style="opacity:0.3;">
				<rect x="301.194" y="388.475" style="fill:#FFFFFF;" width="8.104" height="4.876"/>
			</g>
		</g>
		<g>
			<g>
				<g>
					<rect x="525.302" y="352.903" style="fill:#E0E0E0;" width="186.617" height="86.534"/>
				</g>
				<g>
					<g>
						<path style="fill:#263238;" d="M711.919,439.437c0,0-0.013-0.53-0.02-1.546c-0.005-1.022-0.012-2.527-0.021-4.497
							c-0.011-3.951-0.027-9.762-0.047-17.242c-0.024-14.948-0.059-36.559-0.102-63.249l0.19,0.19
							c-48.434,0.018-114.234,0.043-186.604,0.071h-0.013l0.26-0.26c-0.005,30.438-0.009,59.711-0.014,86.534l-0.247-0.247
							c54.314,0.048,100.935,0.089,133.989,0.118c16.54,0.029,29.682,0.052,38.701,0.068c4.506,0.014,7.98,0.024,10.338,0.031
							c1.171,0.007,2.064,0.012,2.673,0.015C711.605,439.427,711.919,439.437,711.919,439.437s-0.294,0.01-0.887,0.015
							c-0.603,0.004-1.485,0.009-2.644,0.015c-2.346,0.007-5.803,0.017-10.287,0.031c-9.005,0.016-22.129,0.039-38.644,0.068
							c-33.095,0.029-79.774,0.07-134.155,0.118l-0.247,0v-0.247c-0.004-26.823-0.009-56.096-0.014-86.534v-0.26h0.26h0.013
							c72.37,0.027,138.17,0.052,186.604,0.071l0.19,0l0,0.19c-0.043,26.739-0.078,48.389-0.102,63.365
							c-0.021,7.461-0.037,13.258-0.047,17.2c-0.009,1.955-0.016,3.448-0.021,4.462
							C711.932,438.933,711.919,439.437,711.919,439.437z"/>
					</g>
				</g>
			</g>
			<g>
				<path style="fill:#FFFFFF;" d="M562.679,373.092v4.036h-13.197v-15.872h12.902v4.036h-7.642v1.859h6.712v3.854h-6.712v2.086
					H562.679z"/>
				<path style="fill:#FFFFFF;" d="M578.916,377.128l-0.045-7.233l-3.446,5.805h-2.358l-3.446-5.555v6.983h-4.876v-15.872h4.399
					l5.17,8.457l5.033-8.457h4.399l0.045,15.872H578.916z"/>
				<path style="fill:#FFFFFF;" d="M599.576,373.092v4.036h-13.197v-15.872h12.902v4.036h-7.642v1.859h6.712v3.854h-6.712v2.086
					H599.576z"/>
				<path style="fill:#FFFFFF;" d="M608.443,373.137h-1.451v3.991h-5.352v-15.872h7.642c4.422,0,7.233,2.313,7.233,5.986
					c0,2.29-1.089,4.013-2.993,4.988l3.333,4.897h-5.714L608.443,373.137z M608.942,365.383h-1.95v3.719h1.95
					c1.474,0,2.177-0.703,2.177-1.859C611.119,366.085,610.416,365.383,608.942,365.383z"/>
				<path style="fill:#FFFFFF;" d="M629.035,368.761h4.648v6.712c-1.928,1.315-4.581,2.018-6.916,2.018
					c-5.125,0-8.866-3.424-8.866-8.299s3.741-8.299,8.979-8.299c3.129,0,5.646,1.089,7.256,3.061l-3.424,3.016
					c-0.998-1.156-2.154-1.746-3.559-1.746c-2.358,0-3.856,1.52-3.856,3.968c0,2.381,1.497,3.969,3.787,3.969
					c0.657,0,1.292-0.113,1.95-0.386V368.761z"/>
				<path style="fill:#FFFFFF;" d="M649.172,373.092v4.036h-13.197v-15.872h12.902v4.036h-7.642v1.859h6.712v3.854h-6.712v2.086
					H649.172z"/>
				<path style="fill:#FFFFFF;" d="M666.881,361.256v15.872h-4.398l-6.031-7.211v7.211h-5.216v-15.872h4.399l6.031,7.21v-7.21
					H666.881z"/>
				<path style="fill:#FFFFFF;" d="M668.835,369.192c0-4.875,3.741-8.299,8.844-8.299c3.106,0,5.555,1.134,7.119,3.175l-3.378,3.016
					c-0.93-1.179-2.041-1.859-3.47-1.859c-2.222,0-3.719,1.542-3.719,3.968c0,2.427,1.497,3.969,3.719,3.969
					c1.429,0,2.54-0.681,3.47-1.859l3.378,3.016c-1.565,2.041-4.013,3.174-7.119,3.174
					C672.576,377.491,668.835,374.067,668.835,369.192z"/>
				<path style="fill:#FFFFFF;" d="M695.773,371.368v5.76h-5.351v-5.827l-5.986-10.045h5.647l3.242,5.487l3.265-5.487h5.17
					L695.773,371.368z"/>
			</g>
			<g style="opacity:0.3;">
				<rect x="586.603" y="398.06" width="114.986" height="41.646"/>
			</g>
			<g>
				<rect x="604.511" y="394.702" style="fill:#E0E0E0;" width="8.792" height="45.083"/>
			</g>
			<g>
				<rect x="619.492" y="402.596" style="fill:#455A64;" width="78.683" height="37.188"/>
			</g>
			<g>
				<g style="opacity:0.3;">
					<polygon style="fill:#FFFFFF;" points="698.175,402.596 619.492,432.513 619.492,439.418 698.175,408.711 					"/>
				</g>
				<g style="opacity:0.3;">
					<polygon style="fill:#FFFFFF;" points="625.555,439.784 630.383,439.784 698.175,413.041 698.175,411.277 					"/>
				</g>
				<g>
					<rect x="641.964" y="413.437" style="fill:#E0E0E0;" width="38.535" height="0.5"/>
				</g>
				<g>
					<rect x="657.098" y="423.302" style="fill:#E0E0E0;" width="1.239" height="4.614"/>
				</g>
				<g>
					<rect x="663.991" y="423.302" style="fill:#E0E0E0;" width="1.239" height="4.614"/>
				</g>
			</g>
			<g>
				<g>
					<path style="fill:#E0E0E0;" d="M642.167,439.784c0-12.396,0-24.792,0-37.188c0-0.293-0.456-0.294-0.456,0
						c0,12.396,0,24.792,0,37.188C641.711,440.078,642.167,440.078,642.167,439.784L642.167,439.784z"/>
				</g>
			</g>
			<g>
				<g>
					<path style="fill:#E0E0E0;" d="M680.726,439.784c0-12.396,0-24.792,0-37.188c0-0.293-0.456-0.294-0.456,0
						c0,12.396,0,24.792,0,37.188C680.271,440.078,680.726,440.078,680.726,439.784L680.726,439.784z"/>
				</g>
			</g>
			<g>
				<g>
					<path style="fill:#E0E0E0;" d="M660.951,414.02c0,8.529,0,17.057,0,25.586c0,0.293,0.456,0.294,0.456,0
						c0-8.529,0-17.057,0-25.586C661.407,413.727,660.951,413.726,660.951,414.02L660.951,414.02z"/>
				</g>
			</g>
			<g style="opacity:0.3;">
				<polygon points="621.814,439.784 621.814,405.048 698.175,405.048 698.175,402.596 619.492,402.596 619.492,439.784 				"/>
			</g>
			<g>
				<polygon style="fill:#E0E0E0;" points="698.425,439.784 697.925,439.784 697.925,402.846 619.743,402.846 619.743,439.784 
					619.243,439.784 619.243,402.346 698.425,402.346 				"/>
			</g>
			<g>
				<rect x="536.85" y="382.672" style="fill:#FF725E;" width="175.069" height="2.706"/>
			</g>
		</g>
		<g>
			<g>
				<rect x="395.693" y="132.319" style="fill:#FF725E;" width="141.179" height="307.118"/>
			</g>
			<g style="opacity:0.3;">
				<rect x="407.782" y="395.242" width="118.326" height="44.194"/>
			</g>
			<g>
				<rect x="444.789" y="166.004" style="fill:#455A64;" width="92.083" height="218.022"/>
			</g>
			<g>
				<rect x="395.693" y="387.019" style="fill:#FF725E;" width="141.179" height="8.224"/>
			</g>
			<g>
				<g>
					<path style="fill:#FAFAFA;" d="M439.201,136.273v14.013h-4.724v-5.165h-4.364v5.165h-4.724v-14.013h4.724v4.965h4.364v-4.965
						H439.201z"/>
				</g>
				<g>
					<path style="fill:#FAFAFA;" d="M440.92,143.28c0-4.244,3.343-7.327,7.908-7.327c4.564,0,7.907,3.083,7.907,7.327
						c0,4.244-3.343,7.327-7.907,7.327C444.263,150.607,440.92,147.524,440.92,143.28z M451.971,143.28
						c0-2.182-1.401-3.503-3.143-3.503c-1.742,0-3.143,1.321-3.143,3.503s1.401,3.504,3.143,3.504
						C450.569,146.783,451.971,145.462,451.971,143.28z"/>
				</g>
				<g>
					<path style="fill:#FAFAFA;" d="M457.574,149.166l1.521-3.444c1.322,0.781,3.083,1.281,4.625,1.281
						c1.342,0,1.822-0.28,1.822-0.761c0-1.761-7.748-0.34-7.748-5.565c0-2.602,2.182-4.724,6.526-4.724
						c1.882,0,3.823,0.4,5.285,1.221l-1.421,3.423c-1.381-0.701-2.682-1.041-3.903-1.041c-1.382,0-1.822,0.4-1.822,0.881
						c0,1.682,7.747,0.28,7.747,5.445c0,2.562-2.182,4.724-6.526,4.724C461.338,150.607,458.975,150.026,457.574,149.166z"/>
				</g>
				<g>
					<path style="fill:#FAFAFA;" d="M484.738,141.558c0,3.243-2.483,5.285-6.387,5.285h-2.022v3.443h-4.724v-14.013h6.746
						C482.255,136.273,484.738,138.315,484.738,141.558z M479.973,141.558c0-1.021-0.62-1.641-1.922-1.641h-1.722v3.283h1.722
						C479.353,143.2,479.973,142.579,479.973,141.558z"/>
				</g>
				<g>
					<path style="fill:#FAFAFA;" d="M486.278,136.273h4.724v14.013h-4.724V136.273z"/>
				</g>
				<g>
					<path style="fill:#FAFAFA;" d="M496.326,139.937h-4.104v-3.664h12.932v3.664h-4.104v10.35h-4.724V139.937z"/>
				</g>
				<g>
					<path style="fill:#FAFAFA;" d="M515.223,147.844h-5.326l-0.941,2.442h-4.804l6.126-14.013h4.645l6.126,14.013h-4.885
						L515.223,147.844z M513.922,144.441l-1.362-3.523l-1.361,3.523H513.922z"/>
				</g>
				<g>
					<path style="fill:#FAFAFA;" d="M521.806,136.273h4.724v10.35h6.326v3.664h-11.051V136.273z"/>
				</g>
			</g>
			<g>
				<g>
					<rect x="417.597" y="179.11" style="fill:#455A64;" width="13.395" height="13.395"/>
				</g>
				<g>
					<rect x="417.597" y="223.597" style="fill:#455A64;" width="13.395" height="13.395"/>
				</g>
				<g>
					<rect x="417.597" y="270.309" style="fill:#455A64;" width="13.395" height="13.395"/>
				</g>
				<g>
					<rect x="417.597" y="317.021" style="fill:#455A64;" width="13.395" height="13.395"/>
				</g>
				<g>
					<rect x="417.597" y="363.733" style="fill:#455A64;" width="13.395" height="13.395"/>
				</g>
			</g>
			<g>
				<g>
					<rect x="406.219" y="405.133" style="fill:#455A64;" width="21.665" height="30.275"/>
					<path style="fill:#E0E0E0;" d="M428.384,435.908h-22.665v-31.274h22.665V435.908z M406.719,434.908h20.665v-29.274h-20.665
						V434.908z"/>
				</g>
				<g style="opacity:0.3;">
					<polygon style="fill:#FFFFFF;" points="427.884,406.835 406.219,415.64 406.219,422.545 427.884,413.109 					"/>
				</g>
				<g style="opacity:0.3;">
					<polygon style="fill:#FFFFFF;" points="427.884,415.923 406.219,425.609 406.219,427.513 427.884,417.688 					"/>
				</g>
			</g>
			<g>
				<rect x="426.797" y="395.242" style="fill:#FF725E;" width="12.53" height="44.194"/>
			</g>
			<g>
				<g>
					<rect x="447.632" y="407.167" style="fill:#455A64;" width="38.535" height="32.27"/>
				</g>
				<g style="opacity:0.3;">
					<polygon style="fill:#FFFFFF;" points="485.814,409.867 447.928,425.609 447.928,432.513 485.814,416.141 					"/>
				</g>
				<g style="opacity:0.3;">
					<polygon style="fill:#FFFFFF;" points="485.666,419.093 447.78,434.834 447.78,436.739 485.666,420.857 					"/>
				</g>
				<g style="opacity:0.3;">
					<polygon points="448.095,436.048 449.308,409.016 485.814,407.701 447.632,407.167 					"/>
				</g>
				<g>
					<polygon style="fill:#E0E0E0;" points="486.667,439.437 485.667,439.437 485.667,407.666 448.132,407.666 448.132,439.437 
						447.132,439.437 447.132,406.666 486.667,406.666 					"/>
				</g>
				<g>
					<rect x="466.444" y="407.367" style="fill:#E0E0E0;" width="1" height="32.069"/>
				</g>
				<g>
					<rect x="447.676" y="413.437" style="fill:#E0E0E0;" width="38.535" height="0.5"/>
				</g>
				<g>
					<rect x="462.811" y="423.302" style="fill:#E0E0E0;" width="1.239" height="4.614"/>
				</g>
				<g>
					<rect x="469.704" y="423.302" style="fill:#E0E0E0;" width="1.239" height="4.614"/>
				</g>
			</g>
			<g>
				<g>
					<rect x="504.444" y="405.133" style="fill:#455A64;" width="21.665" height="30.275"/>
					<path style="fill:#E0E0E0;" d="M526.608,435.908h-22.664v-31.274h22.664V435.908z M504.944,434.908h20.664v-29.274h-20.664
						V434.908z"/>
				</g>
				<g style="opacity:0.3;">
					<polygon style="fill:#FFFFFF;" points="526.108,406.835 504.444,415.64 504.444,422.545 526.108,413.109 					"/>
				</g>
				<g style="opacity:0.3;">
					<polygon style="fill:#FFFFFF;" points="526.108,415.923 504.444,425.609 504.444,427.513 526.108,417.688 					"/>
				</g>
			</g>
			<g>
				<rect x="492.847" y="395.242" style="fill:#FF725E;" width="12.53" height="44.194"/>
			</g>
			<g>
				<rect x="525.302" y="395.242" style="fill:#FF725E;" width="11.669" height="44.194"/>
			</g>
			<g style="opacity:0.3;">
				<rect x="395.693" y="202.634" style="fill:#FFFFFF;" width="12.241" height="7.365"/>
			</g>
			<g style="opacity:0.3;">
				<rect x="395.693" y="162.321" style="fill:#FFFFFF;" width="12.241" height="7.365"/>
			</g>
			<g style="opacity:0.3;">
				<rect x="494.645" y="151.044" style="fill:#FFFFFF;" width="12.241" height="7.365"/>
			</g>
			<g style="opacity:0.3;">
				<rect x="478.449" y="146.93" style="fill:#FFFFFF;" width="12.241" height="7.365"/>
			</g>
			<g style="opacity:0.3;">
				<rect x="395.693" y="252.149" style="fill:#FFFFFF;" width="12.241" height="7.365"/>
			</g>
			<g style="opacity:0.3;">
				<rect x="395.693" y="301.664" style="fill:#FFFFFF;" width="12.241" height="7.365"/>
			</g>
			<g style="opacity:0.3;">
				<rect x="395.693" y="350.294" style="fill:#FFFFFF;" width="12.241" height="7.365"/>
			</g>
			<g>
				<polygon style="fill:#E0E0E0;" points="536.872,385.026 443.79,385.026 443.79,165.004 536.872,165.004 536.872,167.004 
					445.79,167.004 445.79,383.026 536.872,383.026 				"/>
			</g>
			<g>
				<rect x="444.789" y="214.556" style="fill:#E0E0E0;" width="92.083" height="3.682"/>
			</g>
			<g>
				<rect x="444.789" y="271.416" style="fill:#E0E0E0;" width="92.083" height="3.682"/>
			</g>
			<g>
				<rect x="444.789" y="328.276" style="fill:#E0E0E0;" width="92.083" height="3.682"/>
			</g>
			<g>
				<g>
					<g>
						<path style="fill:#E0E0E0;" d="M477.593,166.705c0,28.226,0,56.452,0,84.679c0,28.347,0,56.695,0,85.042
							c0,15.78,0,31.56,0,47.34c0,0.293,0.456,0.294,0.456,0c0-28.226,0-56.453,0-84.679c0-28.347,0-56.695,0-85.042
							c0-15.78,0-31.56,0-47.339C478.049,166.411,477.593,166.411,477.593,166.705L477.593,166.705z"/>
					</g>
				</g>
				<g>
					<g>
						<path style="fill:#E0E0E0;" d="M511.082,166.004c0,28.358,0,56.716,0,85.073c0,28.47,0,56.94,0,85.41
							c0,15.846,0,31.693,0,47.539c0,0.293,0.456,0.294,0.456,0c0-28.358,0-56.716,0-85.073c0-28.47,0-56.94,0-85.41
							c0-15.846,0-31.693,0-47.539C511.537,165.71,511.082,165.71,511.082,166.004L511.082,166.004z"/>
					</g>
				</g>
				<g>
					<g>
						<path style="fill:#E0E0E0;" d="M445.314,357.887c23.669,0,47.338,0,71.006,0c6.676,0,13.352,0,20.027,0
							c0.293,0,0.294-0.456,0-0.456c-23.669,0-47.337,0-71.006,0c-6.676,0-13.352,0-20.027,0
							C445.021,357.431,445.02,357.887,445.314,357.887L445.314,357.887z"/>
					</g>
				</g>
				<g>
					<g>
						<path style="fill:#E0E0E0;" d="M445.314,301.917c23.669,0,47.338,0,71.006,0c6.676,0,13.352,0,20.027,0
							c0.293,0,0.294-0.456,0-0.456c-23.669,0-47.337,0-71.006,0c-6.676,0-13.352,0-20.027,0
							C445.021,301.462,445.02,301.917,445.314,301.917L445.314,301.917z"/>
					</g>
				</g>
				<g>
					<g>
						<path style="fill:#E0E0E0;" d="M445.314,245.948c23.669,0,47.338,0,71.006,0c6.676,0,13.352,0,20.027,0
							c0.293,0,0.294-0.456,0-0.456c-23.669,0-47.337,0-71.006,0c-6.676,0-13.352,0-20.027,0
							C445.021,245.492,445.02,245.948,445.314,245.948L445.314,245.948z"/>
					</g>
				</g>
				<g>
					<g>
						<path style="fill:#E0E0E0;" d="M445.314,190.586c23.669,0,47.338,0,71.006,0c6.676,0,13.352,0,20.027,0
							c0.293,0,0.294-0.456,0-0.456c-23.669,0-47.337,0-71.006,0c-6.676,0-13.352,0-20.027,0
							C445.021,190.13,445.02,190.586,445.314,190.586L445.314,190.586z"/>
					</g>
				</g>
			</g>
			<g style="opacity:0.3;">
				<polygon style="fill:#FFFFFF;" points="536.971,182.495 445.314,240.34 445.314,257.465 536.872,202.318 				"/>
			</g>
			<g style="opacity:0.3;">
				<polygon style="fill:#FFFFFF;" points="536.971,289.318 445.314,347.162 445.314,364.288 536.872,309.141 				"/>
			</g>
			<g style="opacity:0.3;">
				<polygon style="fill:#FFFFFF;" points="536.971,227.98 445.314,285.825 445.314,292.608 536.872,236.992 				"/>
			</g>
			<g style="opacity:0.3;">
				<polygon points="420.019,330.416 420.019,318.925 430.992,318.925 430.992,317.021 417.597,317.021 417.597,330.416 				"/>
			</g>
			<g style="opacity:0.3;">
				<polygon points="420.019,377.128 420.019,365.637 430.992,365.637 430.992,363.733 417.597,363.733 417.597,377.128 				"/>
			</g>
			<g style="opacity:0.3;">
				<polygon points="420.019,236.992 420.019,225.501 430.992,225.501 430.992,223.597 417.597,223.597 417.597,236.992 				"/>
			</g>
			<g style="opacity:0.3;">
				<polygon points="420.019,283.704 420.019,272.213 430.992,272.213 430.992,270.309 417.597,270.309 417.597,283.704 				"/>
			</g>
			<g style="opacity:0.3;">
				<polygon points="420.019,192.511 420.019,181.02 430.992,181.02 430.992,179.116 417.597,179.116 417.597,192.511 				"/>
			</g>
			<g>
				<rect x="395.693" y="395.242" style="fill:#FF725E;" width="12.53" height="44.194"/>
			</g>
			<g>
				<polygon style="fill:#FAFAFA;" points="415.117,141.617 411.355,141.617 411.355,137.855 407.731,137.855 407.731,141.617 
					403.968,141.617 403.968,145.241 407.731,145.241 407.731,149.004 411.355,149.004 411.355,145.241 415.117,145.241 				"/>
			</g>
			<g>
				<g>
					<rect x="450.16" y="397.696" style="fill:#FFFFFF;" width="2.28" height="7.017"/>
				</g>
				<g>
					
						<rect x="450.16" y="397.696" transform="matrix(6.123234e-17 -1 1 6.123234e-17 50.0955 852.5047)" style="fill:#FFFFFF;" width="2.281" height="7.017"/>
				</g>
			</g>
			<g>
				<rect x="456.888" y="399.57" style="fill:#FFFFFF;" width="28.778" height="3.269"/>
			</g>
			<g>
				<g>
					<path style="fill:#263238;" d="M395.693,439.706c-0.131,0-0.237-66.329-0.237-148.131c0-81.83,0.106-148.145,0.237-148.145
						c0.131,0,0.237,66.315,0.237,148.145C395.93,373.377,395.824,439.706,395.693,439.706z"/>
				</g>
			</g>
		</g>
	</g>
</g>
<g id="Birds">
	<g>
		<g>
			<g>
				<g>
					<path style="fill:#263238;" d="M643.539,122.748c-0.012,0.034-0.598-0.206-1.705-0.452c-1.101-0.242-2.754-0.455-4.758-0.183
						c-1.99,0.266-4.348,1.066-6.411,2.765c-2.059,1.668-3.821,4.191-4.525,7.185c-0.007,0.027-0.014,0.055-0.02,0.08l-0.132,0.513
						l-0.197-0.487c-1.152-2.845-3.198-5.105-5.418-6.542c-2.226-1.463-4.62-2.07-6.617-2.206c-2.01-0.14-3.641,0.148-4.727,0.433
						c-1.091,0.288-1.668,0.541-1.681,0.509c-0.005-0.011,0.137-0.079,0.411-0.198c0.273-0.121,0.687-0.279,1.233-0.44
						c1.086-0.327,2.732-0.658,4.779-0.547c2.032,0.107,4.487,0.7,6.774,2.182c2.28,1.455,4.384,3.762,5.566,6.68l-0.329,0.026
						c0.007-0.026,0.014-0.054,0.021-0.082c0.724-3.078,2.541-5.659,4.662-7.354c2.126-1.728,4.551-2.521,6.58-2.76
						c2.045-0.246,3.717,0.01,4.82,0.295c0.555,0.14,0.976,0.284,1.254,0.397C643.399,122.673,643.543,122.737,643.539,122.748z"/>
				</g>
			</g>
		</g>
		<g>
			<g>
				<g>
					<path style="fill:#263238;" d="M691.108,96.645c-0.01,0.029-0.336-0.094-0.944-0.219c-0.605-0.123-1.51-0.231-2.603-0.076
						c-1.086,0.152-2.367,0.594-3.488,1.522c-1.119,0.911-2.076,2.286-2.458,3.914l-0.011,0.043l-0.132,0.513l-0.197-0.487
						c-0.627-1.548-1.739-2.781-2.947-3.567c-1.21-0.801-2.513-1.137-3.604-1.219c-1.097-0.084-1.991,0.065-2.589,0.212
						c-0.6,0.149-0.921,0.278-0.932,0.251c-0.005-0.011,0.071-0.053,0.221-0.124c0.149-0.071,0.376-0.163,0.676-0.256
						c0.597-0.189,1.506-0.381,2.64-0.326c1.125,0.052,2.489,0.375,3.761,1.195c1.267,0.804,2.438,2.083,3.095,3.705l-0.329,0.026
						l0.012-0.045c0.403-1.712,1.414-3.145,2.595-4.083c1.184-0.957,2.533-1.391,3.657-1.517c1.134-0.129,2.058,0.021,2.665,0.187
						c0.305,0.082,0.536,0.166,0.688,0.233C691.035,96.594,691.112,96.634,691.108,96.645z"/>
				</g>
			</g>
		</g>
		<g>
			<g>
				<g>
					<path style="fill:#263238;" d="M660.006,85.962c0.021,0.022-0.325,0.373-0.914,1.037c-0.59,0.663-1.394,1.67-2.232,3.014
						c-1.686,2.653-3.373,6.88-3.315,11.731c0,0.051-0.001,0.101-0.001,0.148l-0.344,0.028c-0.359-2.367-1.148-4.538-2.145-6.353
						c-0.994-1.82-2.162-3.299-3.266-4.412c-1.102-1.116-2.107-1.903-2.831-2.401c-0.722-0.5-1.141-0.751-1.125-0.778
						c0.006-0.01,0.116,0.043,0.32,0.153c0.201,0.117,0.513,0.265,0.879,0.514c0.752,0.466,1.791,1.232,2.929,2.34
						c1.14,1.105,2.346,2.589,3.372,4.43c1.029,1.836,1.843,4.044,2.209,6.457l-0.344,0.028c0-0.047,0.001-0.099,0.001-0.15
						c-0.059-4.935,1.696-9.218,3.455-11.866c0.875-1.342,1.716-2.335,2.34-2.974c0.301-0.33,0.569-0.554,0.737-0.717
						C659.903,86.032,659.998,85.953,660.006,85.962z"/>
				</g>
			</g>
		</g>
	</g>
</g>
</svg>
